<svg xmlns="http://www.w3.org/2000/svg" width="1920" height="1080" viewBox="-1.207 -3.4 16.599 4.341">
<defs>
</defs>
<g stroke-width="0.009">
<polyline points="0,0 0,-2 -0.707,-1.293 0.707,-1.293 0,-2" style="fill:none;stroke:rgb(0,0,0)"/>
<g transform="matrix(1,0,0,1,-0.425,-1.9)">
<text x="0" y="0" style="font-family:Helvetica,Arial,sans-serif;font-size:1.4">N</text>
</g>
<polyline points="3,0 4.414,-1.414 3.414,-1.414 4.414,-0.414 4.414,-1.414" style="fill:none;stroke:rgb(0,0,0)"/>
<g transform="matrix(0.707,0.707,-0.707,0.707,4.043,-1.644)">
<text x="0" y="0" style="font-family:Helvetica,Arial,sans-serif;font-size:1.4">N</text>
</g>
<polyline points="6,0 7.732,-1 6.766,-1.259 7.473,-0.034 7.732,-1" style="fill:none;stroke:rgb(0,0,0)"/>
<g transform="matrix(0.5,0.866,-0.866,0.5,7.433,-1.318)">
<text x="0" y="0" style="font-family:Helvetica,Arial,sans-serif;font-size:1.4">N</text>
</g>
<polyline points="9,0 10.848,-0.765 9.924,-1.148 10.465,0.159 10.848,-0.765" style="fill:none;stroke:rgb(0,0,0)"/>
<g transform="matrix(0.383,0.924,-0.924,0.383,10.593,-1.12)">
<text x="0" y="0" style="font-family:Helvetica,Arial,sans-serif;font-size:1.4">N</text>
</g>
<polyline points="12,0 13.962,-0.39 13.13,-0.946 13.406,0.441 13.962,-0.39" style="fill:none;stroke:rgb(0,0,0)"/>
<g transform="matrix(0.195,0.981,-0.981,0.195,13.781,-0.788)">
<text x="0" y="0" style="font-family:Helvetica,Arial,sans-serif;font-size:1.4">N</text>
</g>
</g>
</svg>
