<svg xmlns="http://www.w3.org/2000/svg" width="1920" height="1080" viewBox="-31.841 -46.036 89.008 64.353">
<defs>
</defs>
<g stroke-width="0.046">
<text x="0" y="0" style="font-family:Helvetica,Arial,sans-serif;font-size:14">Rodado</text>
<g transform="matrix(0.844,-0.536,0.536,0.844,0,0)">
<text x="0" y="0" style="font-family:Helvetica,Arial,sans-serif;font-size:12.74">Rodado</text>
</g>
<g transform="matrix(0.426,-0.905,0.905,0.426,0,0)">
<text x="0" y="0" style="font-family:Helvetica,Arial,sans-serif;font-size:11.48">Rodado</text>
</g>
<g transform="matrix(-0.125,-0.992,0.992,-0.125,0,0)">
<text x="0" y="0" style="font-family:Helvetica,Arial,sans-serif;font-size:10.22">Rodado</text>
</g>
<g transform="matrix(-0.637,-0.771,0.771,-0.637,0,0)">
<text x="0" y="0" style="font-family:Helvetica,Arial,sans-serif;font-size:8.96">Rodado</text>
</g>
<g transform="matrix(-0.951,-0.309,0.309,-0.951,0,0)">
<text x="0" y="0" style="font-family:Helvetica,Arial,sans-serif;font-size:7.7">Rodado</text>
</g>
<g transform="matrix(-0.969,0.249,-0.249,-0.969,0,0)">
<text x="0" y="0" style="font-family:Helvetica,Arial,sans-serif;font-size:6.44">Rodado</text>
</g>
<g transform="matrix(-0.685,0.729,-0.729,-0.685,0,0)">
<text x="0" y="0" style="font-family:Helvetica,Arial,sans-serif;font-size:5.18">Rodado</text>
</g>
<g transform="matrix(-0.187,0.982,-0.982,-0.187,0,0)">
<text x="0" y="0" style="font-family:Helvetica,Arial,sans-serif;font-size:3.92">Rodado</text>
</g>
<g transform="matrix(0.368,0.93,-0.93,0.368,0,0)">
<text x="0" y="0" style="font-family:Helvetica,Arial,sans-serif;font-size:2.66">Rodado</text>
</g>
<g transform="matrix(0.809,0.588,-0.588,0.809,0,0)">
<text x="0" y="0" style="font-family:Helvetica,Arial,sans-serif;font-size:1.4">Rodado</text>
</g>
</g>
</svg>
