<?xml version="1.0" encoding="UTF-8"?>
<svg xmlns="http://www.w3.org/2000/svg" xmlns:xlink="http://www.w3.org/1999/xlink" width="1920" height="1080" viewBox="0 0 1920 1080">
<rect x="-192" y="-108" width="2304" height="1296" fill="rgb(100%, 100%, 100%)" fill-opacity="1"/>
<path fill="none" stroke-width="2" stroke-linecap="butt" stroke-linejoin="miter" stroke="rgb(0%, 0%, 0%)" stroke-opacity="1" stroke-miterlimit="10" d="M -275.902344 5756.308594 L 2445.527344 5597.960938 L 5005.46875 5136.921875 L 7252.886719 4412.5625 L 9074.484375 3482.503906 L 10402.359375 2413.410156 L 11212.761719 1272.132812 L 11518.441406 119.09375 L 11358.066406 -995.476562 L 10785.695312 -2032.695312 L 9862.109375 -2964.359375 L 8648.691406 -3771.253906 L 7203.757812 -4441.09375 L 5580.855469 -4966.589844 L 3828.492188 -5343.738281 L 1990.789062 -5570.570312 L 108.683594 -5646.257812 "/>
<path fill="none" stroke-width="2" stroke-linecap="butt" stroke-linejoin="miter" stroke="rgb(0%, 0%, 0%)" stroke-opacity="1" stroke-miterlimit="10" d="M -6861.554688 2241.769531 L -6244.871094 2579.570312 L -5548.785156 2885.035156 L -4780.449219 3153.171875 L -3948.617188 3379.4375 L -3063.558594 3559.851562 L -2136.855469 3691.15625 L -1181.152344 3770.9375 L -209.84375 3797.695312 L 763.269531 3770.9375 L 1724.355469 3691.15625 L 2659.914062 3559.851562 L 3557.144531 3379.4375 L 4404.238281 3153.171875 L 5190.664062 2885.035156 L 5907.351562 2579.570312 L 6546.824219 2241.769531 L 7103.25 1876.886719 L 7572.457031 1490.316406 L 7951.851562 1087.453125 L 8240.332031 673.574219 L 8438.128906 253.742188 L 8546.664062 -167.269531 L 8568.367188 -585.027344 L 8506.503906 -995.476562 L 8365.007812 -1394.953125 L 8148.332031 -1780.199219 L 7861.296875 -2148.335938 L 7508.980469 -2496.863281 L 7096.617188 -2823.625 L 6629.5 -3126.789062 L 6112.929688 -3404.800781 L 5552.164062 -3656.371094 L 4952.371094 -3880.4375 L 4318.632812 -4076.125 L 3655.90625 -4242.746094 L 2969.054688 -4379.746094 L 2262.824219 -4486.707031 L 1541.890625 -4563.320312 L 810.839844 -4609.367188 L 74.226562 -4624.730469 L -663.421875 -4609.367188 L -1397.574219 -4563.320312 L -2123.679688 -4486.707031 L -2837.121094 -4379.746094 L -3533.21875 -4242.746094 L -4207.179688 -4076.125 L -4854.121094 -3880.4375 L -5469.027344 -3656.371094 L -6046.765625 -3404.800781 L -6582.089844 -3126.789062 L -7069.65625 -2823.625 L -7504.0625 -2496.863281 L -7879.886719 -2148.335938 L -8191.753906 -1780.199219 L -8434.417969 -1394.953125 L -8602.863281 -995.476562 L -8692.414062 -585.027344 L -8698.890625 -167.269531 L -8618.753906 253.742188 L -8449.277344 673.574219 L -8188.71875 1087.453125 L -7836.496094 1490.316406 L -7393.367188 1876.886719 Z M -6861.554688 2241.769531 "/>
</svg>
