<?xml version="1.0" encoding="UTF-8"?>
<svg xmlns="http://www.w3.org/2000/svg" xmlns:xlink="http://www.w3.org/1999/xlink" width="1920" height="1080" viewBox="0 0 1920 1080">
<rect x="-192" y="-108" width="2304" height="1296" fill="rgb(100%, 100%, 100%)" fill-opacity="1"/>
<path fill-rule="nonzero" fill="rgb(52.742042%, 52.742042%, 52.742042%)" fill-opacity="1" d="M 1331.933594 602.941406 L 1318.398438 543.46875 L 1348.03125 545.421875 "/>
<path fill="none" stroke-width="0.1" stroke-linecap="butt" stroke-linejoin="miter" stroke="rgb(100%, 100%, 100%)" stroke-opacity="1" stroke-miterlimit="10" d="M 1331.933594 602.941406 L 1318.398438 543.46875 L 1348.03125 545.421875 Z M 1331.933594 602.941406 "/>
<path fill-rule="nonzero" fill="rgb(52.742042%, 52.742042%, 52.742042%)" fill-opacity="1" d="M 1331.933594 602.941406 L 1348.03125 545.421875 L 1376.75 551.183594 "/>
<path fill="none" stroke-width="0.1" stroke-linecap="butt" stroke-linejoin="miter" stroke="rgb(100%, 100%, 100%)" stroke-opacity="1" stroke-miterlimit="10" d="M 1331.933594 602.941406 L 1348.03125 545.421875 L 1376.75 551.183594 Z M 1331.933594 602.941406 "/>
<path fill-rule="nonzero" fill="rgb(52.742042%, 52.742042%, 52.742042%)" fill-opacity="1" d="M 1331.933594 602.941406 L 1289.65625 545.421875 L 1318.398438 543.46875 "/>
<path fill="none" stroke-width="0.1" stroke-linecap="butt" stroke-linejoin="miter" stroke="rgb(100%, 100%, 100%)" stroke-opacity="1" stroke-miterlimit="10" d="M 1331.933594 602.941406 L 1289.65625 545.421875 L 1318.398438 543.46875 Z M 1331.933594 602.941406 "/>
<path fill-rule="nonzero" fill="rgb(52.742042%, 52.742042%, 52.742042%)" fill-opacity="1" d="M 1331.933594 602.941406 L 1376.75 551.183594 L 1402.761719 560.433594 "/>
<path fill="none" stroke-width="0.1" stroke-linecap="butt" stroke-linejoin="miter" stroke="rgb(100%, 100%, 100%)" stroke-opacity="1" stroke-miterlimit="10" d="M 1331.933594 602.941406 L 1376.75 551.183594 L 1402.761719 560.433594 Z M 1331.933594 602.941406 "/>
<path fill-rule="nonzero" fill="rgb(52.742042%, 52.742042%, 52.742042%)" fill-opacity="1" d="M 1331.933594 602.941406 L 1263.5625 551.183594 L 1289.65625 545.421875 "/>
<path fill="none" stroke-width="0.1" stroke-linecap="butt" stroke-linejoin="miter" stroke="rgb(100%, 100%, 100%)" stroke-opacity="1" stroke-miterlimit="10" d="M 1331.933594 602.941406 L 1263.5625 551.183594 L 1289.65625 545.421875 Z M 1331.933594 602.941406 "/>
<path fill-rule="nonzero" fill="rgb(52.742042%, 52.742042%, 52.742042%)" fill-opacity="1" d="M 1331.933594 602.941406 L 1402.761719 560.433594 L 1424.394531 572.652344 "/>
<path fill="none" stroke-width="0.1" stroke-linecap="butt" stroke-linejoin="miter" stroke="rgb(100%, 100%, 100%)" stroke-opacity="1" stroke-miterlimit="10" d="M 1331.933594 602.941406 L 1402.761719 560.433594 L 1424.394531 572.652344 Z M 1331.933594 602.941406 "/>
<path fill-rule="nonzero" fill="rgb(52.742042%, 52.742042%, 52.742042%)" fill-opacity="1" d="M 1331.933594 602.941406 L 1241.757812 560.433594 L 1263.5625 551.183594 "/>
<path fill="none" stroke-width="0.1" stroke-linecap="butt" stroke-linejoin="miter" stroke="rgb(100%, 100%, 100%)" stroke-opacity="1" stroke-miterlimit="10" d="M 1331.933594 602.941406 L 1241.757812 560.433594 L 1263.5625 551.183594 Z M 1331.933594 602.941406 "/>
<path fill-rule="nonzero" fill="rgb(52.742042%, 52.742042%, 52.742042%)" fill-opacity="1" d="M 1331.933594 602.941406 L 1424.394531 572.652344 L 1440.144531 587.121094 "/>
<path fill="none" stroke-width="0.1" stroke-linecap="butt" stroke-linejoin="miter" stroke="rgb(100%, 100%, 100%)" stroke-opacity="1" stroke-miterlimit="10" d="M 1331.933594 602.941406 L 1424.394531 572.652344 L 1440.144531 587.121094 Z M 1331.933594 602.941406 "/>
<path fill-rule="nonzero" fill="rgb(52.742042%, 52.742042%, 52.742042%)" fill-opacity="1" d="M 1331.933594 602.941406 L 1225.691406 572.652344 L 1241.757812 560.433594 "/>
<path fill="none" stroke-width="0.1" stroke-linecap="butt" stroke-linejoin="miter" stroke="rgb(100%, 100%, 100%)" stroke-opacity="1" stroke-miterlimit="10" d="M 1331.933594 602.941406 L 1225.691406 572.652344 L 1241.757812 560.433594 Z M 1331.933594 602.941406 "/>
<path fill-rule="nonzero" fill="rgb(52.742042%, 52.742042%, 52.742042%)" fill-opacity="1" d="M 1331.933594 602.941406 L 1440.144531 587.121094 L 1448.820312 602.941406 "/>
<path fill="none" stroke-width="0.1" stroke-linecap="butt" stroke-linejoin="miter" stroke="rgb(100%, 100%, 100%)" stroke-opacity="1" stroke-miterlimit="10" d="M 1331.933594 602.941406 L 1440.144531 587.121094 L 1448.820312 602.941406 Z M 1331.933594 602.941406 "/>
<path fill-rule="nonzero" fill="rgb(52.742042%, 52.742042%, 52.742042%)" fill-opacity="1" d="M 1331.933594 602.941406 L 1216.523438 587.121094 L 1225.691406 572.652344 "/>
<path fill="none" stroke-width="0.1" stroke-linecap="butt" stroke-linejoin="miter" stroke="rgb(100%, 100%, 100%)" stroke-opacity="1" stroke-miterlimit="10" d="M 1331.933594 602.941406 L 1216.523438 587.121094 L 1225.691406 572.652344 Z M 1331.933594 602.941406 "/>
<path fill-rule="nonzero" fill="rgb(52.742042%, 52.742042%, 52.742042%)" fill-opacity="1" d="M 1331.933594 602.941406 L 1448.820312 602.941406 L 1449.625 619.070312 "/>
<path fill="none" stroke-width="0.1" stroke-linecap="butt" stroke-linejoin="miter" stroke="rgb(100%, 100%, 100%)" stroke-opacity="1" stroke-miterlimit="10" d="M 1331.933594 602.941406 L 1448.820312 602.941406 L 1449.625 619.070312 Z M 1331.933594 602.941406 "/>
<path fill-rule="nonzero" fill="rgb(52.742042%, 52.742042%, 52.742042%)" fill-opacity="1" d="M 1331.933594 602.941406 L 1215.046875 602.941406 L 1216.523438 587.121094 "/>
<path fill="none" stroke-width="0.1" stroke-linecap="butt" stroke-linejoin="miter" stroke="rgb(100%, 100%, 100%)" stroke-opacity="1" stroke-miterlimit="10" d="M 1331.933594 602.941406 L 1215.046875 602.941406 L 1216.523438 587.121094 Z M 1331.933594 602.941406 "/>
<path fill-rule="nonzero" fill="rgb(52.742042%, 52.742042%, 52.742042%)" fill-opacity="1" d="M 1331.933594 602.941406 L 1449.625 619.070312 L 1442.269531 634.394531 "/>
<path fill="none" stroke-width="0.1" stroke-linecap="butt" stroke-linejoin="miter" stroke="rgb(100%, 100%, 100%)" stroke-opacity="1" stroke-miterlimit="10" d="M 1331.933594 602.941406 L 1449.625 619.070312 L 1442.269531 634.394531 Z M 1331.933594 602.941406 "/>
<path fill-rule="nonzero" fill="rgb(52.742042%, 52.742042%, 52.742042%)" fill-opacity="1" d="M 1331.933594 602.941406 L 1221.585938 619.070312 L 1215.046875 602.941406 "/>
<path fill="none" stroke-width="0.1" stroke-linecap="butt" stroke-linejoin="miter" stroke="rgb(100%, 100%, 100%)" stroke-opacity="1" stroke-miterlimit="10" d="M 1331.933594 602.941406 L 1221.585938 619.070312 L 1215.046875 602.941406 Z M 1331.933594 602.941406 "/>
<path fill-rule="nonzero" fill="rgb(42.276338%, 42.276338%, 42.276338%)" fill-opacity="1" d="M 1348.03125 545.421875 L 1318.398438 543.46875 L 1361.441406 0.417969 L 1394.695312 1.851562 "/>
<path fill="none" stroke-width="0.1" stroke-linecap="butt" stroke-linejoin="miter" stroke="rgb(100%, 100%, 100%)" stroke-opacity="1" stroke-miterlimit="10" d="M 1348.03125 545.421875 L 1318.398438 543.46875 L 1361.441406 0.417969 L 1394.695312 1.851562 Z M 1348.03125 545.421875 "/>
<path fill-rule="nonzero" fill="rgb(43.183445%, 43.183445%, 43.183445%)" fill-opacity="1" d="M 1376.75 551.183594 L 1348.03125 545.421875 L 1394.695312 1.851562 L 1427.070312 6.082031 "/>
<path fill="none" stroke-width="0.1" stroke-linecap="butt" stroke-linejoin="miter" stroke="rgb(100%, 100%, 100%)" stroke-opacity="1" stroke-miterlimit="10" d="M 1376.75 551.183594 L 1348.03125 545.421875 L 1394.695312 1.851562 L 1427.070312 6.082031 Z M 1376.75 551.183594 "/>
<path fill-rule="nonzero" fill="rgb(43.734219%, 43.734219%, 43.734219%)" fill-opacity="1" d="M 1318.398438 543.46875 L 1289.65625 545.421875 L 1329.300781 1.851562 L 1361.441406 0.417969 "/>
<path fill="none" stroke-width="0.1" stroke-linecap="butt" stroke-linejoin="miter" stroke="rgb(100%, 100%, 100%)" stroke-opacity="1" stroke-miterlimit="10" d="M 1318.398438 543.46875 L 1289.65625 545.421875 L 1329.300781 1.851562 L 1361.441406 0.417969 Z M 1318.398438 543.46875 "/>
<path fill-rule="nonzero" fill="rgb(52.742042%, 52.742042%, 52.742042%)" fill-opacity="1" d="M 1331.933594 602.941406 L 1442.269531 634.394531 L 1427.058594 647.777344 "/>
<path fill="none" stroke-width="0.1" stroke-linecap="butt" stroke-linejoin="miter" stroke="rgb(100%, 100%, 100%)" stroke-opacity="1" stroke-miterlimit="10" d="M 1331.933594 602.941406 L 1442.269531 634.394531 L 1427.058594 647.777344 Z M 1331.933594 602.941406 "/>
<path fill-rule="nonzero" fill="rgb(52.742042%, 52.742042%, 52.742042%)" fill-opacity="1" d="M 1331.933594 602.941406 L 1235.917969 634.394531 L 1221.585938 619.070312 "/>
<path fill="none" stroke-width="0.1" stroke-linecap="butt" stroke-linejoin="miter" stroke="rgb(100%, 100%, 100%)" stroke-opacity="1" stroke-miterlimit="10" d="M 1331.933594 602.941406 L 1235.917969 634.394531 L 1221.585938 619.070312 Z M 1331.933594 602.941406 "/>
<path fill-rule="nonzero" fill="rgb(46.0554%, 46.0554%, 46.0554%)" fill-opacity="1" d="M 1402.761719 560.433594 L 1376.75 551.183594 L 1427.070312 6.082031 L 1456.578125 12.882812 "/>
<path fill="none" stroke-width="0.1" stroke-linecap="butt" stroke-linejoin="miter" stroke="rgb(100%, 100%, 100%)" stroke-opacity="1" stroke-miterlimit="10" d="M 1402.761719 560.433594 L 1376.75 551.183594 L 1427.070312 6.082031 L 1456.578125 12.882812 Z M 1402.761719 560.433594 "/>
<path fill-rule="nonzero" fill="rgb(46.951026%, 46.951026%, 46.951026%)" fill-opacity="1" d="M 1289.65625 545.421875 L 1263.5625 551.183594 L 1300.21875 6.082031 L 1329.300781 1.851562 "/>
<path fill="none" stroke-width="0.1" stroke-linecap="butt" stroke-linejoin="miter" stroke="rgb(100%, 100%, 100%)" stroke-opacity="1" stroke-miterlimit="10" d="M 1289.65625 545.421875 L 1263.5625 551.183594 L 1300.21875 6.082031 L 1329.300781 1.851562 Z M 1289.65625 545.421875 "/>
<path fill-rule="nonzero" fill="rgb(52.742042%, 52.742042%, 52.742042%)" fill-opacity="1" d="M 1331.933594 602.941406 L 1427.058594 647.777344 L 1404.929688 658.195312 "/>
<path fill="none" stroke-width="0.1" stroke-linecap="butt" stroke-linejoin="miter" stroke="rgb(100%, 100%, 100%)" stroke-opacity="1" stroke-miterlimit="10" d="M 1331.933594 602.941406 L 1427.058594 647.777344 L 1404.929688 658.195312 Z M 1331.933594 602.941406 "/>
<path fill-rule="nonzero" fill="rgb(52.742042%, 52.742042%, 52.742042%)" fill-opacity="1" d="M 1331.933594 602.941406 L 1257.21875 647.777344 L 1235.917969 634.394531 "/>
<path fill="none" stroke-width="0.1" stroke-linecap="butt" stroke-linejoin="miter" stroke="rgb(100%, 100%, 100%)" stroke-opacity="1" stroke-miterlimit="10" d="M 1331.933594 602.941406 L 1257.21875 647.777344 L 1235.917969 634.394531 Z M 1331.933594 602.941406 "/>
<path fill-rule="nonzero" fill="rgb(50.052438%, 50.052438%, 50.052438%)" fill-opacity="1" d="M 1424.394531 572.652344 L 1402.761719 560.433594 L 1456.578125 12.882812 L 1481.324219 21.882812 "/>
<path fill="none" stroke-width="0.1" stroke-linecap="butt" stroke-linejoin="miter" stroke="rgb(100%, 100%, 100%)" stroke-opacity="1" stroke-miterlimit="10" d="M 1424.394531 572.652344 L 1402.761719 560.433594 L 1456.578125 12.882812 L 1481.324219 21.882812 Z M 1424.394531 572.652344 "/>
<path fill-rule="nonzero" fill="rgb(51.123479%, 51.123479%, 51.123479%)" fill-opacity="1" d="M 1263.5625 551.183594 L 1241.757812 560.433594 L 1276.003906 12.882812 L 1300.21875 6.082031 "/>
<path fill="none" stroke-width="0.1" stroke-linecap="butt" stroke-linejoin="miter" stroke="rgb(100%, 100%, 100%)" stroke-opacity="1" stroke-miterlimit="10" d="M 1263.5625 551.183594 L 1241.757812 560.433594 L 1276.003906 12.882812 L 1300.21875 6.082031 Z M 1263.5625 551.183594 "/>
<path fill-rule="nonzero" fill="rgb(52.742042%, 52.742042%, 52.742042%)" fill-opacity="1" d="M 1331.933594 602.941406 L 1404.929688 658.195312 L 1377.414062 664.8125 "/>
<path fill="none" stroke-width="0.1" stroke-linecap="butt" stroke-linejoin="miter" stroke="rgb(100%, 100%, 100%)" stroke-opacity="1" stroke-miterlimit="10" d="M 1331.933594 602.941406 L 1404.929688 658.195312 L 1377.414062 664.8125 Z M 1331.933594 602.941406 "/>
<path fill-rule="nonzero" fill="rgb(52.742042%, 52.742042%, 52.742042%)" fill-opacity="1" d="M 1331.933594 602.941406 L 1284.089844 658.195312 L 1257.21875 647.777344 "/>
<path fill="none" stroke-width="0.1" stroke-linecap="butt" stroke-linejoin="miter" stroke="rgb(100%, 100%, 100%)" stroke-opacity="1" stroke-miterlimit="10" d="M 1331.933594 602.941406 L 1284.089844 658.195312 L 1257.21875 647.777344 Z M 1331.933594 602.941406 "/>
<path fill-rule="nonzero" fill="rgb(52.742042%, 52.742042%, 52.742042%)" fill-opacity="1" d="M 1331.933594 602.941406 L 1377.414062 664.8125 L 1346.53125 667.078125 "/>
<path fill="none" stroke-width="0.1" stroke-linecap="butt" stroke-linejoin="miter" stroke="rgb(100%, 100%, 100%)" stroke-opacity="1" stroke-miterlimit="10" d="M 1331.933594 602.941406 L 1377.414062 664.8125 L 1346.53125 667.078125 Z M 1331.933594 602.941406 "/>
<path fill-rule="nonzero" fill="rgb(52.742042%, 52.742042%, 52.742042%)" fill-opacity="1" d="M 1331.933594 602.941406 L 1314.617188 664.8125 L 1284.089844 658.195312 "/>
<path fill="none" stroke-width="0.1" stroke-linecap="butt" stroke-linejoin="miter" stroke="rgb(100%, 100%, 100%)" stroke-opacity="1" stroke-miterlimit="10" d="M 1331.933594 602.941406 L 1314.617188 664.8125 L 1284.089844 658.195312 Z M 1331.933594 602.941406 "/>
<path fill-rule="nonzero" fill="rgb(52.742042%, 52.742042%, 52.742042%)" fill-opacity="1" d="M 1331.933594 602.941406 L 1346.53125 667.078125 L 1314.617188 664.8125 "/>
<path fill="none" stroke-width="0.1" stroke-linecap="butt" stroke-linejoin="miter" stroke="rgb(100%, 100%, 100%)" stroke-opacity="1" stroke-miterlimit="10" d="M 1331.933594 602.941406 L 1346.53125 667.078125 L 1314.617188 664.8125 Z M 1331.933594 602.941406 "/>
<path fill-rule="nonzero" fill="rgb(54.612186%, 54.612186%, 54.612186%)" fill-opacity="1" d="M 1440.144531 587.121094 L 1424.394531 572.652344 L 1481.324219 21.882812 L 1499.601562 32.558594 "/>
<path fill="none" stroke-width="0.1" stroke-linecap="butt" stroke-linejoin="miter" stroke="rgb(100%, 100%, 100%)" stroke-opacity="1" stroke-miterlimit="10" d="M 1440.144531 587.121094 L 1424.394531 572.652344 L 1481.324219 21.882812 L 1499.601562 32.558594 Z M 1440.144531 587.121094 "/>
<path fill-rule="nonzero" fill="rgb(55.769327%, 55.769327%, 55.769327%)" fill-opacity="1" d="M 1241.757812 560.433594 L 1225.691406 572.652344 L 1258.261719 21.882812 L 1276.003906 12.882812 "/>
<path fill="none" stroke-width="0.1" stroke-linecap="butt" stroke-linejoin="miter" stroke="rgb(100%, 100%, 100%)" stroke-opacity="1" stroke-miterlimit="10" d="M 1241.757812 560.433594 L 1225.691406 572.652344 L 1258.261719 21.882812 L 1276.003906 12.882812 Z M 1241.757812 560.433594 "/>
<path fill-rule="nonzero" fill="rgb(59.445382%, 59.445382%, 59.445382%)" fill-opacity="1" d="M 1448.820312 602.941406 L 1440.144531 587.121094 L 1499.601562 32.558594 L 1510.019531 44.261719 "/>
<path fill="none" stroke-width="0.1" stroke-linecap="butt" stroke-linejoin="miter" stroke="rgb(100%, 100%, 100%)" stroke-opacity="1" stroke-miterlimit="10" d="M 1448.820312 602.941406 L 1440.144531 587.121094 L 1499.601562 32.558594 L 1510.019531 44.261719 Z M 1448.820312 602.941406 "/>
<path fill-rule="nonzero" fill="rgb(60.642444%, 60.642444%, 60.642444%)" fill-opacity="1" d="M 1225.691406 572.652344 L 1216.523438 587.121094 L 1248.289062 32.558594 L 1258.261719 21.882812 "/>
<path fill="none" stroke-width="0.1" stroke-linecap="butt" stroke-linejoin="miter" stroke="rgb(100%, 100%, 100%)" stroke-opacity="1" stroke-miterlimit="10" d="M 1225.691406 572.652344 L 1216.523438 587.121094 L 1248.289062 32.558594 L 1258.261719 21.882812 Z M 1225.691406 572.652344 "/>
<path fill-rule="nonzero" fill="rgb(64.395619%, 64.395619%, 64.395619%)" fill-opacity="1" d="M 1449.625 619.070312 L 1448.820312 602.941406 L 1510.019531 44.261719 L 1511.605469 56.222656 "/>
<path fill="none" stroke-width="0.1" stroke-linecap="butt" stroke-linejoin="miter" stroke="rgb(100%, 100%, 100%)" stroke-opacity="1" stroke-miterlimit="10" d="M 1449.625 619.070312 L 1448.820312 602.941406 L 1510.019531 44.261719 L 1511.605469 56.222656 Z M 1449.625 619.070312 "/>
<path fill-rule="nonzero" fill="rgb(65.604381%, 65.604381%, 65.604381%)" fill-opacity="1" d="M 1216.523438 587.121094 L 1215.046875 602.941406 L 1246.976562 44.261719 L 1248.289062 32.558594 "/>
<path fill="none" stroke-width="0.1" stroke-linecap="butt" stroke-linejoin="miter" stroke="rgb(100%, 100%, 100%)" stroke-opacity="1" stroke-miterlimit="10" d="M 1216.523438 587.121094 L 1215.046875 602.941406 L 1246.976562 44.261719 L 1248.289062 32.558594 Z M 1216.523438 587.121094 "/>
<path fill-rule="nonzero" fill="rgb(69.357556%, 69.357556%, 69.357556%)" fill-opacity="1" d="M 1442.269531 634.394531 L 1449.625 619.070312 L 1511.605469 56.222656 L 1503.957031 67.609375 "/>
<path fill="none" stroke-width="0.1" stroke-linecap="butt" stroke-linejoin="miter" stroke="rgb(100%, 100%, 100%)" stroke-opacity="1" stroke-miterlimit="10" d="M 1442.269531 634.394531 L 1449.625 619.070312 L 1511.605469 56.222656 L 1503.957031 67.609375 Z M 1442.269531 634.394531 "/>
<path fill-rule="nonzero" fill="rgb(70.554618%, 70.554618%, 70.554618%)" fill-opacity="1" d="M 1215.046875 602.941406 L 1221.585938 619.070312 L 1254.699219 56.222656 L 1246.976562 44.261719 "/>
<path fill="none" stroke-width="0.1" stroke-linecap="butt" stroke-linejoin="miter" stroke="rgb(100%, 100%, 100%)" stroke-opacity="1" stroke-miterlimit="10" d="M 1215.046875 602.941406 L 1221.585938 619.070312 L 1254.699219 56.222656 L 1246.976562 44.261719 Z M 1215.046875 602.941406 "/>
<path fill-rule="nonzero" fill="rgb(74.230673%, 74.230673%, 74.230673%)" fill-opacity="1" d="M 1427.058594 647.777344 L 1442.269531 634.394531 L 1503.957031 67.609375 L 1487.34375 77.578125 "/>
<path fill="none" stroke-width="0.1" stroke-linecap="butt" stroke-linejoin="miter" stroke="rgb(100%, 100%, 100%)" stroke-opacity="1" stroke-miterlimit="10" d="M 1427.058594 647.777344 L 1442.269531 634.394531 L 1503.957031 67.609375 L 1487.34375 77.578125 Z M 1427.058594 647.777344 "/>
<path fill-rule="nonzero" fill="rgb(75.387814%, 75.387814%, 75.387814%)" fill-opacity="1" d="M 1221.585938 619.070312 L 1235.917969 634.394531 L 1271.207031 67.609375 L 1254.699219 56.222656 "/>
<path fill="none" stroke-width="0.1" stroke-linecap="butt" stroke-linejoin="miter" stroke="rgb(100%, 100%, 100%)" stroke-opacity="1" stroke-miterlimit="10" d="M 1221.585938 619.070312 L 1235.917969 634.394531 L 1271.207031 67.609375 L 1254.699219 56.222656 Z M 1221.585938 619.070312 "/>
<path fill-rule="nonzero" fill="rgb(77.257958%, 77.257958%, 77.257958%)" fill-opacity="1" d="M 1378.496094 44.261719 L 1394.695312 1.851562 L 1361.441406 0.417969 "/>
<path fill="none" stroke-width="0.1" stroke-linecap="butt" stroke-linejoin="miter" stroke="rgb(100%, 100%, 100%)" stroke-opacity="1" stroke-miterlimit="10" d="M 1378.496094 44.261719 L 1394.695312 1.851562 L 1361.441406 0.417969 Z M 1378.496094 44.261719 "/>
<path fill-rule="nonzero" fill="rgb(77.257958%, 77.257958%, 77.257958%)" fill-opacity="1" d="M 1378.496094 44.261719 L 1427.070312 6.082031 L 1394.695312 1.851562 "/>
<path fill="none" stroke-width="0.1" stroke-linecap="butt" stroke-linejoin="miter" stroke="rgb(100%, 100%, 100%)" stroke-opacity="1" stroke-miterlimit="10" d="M 1378.496094 44.261719 L 1427.070312 6.082031 L 1394.695312 1.851562 Z M 1378.496094 44.261719 "/>
<path fill-rule="nonzero" fill="rgb(77.257958%, 77.257958%, 77.257958%)" fill-opacity="1" d="M 1378.496094 44.261719 L 1361.441406 0.417969 L 1329.300781 1.851562 "/>
<path fill="none" stroke-width="0.1" stroke-linecap="butt" stroke-linejoin="miter" stroke="rgb(100%, 100%, 100%)" stroke-opacity="1" stroke-miterlimit="10" d="M 1378.496094 44.261719 L 1361.441406 0.417969 L 1329.300781 1.851562 Z M 1378.496094 44.261719 "/>
<path fill-rule="nonzero" fill="rgb(77.257958%, 77.257958%, 77.257958%)" fill-opacity="1" d="M 1378.496094 44.261719 L 1456.578125 12.882812 L 1427.070312 6.082031 "/>
<path fill="none" stroke-width="0.1" stroke-linecap="butt" stroke-linejoin="miter" stroke="rgb(100%, 100%, 100%)" stroke-opacity="1" stroke-miterlimit="10" d="M 1378.496094 44.261719 L 1456.578125 12.882812 L 1427.070312 6.082031 Z M 1378.496094 44.261719 "/>
<path fill-rule="nonzero" fill="rgb(77.257958%, 77.257958%, 77.257958%)" fill-opacity="1" d="M 1378.496094 44.261719 L 1329.300781 1.851562 L 1300.21875 6.082031 "/>
<path fill="none" stroke-width="0.1" stroke-linecap="butt" stroke-linejoin="miter" stroke="rgb(100%, 100%, 100%)" stroke-opacity="1" stroke-miterlimit="10" d="M 1378.496094 44.261719 L 1329.300781 1.851562 L 1300.21875 6.082031 Z M 1378.496094 44.261719 "/>
<path fill-rule="nonzero" fill="rgb(78.876521%, 78.876521%, 78.876521%)" fill-opacity="1" d="M 1404.929688 658.195312 L 1427.058594 647.777344 L 1487.34375 77.578125 L 1462.757812 85.355469 "/>
<path fill="none" stroke-width="0.1" stroke-linecap="butt" stroke-linejoin="miter" stroke="rgb(100%, 100%, 100%)" stroke-opacity="1" stroke-miterlimit="10" d="M 1404.929688 658.195312 L 1427.058594 647.777344 L 1487.34375 77.578125 L 1462.757812 85.355469 Z M 1404.929688 658.195312 "/>
<path fill-rule="nonzero" fill="rgb(77.257958%, 77.257958%, 77.257958%)" fill-opacity="1" d="M 1378.496094 44.261719 L 1481.324219 21.882812 L 1456.578125 12.882812 "/>
<path fill="none" stroke-width="0.1" stroke-linecap="butt" stroke-linejoin="miter" stroke="rgb(100%, 100%, 100%)" stroke-opacity="1" stroke-miterlimit="10" d="M 1378.496094 44.261719 L 1481.324219 21.882812 L 1456.578125 12.882812 Z M 1378.496094 44.261719 "/>
<path fill-rule="nonzero" fill="rgb(79.947562%, 79.947562%, 79.947562%)" fill-opacity="1" d="M 1235.917969 634.394531 L 1257.21875 647.777344 L 1295.582031 77.578125 L 1271.207031 67.609375 "/>
<path fill="none" stroke-width="0.1" stroke-linecap="butt" stroke-linejoin="miter" stroke="rgb(100%, 100%, 100%)" stroke-opacity="1" stroke-miterlimit="10" d="M 1235.917969 634.394531 L 1257.21875 647.777344 L 1295.582031 77.578125 L 1271.207031 67.609375 Z M 1235.917969 634.394531 "/>
<path fill-rule="nonzero" fill="rgb(77.257958%, 77.257958%, 77.257958%)" fill-opacity="1" d="M 1378.496094 44.261719 L 1300.21875 6.082031 L 1276.003906 12.882812 "/>
<path fill="none" stroke-width="0.1" stroke-linecap="butt" stroke-linejoin="miter" stroke="rgb(100%, 100%, 100%)" stroke-opacity="1" stroke-miterlimit="10" d="M 1378.496094 44.261719 L 1300.21875 6.082031 L 1276.003906 12.882812 Z M 1378.496094 44.261719 "/>
<path fill-rule="nonzero" fill="rgb(83.048974%, 83.048974%, 83.048974%)" fill-opacity="1" d="M 1377.414062 664.8125 L 1404.929688 658.195312 L 1462.757812 85.355469 L 1431.90625 90.296875 "/>
<path fill="none" stroke-width="0.1" stroke-linecap="butt" stroke-linejoin="miter" stroke="rgb(100%, 100%, 100%)" stroke-opacity="1" stroke-miterlimit="10" d="M 1377.414062 664.8125 L 1404.929688 658.195312 L 1462.757812 85.355469 L 1431.90625 90.296875 Z M 1377.414062 664.8125 "/>
<path fill-rule="nonzero" fill="rgb(77.257958%, 77.257958%, 77.257958%)" fill-opacity="1" d="M 1378.496094 44.261719 L 1499.601562 32.558594 L 1481.324219 21.882812 "/>
<path fill="none" stroke-width="0.1" stroke-linecap="butt" stroke-linejoin="miter" stroke="rgb(100%, 100%, 100%)" stroke-opacity="1" stroke-miterlimit="10" d="M 1378.496094 44.261719 L 1499.601562 32.558594 L 1481.324219 21.882812 Z M 1378.496094 44.261719 "/>
<path fill-rule="nonzero" fill="rgb(83.9446%, 83.9446%, 83.9446%)" fill-opacity="1" d="M 1257.21875 647.777344 L 1284.089844 658.195312 L 1326.214844 85.355469 L 1295.582031 77.578125 "/>
<path fill="none" stroke-width="0.1" stroke-linecap="butt" stroke-linejoin="miter" stroke="rgb(100%, 100%, 100%)" stroke-opacity="1" stroke-miterlimit="10" d="M 1257.21875 647.777344 L 1284.089844 658.195312 L 1326.214844 85.355469 L 1295.582031 77.578125 Z M 1257.21875 647.777344 "/>
<path fill-rule="nonzero" fill="rgb(77.257958%, 77.257958%, 77.257958%)" fill-opacity="1" d="M 1378.496094 44.261719 L 1276.003906 12.882812 L 1258.261719 21.882812 "/>
<path fill="none" stroke-width="0.1" stroke-linecap="butt" stroke-linejoin="miter" stroke="rgb(100%, 100%, 100%)" stroke-opacity="1" stroke-miterlimit="10" d="M 1378.496094 44.261719 L 1276.003906 12.882812 L 1258.261719 21.882812 Z M 1378.496094 44.261719 "/>
<path fill-rule="nonzero" fill="rgb(86.265781%, 86.265781%, 86.265781%)" fill-opacity="1" d="M 1346.53125 667.078125 L 1377.414062 664.8125 L 1431.90625 90.296875 L 1397.070312 91.992188 "/>
<path fill="none" stroke-width="0.1" stroke-linecap="butt" stroke-linejoin="miter" stroke="rgb(100%, 100%, 100%)" stroke-opacity="1" stroke-miterlimit="10" d="M 1346.53125 667.078125 L 1377.414062 664.8125 L 1431.90625 90.296875 L 1397.070312 91.992188 Z M 1346.53125 667.078125 "/>
<path fill-rule="nonzero" fill="rgb(86.816555%, 86.816555%, 86.816555%)" fill-opacity="1" d="M 1284.089844 658.195312 L 1314.617188 664.8125 L 1360.914062 90.296875 L 1326.214844 85.355469 "/>
<path fill="none" stroke-width="0.1" stroke-linecap="butt" stroke-linejoin="miter" stroke="rgb(100%, 100%, 100%)" stroke-opacity="1" stroke-miterlimit="10" d="M 1284.089844 658.195312 L 1314.617188 664.8125 L 1360.914062 90.296875 L 1326.214844 85.355469 Z M 1284.089844 658.195312 "/>
<path fill-rule="nonzero" fill="rgb(87.723662%, 87.723662%, 87.723662%)" fill-opacity="1" d="M 1314.617188 664.8125 L 1346.53125 667.078125 L 1397.070312 91.992188 L 1360.914062 90.296875 "/>
<path fill="none" stroke-width="0.1" stroke-linecap="butt" stroke-linejoin="miter" stroke="rgb(100%, 100%, 100%)" stroke-opacity="1" stroke-miterlimit="10" d="M 1314.617188 664.8125 L 1346.53125 667.078125 L 1397.070312 91.992188 L 1360.914062 90.296875 Z M 1314.617188 664.8125 "/>
<path fill-rule="nonzero" fill="rgb(77.257958%, 77.257958%, 77.257958%)" fill-opacity="1" d="M 1378.496094 44.261719 L 1510.019531 44.261719 L 1499.601562 32.558594 "/>
<path fill="none" stroke-width="0.1" stroke-linecap="butt" stroke-linejoin="miter" stroke="rgb(100%, 100%, 100%)" stroke-opacity="1" stroke-miterlimit="10" d="M 1378.496094 44.261719 L 1510.019531 44.261719 L 1499.601562 32.558594 Z M 1378.496094 44.261719 "/>
<path fill-rule="nonzero" fill="rgb(77.257958%, 77.257958%, 77.257958%)" fill-opacity="1" d="M 1378.496094 44.261719 L 1258.261719 21.882812 L 1248.289062 32.558594 "/>
<path fill="none" stroke-width="0.1" stroke-linecap="butt" stroke-linejoin="miter" stroke="rgb(100%, 100%, 100%)" stroke-opacity="1" stroke-miterlimit="10" d="M 1378.496094 44.261719 L 1258.261719 21.882812 L 1248.289062 32.558594 Z M 1378.496094 44.261719 "/>
<path fill-rule="nonzero" fill="rgb(77.257958%, 77.257958%, 77.257958%)" fill-opacity="1" d="M 1378.496094 44.261719 L 1511.605469 56.222656 L 1510.019531 44.261719 "/>
<path fill="none" stroke-width="0.1" stroke-linecap="butt" stroke-linejoin="miter" stroke="rgb(100%, 100%, 100%)" stroke-opacity="1" stroke-miterlimit="10" d="M 1378.496094 44.261719 L 1511.605469 56.222656 L 1510.019531 44.261719 Z M 1378.496094 44.261719 "/>
<path fill-rule="nonzero" fill="rgb(77.257958%, 77.257958%, 77.257958%)" fill-opacity="1" d="M 1378.496094 44.261719 L 1248.289062 32.558594 L 1246.976562 44.261719 "/>
<path fill="none" stroke-width="0.1" stroke-linecap="butt" stroke-linejoin="miter" stroke="rgb(100%, 100%, 100%)" stroke-opacity="1" stroke-miterlimit="10" d="M 1378.496094 44.261719 L 1248.289062 32.558594 L 1246.976562 44.261719 Z M 1378.496094 44.261719 "/>
<path fill-rule="nonzero" fill="rgb(77.257958%, 77.257958%, 77.257958%)" fill-opacity="1" d="M 1378.496094 44.261719 L 1503.957031 67.609375 L 1511.605469 56.222656 "/>
<path fill="none" stroke-width="0.1" stroke-linecap="butt" stroke-linejoin="miter" stroke="rgb(100%, 100%, 100%)" stroke-opacity="1" stroke-miterlimit="10" d="M 1378.496094 44.261719 L 1503.957031 67.609375 L 1511.605469 56.222656 Z M 1378.496094 44.261719 "/>
<path fill-rule="nonzero" fill="rgb(77.257958%, 77.257958%, 77.257958%)" fill-opacity="1" d="M 1378.496094 44.261719 L 1246.976562 44.261719 L 1254.699219 56.222656 "/>
<path fill="none" stroke-width="0.1" stroke-linecap="butt" stroke-linejoin="miter" stroke="rgb(100%, 100%, 100%)" stroke-opacity="1" stroke-miterlimit="10" d="M 1378.496094 44.261719 L 1246.976562 44.261719 L 1254.699219 56.222656 Z M 1378.496094 44.261719 "/>
<path fill-rule="nonzero" fill="rgb(77.257958%, 77.257958%, 77.257958%)" fill-opacity="1" d="M 1378.496094 44.261719 L 1487.34375 77.578125 L 1503.957031 67.609375 "/>
<path fill="none" stroke-width="0.1" stroke-linecap="butt" stroke-linejoin="miter" stroke="rgb(100%, 100%, 100%)" stroke-opacity="1" stroke-miterlimit="10" d="M 1378.496094 44.261719 L 1487.34375 77.578125 L 1503.957031 67.609375 Z M 1378.496094 44.261719 "/>
<path fill-rule="nonzero" fill="rgb(77.257958%, 77.257958%, 77.257958%)" fill-opacity="1" d="M 1378.496094 44.261719 L 1254.699219 56.222656 L 1271.207031 67.609375 "/>
<path fill="none" stroke-width="0.1" stroke-linecap="butt" stroke-linejoin="miter" stroke="rgb(100%, 100%, 100%)" stroke-opacity="1" stroke-miterlimit="10" d="M 1378.496094 44.261719 L 1254.699219 56.222656 L 1271.207031 67.609375 Z M 1378.496094 44.261719 "/>
<path fill-rule="nonzero" fill="rgb(77.257958%, 77.257958%, 77.257958%)" fill-opacity="1" d="M 1378.496094 44.261719 L 1462.757812 85.355469 L 1487.34375 77.578125 "/>
<path fill="none" stroke-width="0.1" stroke-linecap="butt" stroke-linejoin="miter" stroke="rgb(100%, 100%, 100%)" stroke-opacity="1" stroke-miterlimit="10" d="M 1378.496094 44.261719 L 1462.757812 85.355469 L 1487.34375 77.578125 Z M 1378.496094 44.261719 "/>
<path fill-rule="nonzero" fill="rgb(77.257958%, 77.257958%, 77.257958%)" fill-opacity="1" d="M 1378.496094 44.261719 L 1271.207031 67.609375 L 1295.582031 77.578125 "/>
<path fill="none" stroke-width="0.1" stroke-linecap="butt" stroke-linejoin="miter" stroke="rgb(100%, 100%, 100%)" stroke-opacity="1" stroke-miterlimit="10" d="M 1378.496094 44.261719 L 1271.207031 67.609375 L 1295.582031 77.578125 Z M 1378.496094 44.261719 "/>
<path fill-rule="nonzero" fill="rgb(77.257958%, 77.257958%, 77.257958%)" fill-opacity="1" d="M 1378.496094 44.261719 L 1431.90625 90.296875 L 1462.757812 85.355469 "/>
<path fill="none" stroke-width="0.1" stroke-linecap="butt" stroke-linejoin="miter" stroke="rgb(100%, 100%, 100%)" stroke-opacity="1" stroke-miterlimit="10" d="M 1378.496094 44.261719 L 1431.90625 90.296875 L 1462.757812 85.355469 Z M 1378.496094 44.261719 "/>
<path fill-rule="nonzero" fill="rgb(77.257958%, 77.257958%, 77.257958%)" fill-opacity="1" d="M 1378.496094 44.261719 L 1295.582031 77.578125 L 1326.214844 85.355469 "/>
<path fill="none" stroke-width="0.1" stroke-linecap="butt" stroke-linejoin="miter" stroke="rgb(100%, 100%, 100%)" stroke-opacity="1" stroke-miterlimit="10" d="M 1378.496094 44.261719 L 1295.582031 77.578125 L 1326.214844 85.355469 Z M 1378.496094 44.261719 "/>
<path fill-rule="nonzero" fill="rgb(77.257958%, 77.257958%, 77.257958%)" fill-opacity="1" d="M 1378.496094 44.261719 L 1397.070312 91.992188 L 1431.90625 90.296875 "/>
<path fill="none" stroke-width="0.1" stroke-linecap="butt" stroke-linejoin="miter" stroke="rgb(100%, 100%, 100%)" stroke-opacity="1" stroke-miterlimit="10" d="M 1378.496094 44.261719 L 1397.070312 91.992188 L 1431.90625 90.296875 Z M 1378.496094 44.261719 "/>
<path fill-rule="nonzero" fill="rgb(77.257958%, 77.257958%, 77.257958%)" fill-opacity="1" d="M 1378.496094 44.261719 L 1326.214844 85.355469 L 1360.914062 90.296875 "/>
<path fill="none" stroke-width="0.1" stroke-linecap="butt" stroke-linejoin="miter" stroke="rgb(100%, 100%, 100%)" stroke-opacity="1" stroke-miterlimit="10" d="M 1378.496094 44.261719 L 1326.214844 85.355469 L 1360.914062 90.296875 Z M 1378.496094 44.261719 "/>
<path fill-rule="nonzero" fill="rgb(77.257958%, 77.257958%, 77.257958%)" fill-opacity="1" d="M 1378.496094 44.261719 L 1360.914062 90.296875 L 1397.070312 91.992188 "/>
<path fill="none" stroke-width="0.1" stroke-linecap="butt" stroke-linejoin="miter" stroke="rgb(100%, 100%, 100%)" stroke-opacity="1" stroke-miterlimit="10" d="M 1378.496094 44.261719 L 1360.914062 90.296875 L 1397.070312 91.992188 Z M 1378.496094 44.261719 "/>
<path fill-rule="nonzero" fill="rgb(52.742042%, 52.742042%, 52.742042%)" fill-opacity="1" d="M 1006.269531 798.378906 L 1005.308594 760.5 L 1021.9375 761.765625 "/>
<path fill="none" stroke-width="0.1" stroke-linecap="butt" stroke-linejoin="miter" stroke="rgb(100%, 100%, 100%)" stroke-opacity="1" stroke-miterlimit="10" d="M 1006.269531 798.378906 L 1005.308594 760.5 L 1021.9375 761.765625 Z M 1006.269531 798.378906 "/>
<path fill-rule="nonzero" fill="rgb(52.742042%, 52.742042%, 52.742042%)" fill-opacity="1" d="M 1006.269531 798.378906 L 988.746094 761.765625 L 1005.308594 760.5 "/>
<path fill="none" stroke-width="0.1" stroke-linecap="butt" stroke-linejoin="miter" stroke="rgb(100%, 100%, 100%)" stroke-opacity="1" stroke-miterlimit="10" d="M 1006.269531 798.378906 L 988.746094 761.765625 L 1005.308594 760.5 Z M 1006.269531 798.378906 "/>
<path fill-rule="nonzero" fill="rgb(52.742042%, 52.742042%, 52.742042%)" fill-opacity="1" d="M 1006.269531 798.378906 L 1021.9375 761.765625 L 1037.5625 765.484375 "/>
<path fill="none" stroke-width="0.1" stroke-linecap="butt" stroke-linejoin="miter" stroke="rgb(100%, 100%, 100%)" stroke-opacity="1" stroke-miterlimit="10" d="M 1006.269531 798.378906 L 1021.9375 761.765625 L 1037.5625 765.484375 Z M 1006.269531 798.378906 "/>
<path fill-rule="nonzero" fill="rgb(52.742042%, 52.742042%, 52.742042%)" fill-opacity="1" d="M 1006.269531 798.378906 L 973.308594 765.484375 L 988.746094 761.765625 "/>
<path fill="none" stroke-width="0.1" stroke-linecap="butt" stroke-linejoin="miter" stroke="rgb(100%, 100%, 100%)" stroke-opacity="1" stroke-miterlimit="10" d="M 1006.269531 798.378906 L 973.308594 765.484375 L 988.746094 761.765625 Z M 1006.269531 798.378906 "/>
<path fill-rule="nonzero" fill="rgb(52.742042%, 52.742042%, 52.742042%)" fill-opacity="1" d="M 1006.269531 798.378906 L 1037.5625 765.484375 L 1051.171875 771.429688 "/>
<path fill="none" stroke-width="0.1" stroke-linecap="butt" stroke-linejoin="miter" stroke="rgb(100%, 100%, 100%)" stroke-opacity="1" stroke-miterlimit="10" d="M 1006.269531 798.378906 L 1037.5625 765.484375 L 1051.171875 771.429688 Z M 1006.269531 798.378906 "/>
<path fill-rule="nonzero" fill="rgb(52.742042%, 52.742042%, 52.742042%)" fill-opacity="1" d="M 1006.269531 798.378906 L 960 771.429688 L 973.308594 765.484375 "/>
<path fill="none" stroke-width="0.1" stroke-linecap="butt" stroke-linejoin="miter" stroke="rgb(100%, 100%, 100%)" stroke-opacity="1" stroke-miterlimit="10" d="M 1006.269531 798.378906 L 960 771.429688 L 973.308594 765.484375 Z M 1006.269531 798.378906 "/>
<path fill-rule="nonzero" fill="rgb(52.742042%, 52.742042%, 52.742042%)" fill-opacity="1" d="M 1006.269531 798.378906 L 1051.171875 771.429688 L 1061.859375 779.242188 "/>
<path fill="none" stroke-width="0.1" stroke-linecap="butt" stroke-linejoin="miter" stroke="rgb(100%, 100%, 100%)" stroke-opacity="1" stroke-miterlimit="10" d="M 1006.269531 798.378906 L 1051.171875 771.429688 L 1061.859375 779.242188 Z M 1006.269531 798.378906 "/>
<path fill-rule="nonzero" fill="rgb(52.742042%, 52.742042%, 52.742042%)" fill-opacity="1" d="M 1006.269531 798.378906 L 949.710938 779.242188 L 960 771.429688 "/>
<path fill="none" stroke-width="0.1" stroke-linecap="butt" stroke-linejoin="miter" stroke="rgb(100%, 100%, 100%)" stroke-opacity="1" stroke-miterlimit="10" d="M 1006.269531 798.378906 L 949.710938 779.242188 L 960 771.429688 Z M 1006.269531 798.378906 "/>
<path fill-rule="nonzero" fill="rgb(52.742042%, 52.742042%, 52.742042%)" fill-opacity="1" d="M 1006.269531 798.378906 L 1061.859375 779.242188 L 1068.875 788.421875 "/>
<path fill="none" stroke-width="0.1" stroke-linecap="butt" stroke-linejoin="miter" stroke="rgb(100%, 100%, 100%)" stroke-opacity="1" stroke-miterlimit="10" d="M 1006.269531 798.378906 L 1061.859375 779.242188 L 1068.875 788.421875 Z M 1006.269531 798.378906 "/>
<path fill-rule="nonzero" fill="rgb(52.742042%, 52.742042%, 52.742042%)" fill-opacity="1" d="M 1006.269531 798.378906 L 943.15625 788.421875 L 949.710938 779.242188 "/>
<path fill="none" stroke-width="0.1" stroke-linecap="butt" stroke-linejoin="miter" stroke="rgb(100%, 100%, 100%)" stroke-opacity="1" stroke-miterlimit="10" d="M 1006.269531 798.378906 L 943.15625 788.421875 L 949.710938 779.242188 Z M 1006.269531 798.378906 "/>
<path fill-rule="nonzero" fill="rgb(52.742042%, 52.742042%, 52.742042%)" fill-opacity="1" d="M 1006.269531 798.378906 L 1068.875 788.421875 L 1071.699219 798.378906 "/>
<path fill="none" stroke-width="0.1" stroke-linecap="butt" stroke-linejoin="miter" stroke="rgb(100%, 100%, 100%)" stroke-opacity="1" stroke-miterlimit="10" d="M 1006.269531 798.378906 L 1068.875 788.421875 L 1071.699219 798.378906 Z M 1006.269531 798.378906 "/>
<path fill-rule="nonzero" fill="rgb(52.742042%, 52.742042%, 52.742042%)" fill-opacity="1" d="M 1006.269531 798.378906 L 940.835938 798.378906 L 943.15625 788.421875 "/>
<path fill="none" stroke-width="0.1" stroke-linecap="butt" stroke-linejoin="miter" stroke="rgb(100%, 100%, 100%)" stroke-opacity="1" stroke-miterlimit="10" d="M 1006.269531 798.378906 L 940.835938 798.378906 L 943.15625 788.421875 Z M 1006.269531 798.378906 "/>
<path fill-rule="nonzero" fill="rgb(52.742042%, 52.742042%, 52.742042%)" fill-opacity="1" d="M 1006.269531 798.378906 L 1071.699219 798.378906 L 1070.074219 808.445312 "/>
<path fill="none" stroke-width="0.1" stroke-linecap="butt" stroke-linejoin="miter" stroke="rgb(100%, 100%, 100%)" stroke-opacity="1" stroke-miterlimit="10" d="M 1006.269531 798.378906 L 1071.699219 798.378906 L 1070.074219 808.445312 Z M 1006.269531 798.378906 "/>
<path fill-rule="nonzero" fill="rgb(52.742042%, 52.742042%, 52.742042%)" fill-opacity="1" d="M 1006.269531 798.378906 L 942.972656 808.445312 L 940.835938 798.378906 "/>
<path fill="none" stroke-width="0.1" stroke-linecap="butt" stroke-linejoin="miter" stroke="rgb(100%, 100%, 100%)" stroke-opacity="1" stroke-miterlimit="10" d="M 1006.269531 798.378906 L 942.972656 808.445312 L 940.835938 798.378906 Z M 1006.269531 798.378906 "/>
<path fill-rule="nonzero" fill="rgb(52.742042%, 52.742042%, 52.742042%)" fill-opacity="1" d="M 1006.269531 798.378906 L 1070.074219 808.445312 L 1064.035156 817.925781 "/>
<path fill="none" stroke-width="0.1" stroke-linecap="butt" stroke-linejoin="miter" stroke="rgb(100%, 100%, 100%)" stroke-opacity="1" stroke-miterlimit="10" d="M 1006.269531 798.378906 L 1070.074219 808.445312 L 1064.035156 817.925781 Z M 1006.269531 798.378906 "/>
<path fill-rule="nonzero" fill="rgb(52.742042%, 52.742042%, 52.742042%)" fill-opacity="1" d="M 1006.269531 798.378906 L 949.492188 817.925781 L 942.972656 808.445312 "/>
<path fill="none" stroke-width="0.1" stroke-linecap="butt" stroke-linejoin="miter" stroke="rgb(100%, 100%, 100%)" stroke-opacity="1" stroke-miterlimit="10" d="M 1006.269531 798.378906 L 949.492188 817.925781 L 942.972656 808.445312 Z M 1006.269531 798.378906 "/>
<path fill-rule="nonzero" fill="rgb(52.742042%, 52.742042%, 52.742042%)" fill-opacity="1" d="M 1006.269531 798.378906 L 1064.035156 817.925781 L 1053.941406 826.144531 "/>
<path fill="none" stroke-width="0.1" stroke-linecap="butt" stroke-linejoin="miter" stroke="rgb(100%, 100%, 100%)" stroke-opacity="1" stroke-miterlimit="10" d="M 1006.269531 798.378906 L 1064.035156 817.925781 L 1053.941406 826.144531 Z M 1006.269531 798.378906 "/>
<path fill-rule="nonzero" fill="rgb(52.742042%, 52.742042%, 52.742042%)" fill-opacity="1" d="M 1006.269531 798.378906 L 960 826.144531 L 949.492188 817.925781 "/>
<path fill="none" stroke-width="0.1" stroke-linecap="butt" stroke-linejoin="miter" stroke="rgb(100%, 100%, 100%)" stroke-opacity="1" stroke-miterlimit="10" d="M 1006.269531 798.378906 L 960 826.144531 L 949.492188 817.925781 Z M 1006.269531 798.378906 "/>
<path fill-rule="nonzero" fill="rgb(52.742042%, 52.742042%, 52.742042%)" fill-opacity="1" d="M 1006.269531 798.378906 L 1053.941406 826.144531 L 1040.457031 832.503906 "/>
<path fill="none" stroke-width="0.1" stroke-linecap="butt" stroke-linejoin="miter" stroke="rgb(100%, 100%, 100%)" stroke-opacity="1" stroke-miterlimit="10" d="M 1006.269531 798.378906 L 1053.941406 826.144531 L 1040.457031 832.503906 Z M 1006.269531 798.378906 "/>
<path fill-rule="nonzero" fill="rgb(52.742042%, 52.742042%, 52.742042%)" fill-opacity="1" d="M 1006.269531 798.378906 L 973.804688 832.503906 L 960 826.144531 "/>
<path fill="none" stroke-width="0.1" stroke-linecap="butt" stroke-linejoin="miter" stroke="rgb(100%, 100%, 100%)" stroke-opacity="1" stroke-miterlimit="10" d="M 1006.269531 798.378906 L 973.804688 832.503906 L 960 826.144531 Z M 1006.269531 798.378906 "/>
<path fill-rule="nonzero" fill="rgb(52.742042%, 52.742042%, 52.742042%)" fill-opacity="1" d="M 1006.269531 798.378906 L 1040.457031 832.503906 L 1024.519531 836.519531 "/>
<path fill="none" stroke-width="0.1" stroke-linecap="butt" stroke-linejoin="miter" stroke="rgb(100%, 100%, 100%)" stroke-opacity="1" stroke-miterlimit="10" d="M 1006.269531 798.378906 L 1040.457031 832.503906 L 1024.519531 836.519531 Z M 1006.269531 798.378906 "/>
<path fill-rule="nonzero" fill="rgb(52.742042%, 52.742042%, 52.742042%)" fill-opacity="1" d="M 1006.269531 798.378906 L 989.945312 836.519531 L 973.804688 832.503906 "/>
<path fill="none" stroke-width="0.1" stroke-linecap="butt" stroke-linejoin="miter" stroke="rgb(100%, 100%, 100%)" stroke-opacity="1" stroke-miterlimit="10" d="M 1006.269531 798.378906 L 989.945312 836.519531 L 973.804688 832.503906 Z M 1006.269531 798.378906 "/>
<path fill-rule="nonzero" fill="rgb(52.742042%, 52.742042%, 52.742042%)" fill-opacity="1" d="M 1006.269531 798.378906 L 1024.519531 836.519531 L 1007.265625 837.894531 "/>
<path fill="none" stroke-width="0.1" stroke-linecap="butt" stroke-linejoin="miter" stroke="rgb(100%, 100%, 100%)" stroke-opacity="1" stroke-miterlimit="10" d="M 1006.269531 798.378906 L 1024.519531 836.519531 L 1007.265625 837.894531 Z M 1006.269531 798.378906 "/>
<path fill-rule="nonzero" fill="rgb(52.742042%, 52.742042%, 52.742042%)" fill-opacity="1" d="M 1006.269531 798.378906 L 1007.265625 837.894531 L 989.945312 836.519531 "/>
<path fill="none" stroke-width="0.1" stroke-linecap="butt" stroke-linejoin="miter" stroke="rgb(100%, 100%, 100%)" stroke-opacity="1" stroke-miterlimit="10" d="M 1006.269531 798.378906 L 1007.265625 837.894531 L 989.945312 836.519531 Z M 1006.269531 798.378906 "/>
<path fill-rule="nonzero" fill="rgb(42.276338%, 42.276338%, 42.276338%)" fill-opacity="1" d="M 1021.9375 761.765625 L 1005.308594 760.5 L 1008.886719 420.515625 L 1026.832031 421.621094 "/>
<path fill="none" stroke-width="0.1" stroke-linecap="butt" stroke-linejoin="miter" stroke="rgb(100%, 100%, 100%)" stroke-opacity="1" stroke-miterlimit="10" d="M 1021.9375 761.765625 L 1005.308594 760.5 L 1008.886719 420.515625 L 1026.832031 421.621094 Z M 1021.9375 761.765625 "/>
<path fill-rule="nonzero" fill="rgb(43.734219%, 43.734219%, 43.734219%)" fill-opacity="1" d="M 1005.308594 760.5 L 988.746094 761.765625 L 991.019531 421.621094 L 1008.886719 420.515625 "/>
<path fill="none" stroke-width="0.1" stroke-linecap="butt" stroke-linejoin="miter" stroke="rgb(100%, 100%, 100%)" stroke-opacity="1" stroke-miterlimit="10" d="M 1005.308594 760.5 L 988.746094 761.765625 L 991.019531 421.621094 L 1008.886719 420.515625 Z M 1005.308594 760.5 "/>
<path fill-rule="nonzero" fill="rgb(43.183445%, 43.183445%, 43.183445%)" fill-opacity="1" d="M 1037.5625 765.484375 L 1021.9375 761.765625 L 1026.832031 421.621094 L 1043.707031 424.871094 "/>
<path fill="none" stroke-width="0.1" stroke-linecap="butt" stroke-linejoin="miter" stroke="rgb(100%, 100%, 100%)" stroke-opacity="1" stroke-miterlimit="10" d="M 1037.5625 765.484375 L 1021.9375 761.765625 L 1026.832031 421.621094 L 1043.707031 424.871094 Z M 1037.5625 765.484375 "/>
<path fill-rule="nonzero" fill="rgb(46.951026%, 46.951026%, 46.951026%)" fill-opacity="1" d="M 988.746094 761.765625 L 973.308594 765.484375 L 974.363281 424.871094 L 991.019531 421.621094 "/>
<path fill="none" stroke-width="0.1" stroke-linecap="butt" stroke-linejoin="miter" stroke="rgb(100%, 100%, 100%)" stroke-opacity="1" stroke-miterlimit="10" d="M 988.746094 761.765625 L 973.308594 765.484375 L 974.363281 424.871094 L 991.019531 421.621094 Z M 988.746094 761.765625 "/>
<path fill-rule="nonzero" fill="rgb(46.0554%, 46.0554%, 46.0554%)" fill-opacity="1" d="M 1051.171875 771.429688 L 1037.5625 765.484375 L 1043.707031 424.871094 L 1058.421875 430.074219 "/>
<path fill="none" stroke-width="0.1" stroke-linecap="butt" stroke-linejoin="miter" stroke="rgb(100%, 100%, 100%)" stroke-opacity="1" stroke-miterlimit="10" d="M 1051.171875 771.429688 L 1037.5625 765.484375 L 1043.707031 424.871094 L 1058.421875 430.074219 Z M 1051.171875 771.429688 "/>
<path fill-rule="nonzero" fill="rgb(51.123479%, 51.123479%, 51.123479%)" fill-opacity="1" d="M 973.308594 765.484375 L 960 771.429688 L 960 430.074219 L 974.363281 424.871094 "/>
<path fill="none" stroke-width="0.1" stroke-linecap="butt" stroke-linejoin="miter" stroke="rgb(100%, 100%, 100%)" stroke-opacity="1" stroke-miterlimit="10" d="M 973.308594 765.484375 L 960 771.429688 L 960 430.074219 L 974.363281 424.871094 Z M 973.308594 765.484375 "/>
<path fill-rule="nonzero" fill="rgb(50.052438%, 50.052438%, 50.052438%)" fill-opacity="1" d="M 1061.859375 779.242188 L 1051.171875 771.429688 L 1058.421875 430.074219 L 1069.992188 436.914062 "/>
<path fill="none" stroke-width="0.1" stroke-linecap="butt" stroke-linejoin="miter" stroke="rgb(100%, 100%, 100%)" stroke-opacity="1" stroke-miterlimit="10" d="M 1061.859375 779.242188 L 1051.171875 771.429688 L 1058.421875 430.074219 L 1069.992188 436.914062 Z M 1061.859375 779.242188 "/>
<path fill-rule="nonzero" fill="rgb(55.769327%, 55.769327%, 55.769327%)" fill-opacity="1" d="M 960 771.429688 L 949.710938 779.242188 L 948.886719 436.914062 L 960 430.074219 "/>
<path fill="none" stroke-width="0.1" stroke-linecap="butt" stroke-linejoin="miter" stroke="rgb(100%, 100%, 100%)" stroke-opacity="1" stroke-miterlimit="10" d="M 960 771.429688 L 949.710938 779.242188 L 948.886719 436.914062 L 960 430.074219 Z M 960 771.429688 "/>
<path fill-rule="nonzero" fill="rgb(54.612186%, 54.612186%, 54.612186%)" fill-opacity="1" d="M 1068.875 788.421875 L 1061.859375 779.242188 L 1069.992188 436.914062 L 1077.617188 444.957031 "/>
<path fill="none" stroke-width="0.1" stroke-linecap="butt" stroke-linejoin="miter" stroke="rgb(100%, 100%, 100%)" stroke-opacity="1" stroke-miterlimit="10" d="M 1068.875 788.421875 L 1061.859375 779.242188 L 1069.992188 436.914062 L 1077.617188 444.957031 Z M 1068.875 788.421875 "/>
<path fill-rule="nonzero" fill="rgb(60.642444%, 60.642444%, 60.642444%)" fill-opacity="1" d="M 949.710938 779.242188 L 943.15625 788.421875 L 941.804688 444.957031 L 948.886719 436.914062 "/>
<path fill="none" stroke-width="0.1" stroke-linecap="butt" stroke-linejoin="miter" stroke="rgb(100%, 100%, 100%)" stroke-opacity="1" stroke-miterlimit="10" d="M 949.710938 779.242188 L 943.15625 788.421875 L 941.804688 444.957031 L 948.886719 436.914062 Z M 949.710938 779.242188 "/>
<path fill-rule="nonzero" fill="rgb(59.445382%, 59.445382%, 59.445382%)" fill-opacity="1" d="M 1071.699219 798.378906 L 1068.875 788.421875 L 1077.617188 444.957031 L 1080.722656 453.6875 "/>
<path fill="none" stroke-width="0.1" stroke-linecap="butt" stroke-linejoin="miter" stroke="rgb(100%, 100%, 100%)" stroke-opacity="1" stroke-miterlimit="10" d="M 1071.699219 798.378906 L 1068.875 788.421875 L 1077.617188 444.957031 L 1080.722656 453.6875 Z M 1071.699219 798.378906 "/>
<path fill-rule="nonzero" fill="rgb(65.604381%, 65.604381%, 65.604381%)" fill-opacity="1" d="M 943.15625 788.421875 L 940.835938 798.378906 L 939.285156 453.6875 L 941.804688 444.957031 "/>
<path fill="none" stroke-width="0.1" stroke-linecap="butt" stroke-linejoin="miter" stroke="rgb(100%, 100%, 100%)" stroke-opacity="1" stroke-miterlimit="10" d="M 943.15625 788.421875 L 940.835938 798.378906 L 939.285156 453.6875 L 941.804688 444.957031 Z M 943.15625 788.421875 "/>
<path fill-rule="nonzero" fill="rgb(64.395619%, 64.395619%, 64.395619%)" fill-opacity="1" d="M 1070.074219 808.445312 L 1071.699219 798.378906 L 1080.722656 453.6875 L 1079.019531 462.519531 "/>
<path fill="none" stroke-width="0.1" stroke-linecap="butt" stroke-linejoin="miter" stroke="rgb(100%, 100%, 100%)" stroke-opacity="1" stroke-miterlimit="10" d="M 1070.074219 808.445312 L 1071.699219 798.378906 L 1080.722656 453.6875 L 1079.019531 462.519531 Z M 1070.074219 808.445312 "/>
<path fill-rule="nonzero" fill="rgb(70.554618%, 70.554618%, 70.554618%)" fill-opacity="1" d="M 940.835938 798.378906 L 942.972656 808.445312 L 941.585938 462.519531 L 939.285156 453.6875 "/>
<path fill="none" stroke-width="0.1" stroke-linecap="butt" stroke-linejoin="miter" stroke="rgb(100%, 100%, 100%)" stroke-opacity="1" stroke-miterlimit="10" d="M 940.835938 798.378906 L 942.972656 808.445312 L 941.585938 462.519531 L 939.285156 453.6875 Z M 940.835938 798.378906 "/>
<path fill-rule="nonzero" fill="rgb(69.357556%, 69.357556%, 69.357556%)" fill-opacity="1" d="M 1064.035156 817.925781 L 1070.074219 808.445312 L 1079.019531 462.519531 L 1072.535156 470.847656 "/>
<path fill="none" stroke-width="0.1" stroke-linecap="butt" stroke-linejoin="miter" stroke="rgb(100%, 100%, 100%)" stroke-opacity="1" stroke-miterlimit="10" d="M 1064.035156 817.925781 L 1070.074219 808.445312 L 1079.019531 462.519531 L 1072.535156 470.847656 Z M 1064.035156 817.925781 "/>
<path fill-rule="nonzero" fill="rgb(75.387814%, 75.387814%, 75.387814%)" fill-opacity="1" d="M 942.972656 808.445312 L 949.492188 817.925781 L 948.632812 470.847656 L 941.585938 462.519531 "/>
<path fill="none" stroke-width="0.1" stroke-linecap="butt" stroke-linejoin="miter" stroke="rgb(100%, 100%, 100%)" stroke-opacity="1" stroke-miterlimit="10" d="M 942.972656 808.445312 L 949.492188 817.925781 L 948.632812 470.847656 L 941.585938 462.519531 Z M 942.972656 808.445312 "/>
<path fill-rule="nonzero" fill="rgb(74.230673%, 74.230673%, 74.230673%)" fill-opacity="1" d="M 1053.941406 826.144531 L 1064.035156 817.925781 L 1072.535156 470.847656 L 1061.652344 478.070312 "/>
<path fill="none" stroke-width="0.1" stroke-linecap="butt" stroke-linejoin="miter" stroke="rgb(100%, 100%, 100%)" stroke-opacity="1" stroke-miterlimit="10" d="M 1053.941406 826.144531 L 1064.035156 817.925781 L 1072.535156 470.847656 L 1061.652344 478.070312 Z M 1053.941406 826.144531 "/>
<path fill-rule="nonzero" fill="rgb(79.947562%, 79.947562%, 79.947562%)" fill-opacity="1" d="M 949.492188 817.925781 L 960 826.144531 L 960 478.070312 L 948.632812 470.847656 "/>
<path fill="none" stroke-width="0.1" stroke-linecap="butt" stroke-linejoin="miter" stroke="rgb(100%, 100%, 100%)" stroke-opacity="1" stroke-miterlimit="10" d="M 949.492188 817.925781 L 960 826.144531 L 960 478.070312 L 948.632812 470.847656 Z M 949.492188 817.925781 "/>
<path fill-rule="nonzero" fill="rgb(78.876521%, 78.876521%, 78.876521%)" fill-opacity="1" d="M 1040.457031 832.503906 L 1053.941406 826.144531 L 1061.652344 478.070312 L 1047.089844 483.664062 "/>
<path fill="none" stroke-width="0.1" stroke-linecap="butt" stroke-linejoin="miter" stroke="rgb(100%, 100%, 100%)" stroke-opacity="1" stroke-miterlimit="10" d="M 1040.457031 832.503906 L 1053.941406 826.144531 L 1061.652344 478.070312 L 1047.089844 483.664062 Z M 1040.457031 832.503906 "/>
<path fill-rule="nonzero" fill="rgb(83.9446%, 83.9446%, 83.9446%)" fill-opacity="1" d="M 960 826.144531 L 973.804688 832.503906 L 974.941406 483.664062 L 960 478.070312 "/>
<path fill="none" stroke-width="0.1" stroke-linecap="butt" stroke-linejoin="miter" stroke="rgb(100%, 100%, 100%)" stroke-opacity="1" stroke-miterlimit="10" d="M 960 826.144531 L 973.804688 832.503906 L 974.941406 483.664062 L 960 478.070312 Z M 960 826.144531 "/>
<path fill-rule="nonzero" fill="rgb(83.048974%, 83.048974%, 83.048974%)" fill-opacity="1" d="M 1024.519531 836.519531 L 1040.457031 832.503906 L 1047.089844 483.664062 L 1029.851562 487.199219 "/>
<path fill="none" stroke-width="0.1" stroke-linecap="butt" stroke-linejoin="miter" stroke="rgb(100%, 100%, 100%)" stroke-opacity="1" stroke-miterlimit="10" d="M 1024.519531 836.519531 L 1040.457031 832.503906 L 1047.089844 483.664062 L 1029.851562 487.199219 Z M 1024.519531 836.519531 "/>
<path fill-rule="nonzero" fill="rgb(86.816555%, 86.816555%, 86.816555%)" fill-opacity="1" d="M 973.804688 832.503906 L 989.945312 836.519531 L 992.417969 487.199219 L 974.941406 483.664062 "/>
<path fill="none" stroke-width="0.1" stroke-linecap="butt" stroke-linejoin="miter" stroke="rgb(100%, 100%, 100%)" stroke-opacity="1" stroke-miterlimit="10" d="M 973.804688 832.503906 L 989.945312 836.519531 L 992.417969 487.199219 L 974.941406 483.664062 Z M 973.804688 832.503906 "/>
<path fill-rule="nonzero" fill="rgb(86.265781%, 86.265781%, 86.265781%)" fill-opacity="1" d="M 1007.265625 837.894531 L 1024.519531 836.519531 L 1029.851562 487.199219 L 1011.175781 488.410156 "/>
<path fill="none" stroke-width="0.1" stroke-linecap="butt" stroke-linejoin="miter" stroke="rgb(100%, 100%, 100%)" stroke-opacity="1" stroke-miterlimit="10" d="M 1007.265625 837.894531 L 1024.519531 836.519531 L 1029.851562 487.199219 L 1011.175781 488.410156 Z M 1007.265625 837.894531 "/>
<path fill-rule="nonzero" fill="rgb(87.723662%, 87.723662%, 87.723662%)" fill-opacity="1" d="M 989.945312 836.519531 L 1007.265625 837.894531 L 1011.175781 488.410156 L 992.417969 487.199219 "/>
<path fill="none" stroke-width="0.1" stroke-linecap="butt" stroke-linejoin="miter" stroke="rgb(100%, 100%, 100%)" stroke-opacity="1" stroke-miterlimit="10" d="M 989.945312 836.519531 L 1007.265625 837.894531 L 1011.175781 488.410156 L 992.417969 487.199219 Z M 989.945312 836.519531 "/>
<path fill-rule="nonzero" fill="rgb(77.257958%, 77.257958%, 77.257958%)" fill-opacity="1" d="M 1010.003906 453.6875 L 1026.832031 421.621094 L 1008.886719 420.515625 "/>
<path fill="none" stroke-width="0.1" stroke-linecap="butt" stroke-linejoin="miter" stroke="rgb(100%, 100%, 100%)" stroke-opacity="1" stroke-miterlimit="10" d="M 1010.003906 453.6875 L 1026.832031 421.621094 L 1008.886719 420.515625 Z M 1010.003906 453.6875 "/>
<path fill-rule="nonzero" fill="rgb(77.257958%, 77.257958%, 77.257958%)" fill-opacity="1" d="M 1010.003906 453.6875 L 1008.886719 420.515625 L 991.019531 421.621094 "/>
<path fill="none" stroke-width="0.1" stroke-linecap="butt" stroke-linejoin="miter" stroke="rgb(100%, 100%, 100%)" stroke-opacity="1" stroke-miterlimit="10" d="M 1010.003906 453.6875 L 1008.886719 420.515625 L 991.019531 421.621094 Z M 1010.003906 453.6875 "/>
<path fill-rule="nonzero" fill="rgb(77.257958%, 77.257958%, 77.257958%)" fill-opacity="1" d="M 1010.003906 453.6875 L 1043.707031 424.871094 L 1026.832031 421.621094 "/>
<path fill="none" stroke-width="0.1" stroke-linecap="butt" stroke-linejoin="miter" stroke="rgb(100%, 100%, 100%)" stroke-opacity="1" stroke-miterlimit="10" d="M 1010.003906 453.6875 L 1043.707031 424.871094 L 1026.832031 421.621094 Z M 1010.003906 453.6875 "/>
<path fill-rule="nonzero" fill="rgb(77.257958%, 77.257958%, 77.257958%)" fill-opacity="1" d="M 1010.003906 453.6875 L 991.019531 421.621094 L 974.363281 424.871094 "/>
<path fill="none" stroke-width="0.1" stroke-linecap="butt" stroke-linejoin="miter" stroke="rgb(100%, 100%, 100%)" stroke-opacity="1" stroke-miterlimit="10" d="M 1010.003906 453.6875 L 991.019531 421.621094 L 974.363281 424.871094 Z M 1010.003906 453.6875 "/>
<path fill-rule="nonzero" fill="rgb(77.257958%, 77.257958%, 77.257958%)" fill-opacity="1" d="M 1010.003906 453.6875 L 1058.421875 430.074219 L 1043.707031 424.871094 "/>
<path fill="none" stroke-width="0.1" stroke-linecap="butt" stroke-linejoin="miter" stroke="rgb(100%, 100%, 100%)" stroke-opacity="1" stroke-miterlimit="10" d="M 1010.003906 453.6875 L 1058.421875 430.074219 L 1043.707031 424.871094 Z M 1010.003906 453.6875 "/>
<path fill-rule="nonzero" fill="rgb(77.257958%, 77.257958%, 77.257958%)" fill-opacity="1" d="M 1010.003906 453.6875 L 974.363281 424.871094 L 960 430.074219 "/>
<path fill="none" stroke-width="0.1" stroke-linecap="butt" stroke-linejoin="miter" stroke="rgb(100%, 100%, 100%)" stroke-opacity="1" stroke-miterlimit="10" d="M 1010.003906 453.6875 L 974.363281 424.871094 L 960 430.074219 Z M 1010.003906 453.6875 "/>
<path fill-rule="nonzero" fill="rgb(77.257958%, 77.257958%, 77.257958%)" fill-opacity="1" d="M 1010.003906 453.6875 L 1069.992188 436.914062 L 1058.421875 430.074219 "/>
<path fill="none" stroke-width="0.1" stroke-linecap="butt" stroke-linejoin="miter" stroke="rgb(100%, 100%, 100%)" stroke-opacity="1" stroke-miterlimit="10" d="M 1010.003906 453.6875 L 1069.992188 436.914062 L 1058.421875 430.074219 Z M 1010.003906 453.6875 "/>
<path fill-rule="nonzero" fill="rgb(77.257958%, 77.257958%, 77.257958%)" fill-opacity="1" d="M 1010.003906 453.6875 L 960 430.074219 L 948.886719 436.914062 "/>
<path fill="none" stroke-width="0.1" stroke-linecap="butt" stroke-linejoin="miter" stroke="rgb(100%, 100%, 100%)" stroke-opacity="1" stroke-miterlimit="10" d="M 1010.003906 453.6875 L 960 430.074219 L 948.886719 436.914062 Z M 1010.003906 453.6875 "/>
<path fill-rule="nonzero" fill="rgb(77.257958%, 77.257958%, 77.257958%)" fill-opacity="1" d="M 1010.003906 453.6875 L 1077.617188 444.957031 L 1069.992188 436.914062 "/>
<path fill="none" stroke-width="0.1" stroke-linecap="butt" stroke-linejoin="miter" stroke="rgb(100%, 100%, 100%)" stroke-opacity="1" stroke-miterlimit="10" d="M 1010.003906 453.6875 L 1077.617188 444.957031 L 1069.992188 436.914062 Z M 1010.003906 453.6875 "/>
<path fill-rule="nonzero" fill="rgb(77.257958%, 77.257958%, 77.257958%)" fill-opacity="1" d="M 1010.003906 453.6875 L 948.886719 436.914062 L 941.804688 444.957031 "/>
<path fill="none" stroke-width="0.1" stroke-linecap="butt" stroke-linejoin="miter" stroke="rgb(100%, 100%, 100%)" stroke-opacity="1" stroke-miterlimit="10" d="M 1010.003906 453.6875 L 948.886719 436.914062 L 941.804688 444.957031 Z M 1010.003906 453.6875 "/>
<path fill-rule="nonzero" fill="rgb(77.257958%, 77.257958%, 77.257958%)" fill-opacity="1" d="M 1010.003906 453.6875 L 1080.722656 453.6875 L 1077.617188 444.957031 "/>
<path fill="none" stroke-width="0.1" stroke-linecap="butt" stroke-linejoin="miter" stroke="rgb(100%, 100%, 100%)" stroke-opacity="1" stroke-miterlimit="10" d="M 1010.003906 453.6875 L 1080.722656 453.6875 L 1077.617188 444.957031 Z M 1010.003906 453.6875 "/>
<path fill-rule="nonzero" fill="rgb(77.257958%, 77.257958%, 77.257958%)" fill-opacity="1" d="M 1010.003906 453.6875 L 941.804688 444.957031 L 939.285156 453.6875 "/>
<path fill="none" stroke-width="0.1" stroke-linecap="butt" stroke-linejoin="miter" stroke="rgb(100%, 100%, 100%)" stroke-opacity="1" stroke-miterlimit="10" d="M 1010.003906 453.6875 L 941.804688 444.957031 L 939.285156 453.6875 Z M 1010.003906 453.6875 "/>
<path fill-rule="nonzero" fill="rgb(77.257958%, 77.257958%, 77.257958%)" fill-opacity="1" d="M 1010.003906 453.6875 L 1079.019531 462.519531 L 1080.722656 453.6875 "/>
<path fill="none" stroke-width="0.1" stroke-linecap="butt" stroke-linejoin="miter" stroke="rgb(100%, 100%, 100%)" stroke-opacity="1" stroke-miterlimit="10" d="M 1010.003906 453.6875 L 1079.019531 462.519531 L 1080.722656 453.6875 Z M 1010.003906 453.6875 "/>
<path fill-rule="nonzero" fill="rgb(77.257958%, 77.257958%, 77.257958%)" fill-opacity="1" d="M 1010.003906 453.6875 L 939.285156 453.6875 L 941.585938 462.519531 "/>
<path fill="none" stroke-width="0.1" stroke-linecap="butt" stroke-linejoin="miter" stroke="rgb(100%, 100%, 100%)" stroke-opacity="1" stroke-miterlimit="10" d="M 1010.003906 453.6875 L 939.285156 453.6875 L 941.585938 462.519531 Z M 1010.003906 453.6875 "/>
<path fill-rule="nonzero" fill="rgb(77.257958%, 77.257958%, 77.257958%)" fill-opacity="1" d="M 1010.003906 453.6875 L 1072.535156 470.847656 L 1079.019531 462.519531 "/>
<path fill="none" stroke-width="0.1" stroke-linecap="butt" stroke-linejoin="miter" stroke="rgb(100%, 100%, 100%)" stroke-opacity="1" stroke-miterlimit="10" d="M 1010.003906 453.6875 L 1072.535156 470.847656 L 1079.019531 462.519531 Z M 1010.003906 453.6875 "/>
<path fill-rule="nonzero" fill="rgb(77.257958%, 77.257958%, 77.257958%)" fill-opacity="1" d="M 1010.003906 453.6875 L 941.585938 462.519531 L 948.632812 470.847656 "/>
<path fill="none" stroke-width="0.1" stroke-linecap="butt" stroke-linejoin="miter" stroke="rgb(100%, 100%, 100%)" stroke-opacity="1" stroke-miterlimit="10" d="M 1010.003906 453.6875 L 941.585938 462.519531 L 948.632812 470.847656 Z M 1010.003906 453.6875 "/>
<path fill-rule="nonzero" fill="rgb(77.257958%, 77.257958%, 77.257958%)" fill-opacity="1" d="M 1010.003906 453.6875 L 1061.652344 478.070312 L 1072.535156 470.847656 "/>
<path fill="none" stroke-width="0.1" stroke-linecap="butt" stroke-linejoin="miter" stroke="rgb(100%, 100%, 100%)" stroke-opacity="1" stroke-miterlimit="10" d="M 1010.003906 453.6875 L 1061.652344 478.070312 L 1072.535156 470.847656 Z M 1010.003906 453.6875 "/>
<path fill-rule="nonzero" fill="rgb(77.257958%, 77.257958%, 77.257958%)" fill-opacity="1" d="M 1010.003906 453.6875 L 948.632812 470.847656 L 960 478.070312 "/>
<path fill="none" stroke-width="0.1" stroke-linecap="butt" stroke-linejoin="miter" stroke="rgb(100%, 100%, 100%)" stroke-opacity="1" stroke-miterlimit="10" d="M 1010.003906 453.6875 L 948.632812 470.847656 L 960 478.070312 Z M 1010.003906 453.6875 "/>
<path fill-rule="nonzero" fill="rgb(77.257958%, 77.257958%, 77.257958%)" fill-opacity="1" d="M 1010.003906 453.6875 L 1047.089844 483.664062 L 1061.652344 478.070312 "/>
<path fill="none" stroke-width="0.1" stroke-linecap="butt" stroke-linejoin="miter" stroke="rgb(100%, 100%, 100%)" stroke-opacity="1" stroke-miterlimit="10" d="M 1010.003906 453.6875 L 1047.089844 483.664062 L 1061.652344 478.070312 Z M 1010.003906 453.6875 "/>
<path fill-rule="nonzero" fill="rgb(77.257958%, 77.257958%, 77.257958%)" fill-opacity="1" d="M 1010.003906 453.6875 L 960 478.070312 L 974.941406 483.664062 "/>
<path fill="none" stroke-width="0.1" stroke-linecap="butt" stroke-linejoin="miter" stroke="rgb(100%, 100%, 100%)" stroke-opacity="1" stroke-miterlimit="10" d="M 1010.003906 453.6875 L 960 478.070312 L 974.941406 483.664062 Z M 1010.003906 453.6875 "/>
<path fill-rule="nonzero" fill="rgb(77.257958%, 77.257958%, 77.257958%)" fill-opacity="1" d="M 1010.003906 453.6875 L 1029.851562 487.199219 L 1047.089844 483.664062 "/>
<path fill="none" stroke-width="0.1" stroke-linecap="butt" stroke-linejoin="miter" stroke="rgb(100%, 100%, 100%)" stroke-opacity="1" stroke-miterlimit="10" d="M 1010.003906 453.6875 L 1029.851562 487.199219 L 1047.089844 483.664062 Z M 1010.003906 453.6875 "/>
<path fill-rule="nonzero" fill="rgb(77.257958%, 77.257958%, 77.257958%)" fill-opacity="1" d="M 1010.003906 453.6875 L 974.941406 483.664062 L 992.417969 487.199219 "/>
<path fill="none" stroke-width="0.1" stroke-linecap="butt" stroke-linejoin="miter" stroke="rgb(100%, 100%, 100%)" stroke-opacity="1" stroke-miterlimit="10" d="M 1010.003906 453.6875 L 974.941406 483.664062 L 992.417969 487.199219 Z M 1010.003906 453.6875 "/>
<path fill-rule="nonzero" fill="rgb(77.257958%, 77.257958%, 77.257958%)" fill-opacity="1" d="M 1010.003906 453.6875 L 1011.175781 488.410156 L 1029.851562 487.199219 "/>
<path fill="none" stroke-width="0.1" stroke-linecap="butt" stroke-linejoin="miter" stroke="rgb(100%, 100%, 100%)" stroke-opacity="1" stroke-miterlimit="10" d="M 1010.003906 453.6875 L 1011.175781 488.410156 L 1029.851562 487.199219 Z M 1010.003906 453.6875 "/>
<path fill-rule="nonzero" fill="rgb(77.257958%, 77.257958%, 77.257958%)" fill-opacity="1" d="M 1010.003906 453.6875 L 992.417969 487.199219 L 1011.175781 488.410156 "/>
<path fill="none" stroke-width="0.1" stroke-linecap="butt" stroke-linejoin="miter" stroke="rgb(100%, 100%, 100%)" stroke-opacity="1" stroke-miterlimit="10" d="M 1010.003906 453.6875 L 992.417969 487.199219 L 1011.175781 488.410156 Z M 1010.003906 453.6875 "/>
<path fill-rule="nonzero" fill="rgb(43.734219%, 43.734219%, 43.734219%)" fill-opacity="1" d="M 624.367188 864.792969 L 552.953125 870.472656 L 542.132812 758.953125 L 615.472656 753.464844 "/>
<path fill="none" stroke-width="0.1" stroke-linecap="butt" stroke-linejoin="miter" stroke="rgb(100%, 100%, 100%)" stroke-opacity="1" stroke-miterlimit="10" d="M 624.367188 864.792969 L 552.953125 870.472656 L 542.132812 758.953125 L 615.472656 753.464844 Z M 624.367188 864.792969 "/>
<path fill-rule="nonzero" fill="rgb(46.951026%, 46.951026%, 46.951026%)" fill-opacity="1" d="M 552.953125 870.472656 L 483.152344 887.320312 L 470.363281 775.238281 L 542.132812 758.953125 "/>
<path fill="none" stroke-width="0.1" stroke-linecap="butt" stroke-linejoin="miter" stroke="rgb(100%, 100%, 100%)" stroke-opacity="1" stroke-miterlimit="10" d="M 552.953125 870.472656 L 483.152344 887.320312 L 470.363281 775.238281 L 542.132812 758.953125 Z M 552.953125 870.472656 "/>
<path fill-rule="nonzero" fill="rgb(42.276338%, 42.276338%, 42.276338%)" fill-opacity="1" d="M 693.773438 870.472656 L 624.367188 864.792969 L 615.472656 753.464844 L 686.695312 758.953125 "/>
<path fill="none" stroke-width="0.1" stroke-linecap="butt" stroke-linejoin="miter" stroke="rgb(100%, 100%, 100%)" stroke-opacity="1" stroke-miterlimit="10" d="M 693.773438 870.472656 L 624.367188 864.792969 L 615.472656 753.464844 L 686.695312 758.953125 Z M 693.773438 870.472656 "/>
<path fill-rule="nonzero" fill="rgb(51.123479%, 51.123479%, 51.123479%)" fill-opacity="1" d="M 483.152344 887.320312 L 418.683594 914.742188 L 403.949219 801.761719 L 470.363281 775.238281 "/>
<path fill="none" stroke-width="0.1" stroke-linecap="butt" stroke-linejoin="miter" stroke="rgb(100%, 100%, 100%)" stroke-opacity="1" stroke-miterlimit="10" d="M 483.152344 887.320312 L 418.683594 914.742188 L 403.949219 801.761719 L 470.363281 775.238281 Z M 483.152344 887.320312 "/>
<path fill-rule="nonzero" fill="rgb(52.742042%, 52.742042%, 52.742042%)" fill-opacity="1" d="M 592.132812 1046.910156 L 552.953125 870.472656 L 624.367188 864.792969 "/>
<path fill="none" stroke-width="0.1" stroke-linecap="butt" stroke-linejoin="miter" stroke="rgb(100%, 100%, 100%)" stroke-opacity="1" stroke-miterlimit="10" d="M 592.132812 1046.910156 L 552.953125 870.472656 L 624.367188 864.792969 Z M 592.132812 1046.910156 "/>
<path fill-rule="nonzero" fill="rgb(43.183445%, 43.183445%, 43.183445%)" fill-opacity="1" d="M 757.609375 887.320312 L 693.773438 870.472656 L 686.695312 758.953125 L 752.179688 775.238281 "/>
<path fill="none" stroke-width="0.1" stroke-linecap="butt" stroke-linejoin="miter" stroke="rgb(100%, 100%, 100%)" stroke-opacity="1" stroke-miterlimit="10" d="M 757.609375 887.320312 L 693.773438 870.472656 L 686.695312 758.953125 L 752.179688 775.238281 Z M 757.609375 887.320312 "/>
<path fill-rule="nonzero" fill="rgb(52.742042%, 52.742042%, 52.742042%)" fill-opacity="1" d="M 592.132812 1046.910156 L 483.152344 887.320312 L 552.953125 870.472656 "/>
<path fill="none" stroke-width="0.1" stroke-linecap="butt" stroke-linejoin="miter" stroke="rgb(100%, 100%, 100%)" stroke-opacity="1" stroke-miterlimit="10" d="M 592.132812 1046.910156 L 483.152344 887.320312 L 552.953125 870.472656 Z M 592.132812 1046.910156 "/>
<path fill-rule="nonzero" fill="rgb(52.742042%, 52.742042%, 52.742042%)" fill-opacity="1" d="M 592.132812 1046.910156 L 624.367188 864.792969 L 693.773438 870.472656 "/>
<path fill="none" stroke-width="0.1" stroke-linecap="butt" stroke-linejoin="miter" stroke="rgb(100%, 100%, 100%)" stroke-opacity="1" stroke-miterlimit="10" d="M 592.132812 1046.910156 L 624.367188 864.792969 L 693.773438 870.472656 Z M 592.132812 1046.910156 "/>
<path fill-rule="nonzero" fill="rgb(52.742042%, 52.742042%, 52.742042%)" fill-opacity="1" d="M 592.132812 1046.910156 L 418.683594 914.742188 L 483.152344 887.320312 "/>
<path fill="none" stroke-width="0.1" stroke-linecap="butt" stroke-linejoin="miter" stroke="rgb(100%, 100%, 100%)" stroke-opacity="1" stroke-miterlimit="10" d="M 592.132812 1046.910156 L 418.683594 914.742188 L 483.152344 887.320312 Z M 592.132812 1046.910156 "/>
<path fill-rule="nonzero" fill="rgb(52.742042%, 52.742042%, 52.742042%)" fill-opacity="1" d="M 592.132812 1046.910156 L 693.773438 870.472656 L 757.609375 887.320312 "/>
<path fill="none" stroke-width="0.1" stroke-linecap="butt" stroke-linejoin="miter" stroke="rgb(100%, 100%, 100%)" stroke-opacity="1" stroke-miterlimit="10" d="M 592.132812 1046.910156 L 693.773438 870.472656 L 757.609375 887.320312 Z M 592.132812 1046.910156 "/>
<path fill-rule="nonzero" fill="rgb(55.769327%, 55.769327%, 55.769327%)" fill-opacity="1" d="M 418.683594 914.742188 L 363.332031 951.679688 L 346.773438 837.519531 L 403.949219 801.761719 "/>
<path fill="none" stroke-width="0.1" stroke-linecap="butt" stroke-linejoin="miter" stroke="rgb(100%, 100%, 100%)" stroke-opacity="1" stroke-miterlimit="10" d="M 418.683594 914.742188 L 363.332031 951.679688 L 346.773438 837.519531 L 403.949219 801.761719 Z M 418.683594 914.742188 "/>
<path fill-rule="nonzero" fill="rgb(52.742042%, 52.742042%, 52.742042%)" fill-opacity="1" d="M 592.132812 1046.910156 L 363.332031 951.679688 L 418.683594 914.742188 "/>
<path fill="none" stroke-width="0.1" stroke-linecap="butt" stroke-linejoin="miter" stroke="rgb(100%, 100%, 100%)" stroke-opacity="1" stroke-miterlimit="10" d="M 592.132812 1046.910156 L 363.332031 951.679688 L 418.683594 914.742188 Z M 592.132812 1046.910156 "/>
<path fill-rule="nonzero" fill="rgb(46.0554%, 46.0554%, 46.0554%)" fill-opacity="1" d="M 812.367188 914.742188 L 757.609375 887.320312 L 752.179688 775.238281 L 808.351562 801.761719 "/>
<path fill="none" stroke-width="0.1" stroke-linecap="butt" stroke-linejoin="miter" stroke="rgb(100%, 100%, 100%)" stroke-opacity="1" stroke-miterlimit="10" d="M 812.367188 914.742188 L 757.609375 887.320312 L 752.179688 775.238281 L 808.351562 801.761719 Z M 812.367188 914.742188 "/>
<path fill-rule="nonzero" fill="rgb(52.742042%, 52.742042%, 52.742042%)" fill-opacity="1" d="M 592.132812 1046.910156 L 757.609375 887.320312 L 812.367188 914.742188 "/>
<path fill="none" stroke-width="0.1" stroke-linecap="butt" stroke-linejoin="miter" stroke="rgb(100%, 100%, 100%)" stroke-opacity="1" stroke-miterlimit="10" d="M 592.132812 1046.910156 L 757.609375 887.320312 L 812.367188 914.742188 Z M 592.132812 1046.910156 "/>
<path fill-rule="nonzero" fill="rgb(52.742042%, 52.742042%, 52.742042%)" fill-opacity="1" d="M 592.132812 1046.910156 L 320.867188 996.503906 L 363.332031 951.679688 "/>
<path fill="none" stroke-width="0.1" stroke-linecap="butt" stroke-linejoin="miter" stroke="rgb(100%, 100%, 100%)" stroke-opacity="1" stroke-miterlimit="10" d="M 592.132812 1046.910156 L 320.867188 996.503906 L 363.332031 951.679688 Z M 592.132812 1046.910156 "/>
<path fill-rule="nonzero" fill="rgb(60.642444%, 60.642444%, 60.642444%)" fill-opacity="1" d="M 363.332031 951.679688 L 320.867188 996.503906 L 302.71875 880.960938 L 346.773438 837.519531 "/>
<path fill="none" stroke-width="0.1" stroke-linecap="butt" stroke-linejoin="miter" stroke="rgb(100%, 100%, 100%)" stroke-opacity="1" stroke-miterlimit="10" d="M 363.332031 951.679688 L 320.867188 996.503906 L 302.71875 880.960938 L 346.773438 837.519531 Z M 363.332031 951.679688 "/>
<path fill-rule="nonzero" fill="rgb(52.742042%, 52.742042%, 52.742042%)" fill-opacity="1" d="M 592.132812 1046.910156 L 812.367188 914.742188 L 854.644531 951.679688 "/>
<path fill="none" stroke-width="0.1" stroke-linecap="butt" stroke-linejoin="miter" stroke="rgb(100%, 100%, 100%)" stroke-opacity="1" stroke-miterlimit="10" d="M 592.132812 1046.910156 L 812.367188 914.742188 L 854.644531 951.679688 Z M 592.132812 1046.910156 "/>
<path fill-rule="nonzero" fill="rgb(50.052438%, 50.052438%, 50.052438%)" fill-opacity="1" d="M 854.644531 951.679688 L 812.367188 914.742188 L 808.351562 801.761719 L 851.722656 837.519531 "/>
<path fill="none" stroke-width="0.1" stroke-linecap="butt" stroke-linejoin="miter" stroke="rgb(100%, 100%, 100%)" stroke-opacity="1" stroke-miterlimit="10" d="M 854.644531 951.679688 L 812.367188 914.742188 L 808.351562 801.761719 L 851.722656 837.519531 Z M 854.644531 951.679688 "/>
<path fill-rule="nonzero" fill="rgb(77.257958%, 77.257958%, 77.257958%)" fill-opacity="1" d="M 581.417969 929.882812 L 615.472656 753.464844 L 542.132812 758.953125 "/>
<path fill="none" stroke-width="0.1" stroke-linecap="butt" stroke-linejoin="miter" stroke="rgb(100%, 100%, 100%)" stroke-opacity="1" stroke-miterlimit="10" d="M 581.417969 929.882812 L 615.472656 753.464844 L 542.132812 758.953125 Z M 581.417969 929.882812 "/>
<path fill-rule="nonzero" fill="rgb(77.257958%, 77.257958%, 77.257958%)" fill-opacity="1" d="M 581.417969 929.882812 L 542.132812 758.953125 L 470.363281 775.238281 "/>
<path fill="none" stroke-width="0.1" stroke-linecap="butt" stroke-linejoin="miter" stroke="rgb(100%, 100%, 100%)" stroke-opacity="1" stroke-miterlimit="10" d="M 581.417969 929.882812 L 542.132812 758.953125 L 470.363281 775.238281 Z M 581.417969 929.882812 "/>
<path fill-rule="nonzero" fill="rgb(77.257958%, 77.257958%, 77.257958%)" fill-opacity="1" d="M 581.417969 929.882812 L 686.695312 758.953125 L 615.472656 753.464844 "/>
<path fill="none" stroke-width="0.1" stroke-linecap="butt" stroke-linejoin="miter" stroke="rgb(100%, 100%, 100%)" stroke-opacity="1" stroke-miterlimit="10" d="M 581.417969 929.882812 L 686.695312 758.953125 L 615.472656 753.464844 Z M 581.417969 929.882812 "/>
<path fill-rule="nonzero" fill="rgb(52.742042%, 52.742042%, 52.742042%)" fill-opacity="1" d="M 592.132812 1046.910156 L 294.847656 1046.910156 L 320.867188 996.503906 "/>
<path fill="none" stroke-width="0.1" stroke-linecap="butt" stroke-linejoin="miter" stroke="rgb(100%, 100%, 100%)" stroke-opacity="1" stroke-miterlimit="10" d="M 592.132812 1046.910156 L 294.847656 1046.910156 L 320.867188 996.503906 Z M 592.132812 1046.910156 "/>
<path fill-rule="nonzero" fill="rgb(77.257958%, 77.257958%, 77.257958%)" fill-opacity="1" d="M 581.417969 929.882812 L 470.363281 775.238281 L 403.949219 801.761719 "/>
<path fill="none" stroke-width="0.1" stroke-linecap="butt" stroke-linejoin="miter" stroke="rgb(100%, 100%, 100%)" stroke-opacity="1" stroke-miterlimit="10" d="M 581.417969 929.882812 L 470.363281 775.238281 L 403.949219 801.761719 Z M 581.417969 929.882812 "/>
<path fill-rule="nonzero" fill="rgb(52.742042%, 52.742042%, 52.742042%)" fill-opacity="1" d="M 592.132812 1046.910156 L 854.644531 951.679688 L 881.242188 996.503906 "/>
<path fill="none" stroke-width="0.1" stroke-linecap="butt" stroke-linejoin="miter" stroke="rgb(100%, 100%, 100%)" stroke-opacity="1" stroke-miterlimit="10" d="M 592.132812 1046.910156 L 854.644531 951.679688 L 881.242188 996.503906 Z M 592.132812 1046.910156 "/>
<path fill-rule="nonzero" fill="rgb(77.257958%, 77.257958%, 77.257958%)" fill-opacity="1" d="M 581.417969 929.882812 L 752.179688 775.238281 L 686.695312 758.953125 "/>
<path fill="none" stroke-width="0.1" stroke-linecap="butt" stroke-linejoin="miter" stroke="rgb(100%, 100%, 100%)" stroke-opacity="1" stroke-miterlimit="10" d="M 581.417969 929.882812 L 752.179688 775.238281 L 686.695312 758.953125 Z M 581.417969 929.882812 "/>
<path fill-rule="nonzero" fill="rgb(65.604381%, 65.604381%, 65.604381%)" fill-opacity="1" d="M 320.867188 996.503906 L 294.847656 1046.910156 L 275.476562 929.882812 L 302.71875 880.960938 "/>
<path fill="none" stroke-width="0.1" stroke-linecap="butt" stroke-linejoin="miter" stroke="rgb(100%, 100%, 100%)" stroke-opacity="1" stroke-miterlimit="10" d="M 320.867188 996.503906 L 294.847656 1046.910156 L 275.476562 929.882812 L 302.71875 880.960938 Z M 320.867188 996.503906 "/>
<path fill-rule="nonzero" fill="rgb(77.257958%, 77.257958%, 77.257958%)" fill-opacity="1" d="M 581.417969 929.882812 L 403.949219 801.761719 L 346.773438 837.519531 "/>
<path fill="none" stroke-width="0.1" stroke-linecap="butt" stroke-linejoin="miter" stroke="rgb(100%, 100%, 100%)" stroke-opacity="1" stroke-miterlimit="10" d="M 581.417969 929.882812 L 403.949219 801.761719 L 346.773438 837.519531 Z M 581.417969 929.882812 "/>
<path fill-rule="nonzero" fill="rgb(52.742042%, 52.742042%, 52.742042%)" fill-opacity="1" d="M 592.132812 1046.910156 L 288.28125 1099.890625 L 294.847656 1046.910156 "/>
<path fill="none" stroke-width="0.1" stroke-linecap="butt" stroke-linejoin="miter" stroke="rgb(100%, 100%, 100%)" stroke-opacity="1" stroke-miterlimit="10" d="M 592.132812 1046.910156 L 288.28125 1099.890625 L 294.847656 1046.910156 Z M 592.132812 1046.910156 "/>
<path fill-rule="nonzero" fill="rgb(77.257958%, 77.257958%, 77.257958%)" fill-opacity="1" d="M 581.417969 929.882812 L 808.351562 801.761719 L 752.179688 775.238281 "/>
<path fill="none" stroke-width="0.1" stroke-linecap="butt" stroke-linejoin="miter" stroke="rgb(100%, 100%, 100%)" stroke-opacity="1" stroke-miterlimit="10" d="M 581.417969 929.882812 L 808.351562 801.761719 L 752.179688 775.238281 Z M 581.417969 929.882812 "/>
<path fill-rule="nonzero" fill="rgb(54.612186%, 54.612186%, 54.612186%)" fill-opacity="1" d="M 881.242188 996.503906 L 854.644531 951.679688 L 851.722656 837.519531 L 879.007812 880.960938 "/>
<path fill="none" stroke-width="0.1" stroke-linecap="butt" stroke-linejoin="miter" stroke="rgb(100%, 100%, 100%)" stroke-opacity="1" stroke-miterlimit="10" d="M 881.242188 996.503906 L 854.644531 951.679688 L 851.722656 837.519531 L 879.007812 880.960938 Z M 881.242188 996.503906 "/>
<path fill-rule="nonzero" fill="rgb(52.742042%, 52.742042%, 52.742042%)" fill-opacity="1" d="M 592.132812 1046.910156 L 881.242188 996.503906 L 889.414062 1046.910156 "/>
<path fill="none" stroke-width="0.1" stroke-linecap="butt" stroke-linejoin="miter" stroke="rgb(100%, 100%, 100%)" stroke-opacity="1" stroke-miterlimit="10" d="M 592.132812 1046.910156 L 881.242188 996.503906 L 889.414062 1046.910156 Z M 592.132812 1046.910156 "/>
<path fill-rule="nonzero" fill="rgb(77.257958%, 77.257958%, 77.257958%)" fill-opacity="1" d="M 581.417969 929.882812 L 346.773438 837.519531 L 302.71875 880.960938 "/>
<path fill="none" stroke-width="0.1" stroke-linecap="butt" stroke-linejoin="miter" stroke="rgb(100%, 100%, 100%)" stroke-opacity="1" stroke-miterlimit="10" d="M 581.417969 929.882812 L 346.773438 837.519531 L 302.71875 880.960938 Z M 581.417969 929.882812 "/>
<path fill-rule="nonzero" fill="rgb(77.257958%, 77.257958%, 77.257958%)" fill-opacity="1" d="M 581.417969 929.882812 L 851.722656 837.519531 L 808.351562 801.761719 "/>
<path fill="none" stroke-width="0.1" stroke-linecap="butt" stroke-linejoin="miter" stroke="rgb(100%, 100%, 100%)" stroke-opacity="1" stroke-miterlimit="10" d="M 581.417969 929.882812 L 851.722656 837.519531 L 808.351562 801.761719 Z M 581.417969 929.882812 "/>
<path fill-rule="nonzero" fill="rgb(70.554618%, 70.554618%, 70.554618%)" fill-opacity="1" d="M 294.847656 1046.910156 L 288.28125 1099.890625 L 268.207031 981.375 L 275.476562 929.882812 "/>
<path fill="none" stroke-width="0.1" stroke-linecap="butt" stroke-linejoin="miter" stroke="rgb(100%, 100%, 100%)" stroke-opacity="1" stroke-miterlimit="10" d="M 294.847656 1046.910156 L 288.28125 1099.890625 L 268.207031 981.375 L 275.476562 929.882812 Z M 294.847656 1046.910156 "/>
<path fill-rule="nonzero" fill="rgb(52.742042%, 52.742042%, 52.742042%)" fill-opacity="1" d="M 592.132812 1046.910156 L 303.132812 1151.75 L 288.28125 1099.890625 "/>
<path fill="none" stroke-width="0.1" stroke-linecap="butt" stroke-linejoin="miter" stroke="rgb(100%, 100%, 100%)" stroke-opacity="1" stroke-miterlimit="10" d="M 592.132812 1046.910156 L 303.132812 1151.75 L 288.28125 1099.890625 Z M 592.132812 1046.910156 "/>
<path fill-rule="nonzero" fill="rgb(52.742042%, 52.742042%, 52.742042%)" fill-opacity="1" d="M 592.132812 1046.910156 L 889.414062 1046.910156 L 877.226562 1099.890625 "/>
<path fill="none" stroke-width="0.1" stroke-linecap="butt" stroke-linejoin="miter" stroke="rgb(100%, 100%, 100%)" stroke-opacity="1" stroke-miterlimit="10" d="M 592.132812 1046.910156 L 889.414062 1046.910156 L 877.226562 1099.890625 Z M 592.132812 1046.910156 "/>
<path fill-rule="nonzero" fill="rgb(77.257958%, 77.257958%, 77.257958%)" fill-opacity="1" d="M 581.417969 929.882812 L 302.71875 880.960938 L 275.476562 929.882812 "/>
<path fill="none" stroke-width="0.1" stroke-linecap="butt" stroke-linejoin="miter" stroke="rgb(100%, 100%, 100%)" stroke-opacity="1" stroke-miterlimit="10" d="M 581.417969 929.882812 L 302.71875 880.960938 L 275.476562 929.882812 Z M 581.417969 929.882812 "/>
<path fill-rule="nonzero" fill="rgb(59.445382%, 59.445382%, 59.445382%)" fill-opacity="1" d="M 889.414062 1046.910156 L 881.242188 996.503906 L 879.007812 880.960938 L 887.359375 929.882812 "/>
<path fill="none" stroke-width="0.1" stroke-linecap="butt" stroke-linejoin="miter" stroke="rgb(100%, 100%, 100%)" stroke-opacity="1" stroke-miterlimit="10" d="M 889.414062 1046.910156 L 881.242188 996.503906 L 879.007812 880.960938 L 887.359375 929.882812 Z M 889.414062 1046.910156 "/>
<path fill-rule="nonzero" fill="rgb(77.257958%, 77.257958%, 77.257958%)" fill-opacity="1" d="M 581.417969 929.882812 L 879.007812 880.960938 L 851.722656 837.519531 "/>
<path fill="none" stroke-width="0.1" stroke-linecap="butt" stroke-linejoin="miter" stroke="rgb(100%, 100%, 100%)" stroke-opacity="1" stroke-miterlimit="10" d="M 581.417969 929.882812 L 879.007812 880.960938 L 851.722656 837.519531 Z M 581.417969 929.882812 "/>
<path fill-rule="nonzero" fill="rgb(52.742042%, 52.742042%, 52.742042%)" fill-opacity="1" d="M 592.132812 1046.910156 L 339.800781 1198.339844 L 303.132812 1151.75 "/>
<path fill="none" stroke-width="0.1" stroke-linecap="butt" stroke-linejoin="miter" stroke="rgb(100%, 100%, 100%)" stroke-opacity="1" stroke-miterlimit="10" d="M 592.132812 1046.910156 L 339.800781 1198.339844 L 303.132812 1151.75 Z M 592.132812 1046.910156 "/>
<path fill-rule="nonzero" fill="rgb(52.742042%, 52.742042%, 52.742042%)" fill-opacity="1" d="M 592.132812 1046.910156 L 877.226562 1099.890625 L 844.015625 1151.75 "/>
<path fill="none" stroke-width="0.1" stroke-linecap="butt" stroke-linejoin="miter" stroke="rgb(100%, 100%, 100%)" stroke-opacity="1" stroke-miterlimit="10" d="M 592.132812 1046.910156 L 877.226562 1099.890625 L 844.015625 1151.75 Z M 592.132812 1046.910156 "/>
<path fill-rule="nonzero" fill="rgb(77.257958%, 77.257958%, 77.257958%)" fill-opacity="1" d="M 581.417969 929.882812 L 275.476562 929.882812 L 268.207031 981.375 "/>
<path fill="none" stroke-width="0.1" stroke-linecap="butt" stroke-linejoin="miter" stroke="rgb(100%, 100%, 100%)" stroke-opacity="1" stroke-miterlimit="10" d="M 581.417969 929.882812 L 275.476562 929.882812 L 268.207031 981.375 Z M 581.417969 929.882812 "/>
<path fill-rule="nonzero" fill="rgb(75.387814%, 75.387814%, 75.387814%)" fill-opacity="1" d="M 288.28125 1099.890625 L 303.132812 1151.75 L 283.007812 1031.847656 L 268.207031 981.375 "/>
<path fill="none" stroke-width="0.1" stroke-linecap="butt" stroke-linejoin="miter" stroke="rgb(100%, 100%, 100%)" stroke-opacity="1" stroke-miterlimit="10" d="M 288.28125 1099.890625 L 303.132812 1151.75 L 283.007812 1031.847656 L 268.207031 981.375 Z M 288.28125 1099.890625 "/>
<path fill-rule="nonzero" fill="rgb(77.257958%, 77.257958%, 77.257958%)" fill-opacity="1" d="M 581.417969 929.882812 L 887.359375 929.882812 L 879.007812 880.960938 "/>
<path fill="none" stroke-width="0.1" stroke-linecap="butt" stroke-linejoin="miter" stroke="rgb(100%, 100%, 100%)" stroke-opacity="1" stroke-miterlimit="10" d="M 581.417969 929.882812 L 887.359375 929.882812 L 879.007812 880.960938 Z M 581.417969 929.882812 "/>
<path fill-rule="nonzero" fill="rgb(52.742042%, 52.742042%, 52.742042%)" fill-opacity="1" d="M 592.132812 1046.910156 L 396.628906 1235.460938 L 339.800781 1198.339844 "/>
<path fill="none" stroke-width="0.1" stroke-linecap="butt" stroke-linejoin="miter" stroke="rgb(100%, 100%, 100%)" stroke-opacity="1" stroke-miterlimit="10" d="M 592.132812 1046.910156 L 396.628906 1235.460938 L 339.800781 1198.339844 Z M 592.132812 1046.910156 "/>
<path fill-rule="nonzero" fill="rgb(64.395619%, 64.395619%, 64.395619%)" fill-opacity="1" d="M 877.226562 1099.890625 L 889.414062 1046.910156 L 887.359375 929.882812 L 874.753906 981.375 "/>
<path fill="none" stroke-width="0.1" stroke-linecap="butt" stroke-linejoin="miter" stroke="rgb(100%, 100%, 100%)" stroke-opacity="1" stroke-miterlimit="10" d="M 877.226562 1099.890625 L 889.414062 1046.910156 L 887.359375 929.882812 L 874.753906 981.375 Z M 877.226562 1099.890625 "/>
<path fill-rule="nonzero" fill="rgb(52.742042%, 52.742042%, 52.742042%)" fill-opacity="1" d="M 592.132812 1046.910156 L 844.015625 1151.75 L 790.855469 1198.339844 "/>
<path fill="none" stroke-width="0.1" stroke-linecap="butt" stroke-linejoin="miter" stroke="rgb(100%, 100%, 100%)" stroke-opacity="1" stroke-miterlimit="10" d="M 592.132812 1046.910156 L 844.015625 1151.75 L 790.855469 1198.339844 Z M 592.132812 1046.910156 "/>
<path fill-rule="nonzero" fill="rgb(77.257958%, 77.257958%, 77.257958%)" fill-opacity="1" d="M 581.417969 929.882812 L 268.207031 981.375 L 283.007812 1031.847656 "/>
<path fill="none" stroke-width="0.1" stroke-linecap="butt" stroke-linejoin="miter" stroke="rgb(100%, 100%, 100%)" stroke-opacity="1" stroke-miterlimit="10" d="M 581.417969 929.882812 L 268.207031 981.375 L 283.007812 1031.847656 Z M 581.417969 929.882812 "/>
<path fill-rule="nonzero" fill="rgb(52.742042%, 52.742042%, 52.742042%)" fill-opacity="1" d="M 592.132812 1046.910156 L 469.703125 1259.4375 L 396.628906 1235.460938 "/>
<path fill="none" stroke-width="0.1" stroke-linecap="butt" stroke-linejoin="miter" stroke="rgb(100%, 100%, 100%)" stroke-opacity="1" stroke-miterlimit="10" d="M 592.132812 1046.910156 L 469.703125 1259.4375 L 396.628906 1235.460938 Z M 592.132812 1046.910156 "/>
<path fill-rule="nonzero" fill="rgb(52.742042%, 52.742042%, 52.742042%)" fill-opacity="1" d="M 592.132812 1046.910156 L 790.855469 1198.339844 L 720.882812 1235.460938 "/>
<path fill="none" stroke-width="0.1" stroke-linecap="butt" stroke-linejoin="miter" stroke="rgb(100%, 100%, 100%)" stroke-opacity="1" stroke-miterlimit="10" d="M 592.132812 1046.910156 L 790.855469 1198.339844 L 720.882812 1235.460938 Z M 592.132812 1046.910156 "/>
<path fill-rule="nonzero" fill="rgb(77.257958%, 77.257958%, 77.257958%)" fill-opacity="1" d="M 581.417969 929.882812 L 874.753906 981.375 L 887.359375 929.882812 "/>
<path fill="none" stroke-width="0.1" stroke-linecap="butt" stroke-linejoin="miter" stroke="rgb(100%, 100%, 100%)" stroke-opacity="1" stroke-miterlimit="10" d="M 581.417969 929.882812 L 874.753906 981.375 L 887.359375 929.882812 Z M 581.417969 929.882812 "/>
<path fill-rule="nonzero" fill="rgb(52.742042%, 52.742042%, 52.742042%)" fill-opacity="1" d="M 592.132812 1046.910156 L 553.046875 1267.730469 L 469.703125 1259.4375 "/>
<path fill="none" stroke-width="0.1" stroke-linecap="butt" stroke-linejoin="miter" stroke="rgb(100%, 100%, 100%)" stroke-opacity="1" stroke-miterlimit="10" d="M 592.132812 1046.910156 L 553.046875 1267.730469 L 469.703125 1259.4375 Z M 592.132812 1046.910156 "/>
<path fill-rule="nonzero" fill="rgb(79.947562%, 79.947562%, 79.947562%)" fill-opacity="1" d="M 303.132812 1151.75 L 339.800781 1198.339844 L 320.382812 1077.257812 L 283.007812 1031.847656 "/>
<path fill="none" stroke-width="0.1" stroke-linecap="butt" stroke-linejoin="miter" stroke="rgb(100%, 100%, 100%)" stroke-opacity="1" stroke-miterlimit="10" d="M 303.132812 1151.75 L 339.800781 1198.339844 L 320.382812 1077.257812 L 283.007812 1031.847656 Z M 303.132812 1151.75 "/>
<path fill-rule="nonzero" fill="rgb(52.742042%, 52.742042%, 52.742042%)" fill-opacity="1" d="M 592.132812 1046.910156 L 720.882812 1235.460938 L 639.324219 1259.4375 "/>
<path fill="none" stroke-width="0.1" stroke-linecap="butt" stroke-linejoin="miter" stroke="rgb(100%, 100%, 100%)" stroke-opacity="1" stroke-miterlimit="10" d="M 592.132812 1046.910156 L 720.882812 1235.460938 L 639.324219 1259.4375 Z M 592.132812 1046.910156 "/>
<path fill-rule="nonzero" fill="rgb(52.742042%, 52.742042%, 52.742042%)" fill-opacity="1" d="M 592.132812 1046.910156 L 639.324219 1259.4375 L 553.046875 1267.730469 "/>
<path fill="none" stroke-width="0.1" stroke-linecap="butt" stroke-linejoin="miter" stroke="rgb(100%, 100%, 100%)" stroke-opacity="1" stroke-miterlimit="10" d="M 592.132812 1046.910156 L 639.324219 1259.4375 L 553.046875 1267.730469 Z M 592.132812 1046.910156 "/>
<path fill-rule="nonzero" fill="rgb(77.257958%, 77.257958%, 77.257958%)" fill-opacity="1" d="M 581.417969 929.882812 L 283.007812 1031.847656 L 320.382812 1077.257812 "/>
<path fill="none" stroke-width="0.1" stroke-linecap="butt" stroke-linejoin="miter" stroke="rgb(100%, 100%, 100%)" stroke-opacity="1" stroke-miterlimit="10" d="M 581.417969 929.882812 L 283.007812 1031.847656 L 320.382812 1077.257812 Z M 581.417969 929.882812 "/>
<path fill-rule="nonzero" fill="rgb(69.357556%, 69.357556%, 69.357556%)" fill-opacity="1" d="M 844.015625 1151.75 L 877.226562 1099.890625 L 874.753906 981.375 L 840.460938 1031.847656 "/>
<path fill="none" stroke-width="0.1" stroke-linecap="butt" stroke-linejoin="miter" stroke="rgb(100%, 100%, 100%)" stroke-opacity="1" stroke-miterlimit="10" d="M 844.015625 1151.75 L 877.226562 1099.890625 L 874.753906 981.375 L 840.460938 1031.847656 Z M 844.015625 1151.75 "/>
<path fill-rule="nonzero" fill="rgb(77.257958%, 77.257958%, 77.257958%)" fill-opacity="1" d="M 581.417969 929.882812 L 840.460938 1031.847656 L 874.753906 981.375 "/>
<path fill="none" stroke-width="0.1" stroke-linecap="butt" stroke-linejoin="miter" stroke="rgb(100%, 100%, 100%)" stroke-opacity="1" stroke-miterlimit="10" d="M 581.417969 929.882812 L 840.460938 1031.847656 L 874.753906 981.375 Z M 581.417969 929.882812 "/>
<path fill-rule="nonzero" fill="rgb(83.9446%, 83.9446%, 83.9446%)" fill-opacity="1" d="M 339.800781 1198.339844 L 396.628906 1235.460938 L 378.6875 1113.480469 L 320.382812 1077.257812 "/>
<path fill="none" stroke-width="0.1" stroke-linecap="butt" stroke-linejoin="miter" stroke="rgb(100%, 100%, 100%)" stroke-opacity="1" stroke-miterlimit="10" d="M 339.800781 1198.339844 L 396.628906 1235.460938 L 378.6875 1113.480469 L 320.382812 1077.257812 Z M 339.800781 1198.339844 "/>
<path fill-rule="nonzero" fill="rgb(77.257958%, 77.257958%, 77.257958%)" fill-opacity="1" d="M 581.417969 929.882812 L 320.382812 1077.257812 L 378.6875 1113.480469 "/>
<path fill="none" stroke-width="0.1" stroke-linecap="butt" stroke-linejoin="miter" stroke="rgb(100%, 100%, 100%)" stroke-opacity="1" stroke-miterlimit="10" d="M 581.417969 929.882812 L 320.382812 1077.257812 L 378.6875 1113.480469 Z M 581.417969 929.882812 "/>
<path fill-rule="nonzero" fill="rgb(77.257958%, 77.257958%, 77.257958%)" fill-opacity="1" d="M 581.417969 929.882812 L 785.558594 1077.257812 L 840.460938 1031.847656 "/>
<path fill="none" stroke-width="0.1" stroke-linecap="butt" stroke-linejoin="miter" stroke="rgb(100%, 100%, 100%)" stroke-opacity="1" stroke-miterlimit="10" d="M 581.417969 929.882812 L 785.558594 1077.257812 L 840.460938 1031.847656 Z M 581.417969 929.882812 "/>
<path fill-rule="nonzero" fill="rgb(74.230673%, 74.230673%, 74.230673%)" fill-opacity="1" d="M 790.855469 1198.339844 L 844.015625 1151.75 L 840.460938 1031.847656 L 785.558594 1077.257812 "/>
<path fill="none" stroke-width="0.1" stroke-linecap="butt" stroke-linejoin="miter" stroke="rgb(100%, 100%, 100%)" stroke-opacity="1" stroke-miterlimit="10" d="M 790.855469 1198.339844 L 844.015625 1151.75 L 840.460938 1031.847656 L 785.558594 1077.257812 Z M 790.855469 1198.339844 "/>
<path fill-rule="nonzero" fill="rgb(77.257958%, 77.257958%, 77.257958%)" fill-opacity="1" d="M 581.417969 929.882812 L 378.6875 1113.480469 L 453.917969 1136.898438 "/>
<path fill="none" stroke-width="0.1" stroke-linecap="butt" stroke-linejoin="miter" stroke="rgb(100%, 100%, 100%)" stroke-opacity="1" stroke-miterlimit="10" d="M 581.417969 929.882812 L 378.6875 1113.480469 L 453.917969 1136.898438 Z M 581.417969 929.882812 "/>
<path fill-rule="nonzero" fill="rgb(77.257958%, 77.257958%, 77.257958%)" fill-opacity="1" d="M 581.417969 929.882812 L 713.269531 1113.480469 L 785.558594 1077.257812 "/>
<path fill="none" stroke-width="0.1" stroke-linecap="butt" stroke-linejoin="miter" stroke="rgb(100%, 100%, 100%)" stroke-opacity="1" stroke-miterlimit="10" d="M 581.417969 929.882812 L 713.269531 1113.480469 L 785.558594 1077.257812 Z M 581.417969 929.882812 "/>
<path fill-rule="nonzero" fill="rgb(77.257958%, 77.257958%, 77.257958%)" fill-opacity="1" d="M 581.417969 929.882812 L 453.917969 1136.898438 L 539.894531 1145 "/>
<path fill="none" stroke-width="0.1" stroke-linecap="butt" stroke-linejoin="miter" stroke="rgb(100%, 100%, 100%)" stroke-opacity="1" stroke-miterlimit="10" d="M 581.417969 929.882812 L 453.917969 1136.898438 L 539.894531 1145 Z M 581.417969 929.882812 "/>
<path fill-rule="nonzero" fill="rgb(78.876521%, 78.876521%, 78.876521%)" fill-opacity="1" d="M 720.882812 1235.460938 L 790.855469 1198.339844 L 785.558594 1077.257812 L 713.269531 1113.480469 "/>
<path fill="none" stroke-width="0.1" stroke-linecap="butt" stroke-linejoin="miter" stroke="rgb(100%, 100%, 100%)" stroke-opacity="1" stroke-miterlimit="10" d="M 720.882812 1235.460938 L 790.855469 1198.339844 L 785.558594 1077.257812 L 713.269531 1113.480469 Z M 720.882812 1235.460938 "/>
<path fill-rule="nonzero" fill="rgb(77.257958%, 77.257958%, 77.257958%)" fill-opacity="1" d="M 581.417969 929.882812 L 629 1136.898438 L 713.269531 1113.480469 "/>
<path fill="none" stroke-width="0.1" stroke-linecap="butt" stroke-linejoin="miter" stroke="rgb(100%, 100%, 100%)" stroke-opacity="1" stroke-miterlimit="10" d="M 581.417969 929.882812 L 629 1136.898438 L 713.269531 1113.480469 Z M 581.417969 929.882812 "/>
<path fill-rule="nonzero" fill="rgb(77.257958%, 77.257958%, 77.257958%)" fill-opacity="1" d="M 581.417969 929.882812 L 539.894531 1145 L 629 1136.898438 "/>
<path fill="none" stroke-width="0.1" stroke-linecap="butt" stroke-linejoin="miter" stroke="rgb(100%, 100%, 100%)" stroke-opacity="1" stroke-miterlimit="10" d="M 581.417969 929.882812 L 539.894531 1145 L 629 1136.898438 Z M 581.417969 929.882812 "/>
</svg>
