<?xml version="1.0" encoding="UTF-8"?>
<svg xmlns="http://www.w3.org/2000/svg" xmlns:xlink="http://www.w3.org/1999/xlink" width="960" height="540" viewBox="0 0 960 540">
<rect x="-96" y="-54" width="1152" height="648" fill="rgb(100%, 100%, 100%)" fill-opacity="1"/>
<path fill-rule="nonzero" fill="rgb(50.122273%, 50.122273%, 50.122273%)" fill-opacity="1" d="M 667.785156 518.25 L 689.101563 530.949219 L 672.457031 543.964844 L 651.082031 530.949219 "/>
<path fill="none" stroke-width="0.1" stroke-linecap="butt" stroke-linejoin="miter" stroke="rgb(100%, 100%, 100%)" stroke-opacity="1" stroke-miterlimit="10" d="M 667.785156 518.25 L 689.101563 530.949219 L 672.457031 543.964844 L 651.082031 530.949219 Z M 667.785156 518.25 "/>
<path fill-rule="nonzero" fill="rgb(51.883598%, 51.883598%, 51.883598%)" fill-opacity="1" d="M 689.101563 530.949219 L 667.785156 518.25 L 669.703125 497.671875 L 691.265625 510.246094 "/>
<path fill="none" stroke-width="0.1" stroke-linecap="butt" stroke-linejoin="miter" stroke="rgb(100%, 100%, 100%)" stroke-opacity="1" stroke-miterlimit="10" d="M 689.101563 530.949219 L 667.785156 518.25 L 669.703125 497.671875 L 691.265625 510.246094 Z M 689.101563 530.949219 "/>
<path fill-rule="nonzero" fill="rgb(51.883598%, 51.883598%, 51.883598%)" fill-opacity="1" d="M 667.785156 518.25 L 651.082031 530.949219 L 652.851563 510.246094 L 669.703125 497.671875 "/>
<path fill="none" stroke-width="0.1" stroke-linecap="butt" stroke-linejoin="miter" stroke="rgb(100%, 100%, 100%)" stroke-opacity="1" stroke-miterlimit="10" d="M 667.785156 518.25 L 651.082031 530.949219 L 652.851563 510.246094 L 669.703125 497.671875 Z M 667.785156 518.25 "/>
<path fill-rule="nonzero" fill="rgb(78.116402%, 78.116402%, 78.116402%)" fill-opacity="1" d="M 672.457031 543.964844 L 689.101563 530.949219 L 691.265625 510.246094 L 674.472656 523.140625 "/>
<path fill="none" stroke-width="0.1" stroke-linecap="butt" stroke-linejoin="miter" stroke="rgb(100%, 100%, 100%)" stroke-opacity="1" stroke-miterlimit="10" d="M 672.457031 543.964844 L 689.101563 530.949219 L 691.265625 510.246094 L 674.472656 523.140625 Z M 672.457031 543.964844 "/>
<path fill-rule="nonzero" fill="rgb(78.116402%, 78.116402%, 78.116402%)" fill-opacity="1" d="M 651.082031 530.949219 L 672.457031 543.964844 L 674.472656 523.140625 L 652.851563 510.246094 "/>
<path fill="none" stroke-width="0.1" stroke-linecap="butt" stroke-linejoin="miter" stroke="rgb(100%, 100%, 100%)" stroke-opacity="1" stroke-miterlimit="10" d="M 651.082031 530.949219 L 672.457031 543.964844 L 674.472656 523.140625 L 652.851563 510.246094 Z M 651.082031 530.949219 "/>
<path fill-rule="nonzero" fill="rgb(79.877727%, 79.877727%, 79.877727%)" fill-opacity="1" d="M 669.703125 497.671875 L 652.851563 510.246094 L 674.472656 523.140625 L 691.265625 510.246094 "/>
<path fill="none" stroke-width="0.1" stroke-linecap="butt" stroke-linejoin="miter" stroke="rgb(100%, 100%, 100%)" stroke-opacity="1" stroke-miterlimit="10" d="M 669.703125 497.671875 L 652.851563 510.246094 L 674.472656 523.140625 L 691.265625 510.246094 Z M 669.703125 497.671875 "/>
<path fill-rule="nonzero" fill="rgb(51.883598%, 51.883598%, 51.883598%)" fill-opacity="1" d="M 734.59375 463.082031 L 713.757813 451.765625 L 716.03125 431.523438 L 737.097656 442.710938 "/>
<path fill="none" stroke-width="0.1" stroke-linecap="butt" stroke-linejoin="miter" stroke="rgb(100%, 100%, 100%)" stroke-opacity="1" stroke-miterlimit="10" d="M 734.59375 463.082031 L 713.757813 451.765625 L 716.03125 431.523438 L 737.097656 442.710938 Z M 734.59375 463.082031 "/>
<path fill-rule="nonzero" fill="rgb(50.122273%, 50.122273%, 50.122273%)" fill-opacity="1" d="M 713.757813 451.765625 L 734.59375 463.082031 L 719.292969 474.664063 L 698.390625 463.082031 "/>
<path fill="none" stroke-width="0.1" stroke-linecap="butt" stroke-linejoin="miter" stroke="rgb(100%, 100%, 100%)" stroke-opacity="1" stroke-miterlimit="10" d="M 713.757813 451.765625 L 734.59375 463.082031 L 719.292969 474.664063 L 698.390625 463.082031 Z M 713.757813 451.765625 "/>
<path fill-rule="nonzero" fill="rgb(51.883598%, 51.883598%, 51.883598%)" fill-opacity="1" d="M 713.757813 451.765625 L 698.390625 463.082031 L 700.542969 442.710938 L 716.03125 431.523438 "/>
<path fill="none" stroke-width="0.1" stroke-linecap="butt" stroke-linejoin="miter" stroke="rgb(100%, 100%, 100%)" stroke-opacity="1" stroke-miterlimit="10" d="M 713.757813 451.765625 L 698.390625 463.082031 L 700.542969 442.710938 L 716.03125 431.523438 Z M 713.757813 451.765625 "/>
<path fill-rule="nonzero" fill="rgb(78.116402%, 78.116402%, 78.116402%)" fill-opacity="1" d="M 719.292969 474.664063 L 734.59375 463.082031 L 737.097656 442.710938 L 721.675781 454.164063 "/>
<path fill="none" stroke-width="0.1" stroke-linecap="butt" stroke-linejoin="miter" stroke="rgb(100%, 100%, 100%)" stroke-opacity="1" stroke-miterlimit="10" d="M 719.292969 474.664063 L 734.59375 463.082031 L 737.097656 442.710938 L 721.675781 454.164063 Z M 719.292969 474.664063 "/>
<path fill-rule="nonzero" fill="rgb(79.877727%, 79.877727%, 79.877727%)" fill-opacity="1" d="M 716.03125 431.523438 L 700.542969 442.710938 L 721.675781 454.164063 L 737.097656 442.710938 "/>
<path fill="none" stroke-width="0.1" stroke-linecap="butt" stroke-linejoin="miter" stroke="rgb(100%, 100%, 100%)" stroke-opacity="1" stroke-miterlimit="10" d="M 716.03125 431.523438 L 700.542969 442.710938 L 721.675781 454.164063 L 737.097656 442.710938 Z M 716.03125 431.523438 "/>
<path fill-rule="nonzero" fill="rgb(78.116402%, 78.116402%, 78.116402%)" fill-opacity="1" d="M 698.390625 463.082031 L 719.292969 474.664063 L 721.675781 454.164063 L 700.542969 442.710938 "/>
<path fill="none" stroke-width="0.1" stroke-linecap="butt" stroke-linejoin="miter" stroke="rgb(100%, 100%, 100%)" stroke-opacity="1" stroke-miterlimit="10" d="M 698.390625 463.082031 L 719.292969 474.664063 L 721.675781 454.164063 L 700.542969 442.710938 Z M 698.390625 463.082031 "/>
<path fill-rule="nonzero" fill="rgb(51.883598%, 51.883598%, 51.883598%)" fill-opacity="1" d="M 739.1875 393.046875 L 719.421875 383.105469 L 721.625 363.332031 L 741.597656 373.144531 "/>
<path fill="none" stroke-width="0.1" stroke-linecap="butt" stroke-linejoin="miter" stroke="rgb(100%, 100%, 100%)" stroke-opacity="1" stroke-miterlimit="10" d="M 739.1875 393.046875 L 719.421875 383.105469 L 721.625 363.332031 L 741.597656 373.144531 Z M 739.1875 393.046875 "/>
<path fill-rule="nonzero" fill="rgb(50.122273%, 50.122273%, 50.122273%)" fill-opacity="1" d="M 719.421875 383.105469 L 739.1875 393.046875 L 724.777344 403.210938 L 704.953125 393.046875 "/>
<path fill="none" stroke-width="0.1" stroke-linecap="butt" stroke-linejoin="miter" stroke="rgb(100%, 100%, 100%)" stroke-opacity="1" stroke-miterlimit="10" d="M 719.421875 383.105469 L 739.1875 393.046875 L 724.777344 403.210938 L 704.953125 393.046875 Z M 719.421875 383.105469 "/>
<path fill-rule="nonzero" fill="rgb(51.883598%, 51.883598%, 51.883598%)" fill-opacity="1" d="M 719.421875 383.105469 L 704.953125 393.046875 L 707.046875 373.144531 L 721.625 363.332031 "/>
<path fill="none" stroke-width="0.1" stroke-linecap="butt" stroke-linejoin="miter" stroke="rgb(100%, 100%, 100%)" stroke-opacity="1" stroke-miterlimit="10" d="M 719.421875 383.105469 L 704.953125 393.046875 L 707.046875 373.144531 L 721.625 363.332031 Z M 719.421875 383.105469 "/>
<path fill-rule="nonzero" fill="rgb(78.116402%, 78.116402%, 78.116402%)" fill-opacity="1" d="M 724.777344 403.210938 L 739.1875 393.046875 L 741.597656 373.144531 L 727.082031 383.175781 "/>
<path fill="none" stroke-width="0.1" stroke-linecap="butt" stroke-linejoin="miter" stroke="rgb(100%, 100%, 100%)" stroke-opacity="1" stroke-miterlimit="10" d="M 724.777344 403.210938 L 739.1875 393.046875 L 741.597656 373.144531 L 727.082031 383.175781 Z M 724.777344 403.210938 "/>
<path fill-rule="nonzero" fill="rgb(79.877727%, 79.877727%, 79.877727%)" fill-opacity="1" d="M 721.625 363.332031 L 707.046875 373.144531 L 727.082031 383.175781 L 741.597656 373.144531 "/>
<path fill="none" stroke-width="0.1" stroke-linecap="butt" stroke-linejoin="miter" stroke="rgb(100%, 100%, 100%)" stroke-opacity="1" stroke-miterlimit="10" d="M 721.625 363.332031 L 707.046875 373.144531 L 727.082031 383.175781 L 741.597656 373.144531 Z M 721.625 363.332031 "/>
<path fill-rule="nonzero" fill="rgb(78.116402%, 78.116402%, 78.116402%)" fill-opacity="1" d="M 704.953125 393.046875 L 724.777344 403.210938 L 727.082031 383.175781 L 707.046875 373.144531 "/>
<path fill="none" stroke-width="0.1" stroke-linecap="butt" stroke-linejoin="miter" stroke="rgb(100%, 100%, 100%)" stroke-opacity="1" stroke-miterlimit="10" d="M 704.953125 393.046875 L 724.777344 403.210938 L 727.082031 383.175781 L 707.046875 373.144531 Z M 704.953125 393.046875 "/>
<path fill-rule="nonzero" fill="rgb(51.883598%, 51.883598%, 51.883598%)" fill-opacity="1" d="M 708.355469 330.234375 L 689.917969 321.453125 L 691.75 302.152344 L 710.371094 310.808594 "/>
<path fill="none" stroke-width="0.1" stroke-linecap="butt" stroke-linejoin="miter" stroke="rgb(100%, 100%, 100%)" stroke-opacity="1" stroke-miterlimit="10" d="M 708.355469 330.234375 L 689.917969 321.453125 L 691.75 302.152344 L 710.371094 310.808594 Z M 708.355469 330.234375 "/>
<path fill-rule="nonzero" fill="rgb(50.122273%, 50.122273%, 50.122273%)" fill-opacity="1" d="M 689.917969 321.453125 L 708.355469 330.234375 L 694.367188 339.203125 L 675.886719 330.234375 "/>
<path fill="none" stroke-width="0.1" stroke-linecap="butt" stroke-linejoin="miter" stroke="rgb(100%, 100%, 100%)" stroke-opacity="1" stroke-miterlimit="10" d="M 689.917969 321.453125 L 708.355469 330.234375 L 694.367188 339.203125 L 675.886719 330.234375 Z M 689.917969 321.453125 "/>
<path fill-rule="nonzero" fill="rgb(51.883598%, 51.883598%, 51.883598%)" fill-opacity="1" d="M 689.917969 321.453125 L 675.886719 330.234375 L 677.613281 310.808594 L 691.75 302.152344 "/>
<path fill="none" stroke-width="0.1" stroke-linecap="butt" stroke-linejoin="miter" stroke="rgb(100%, 100%, 100%)" stroke-opacity="1" stroke-miterlimit="10" d="M 689.917969 321.453125 L 675.886719 330.234375 L 677.613281 310.808594 L 691.75 302.152344 Z M 689.917969 321.453125 "/>
<path fill-rule="nonzero" fill="rgb(78.116402%, 78.116402%, 78.116402%)" fill-opacity="1" d="M 694.367188 339.203125 L 708.355469 330.234375 L 710.371094 310.808594 L 696.28125 319.648438 "/>
<path fill="none" stroke-width="0.1" stroke-linecap="butt" stroke-linejoin="miter" stroke="rgb(100%, 100%, 100%)" stroke-opacity="1" stroke-miterlimit="10" d="M 694.367188 339.203125 L 708.355469 330.234375 L 710.371094 310.808594 L 696.28125 319.648438 Z M 694.367188 339.203125 "/>
<path fill-rule="nonzero" fill="rgb(79.877727%, 79.877727%, 79.877727%)" fill-opacity="1" d="M 691.75 302.152344 L 677.613281 310.808594 L 696.28125 319.648438 L 710.371094 310.808594 "/>
<path fill="none" stroke-width="0.1" stroke-linecap="butt" stroke-linejoin="miter" stroke="rgb(100%, 100%, 100%)" stroke-opacity="1" stroke-miterlimit="10" d="M 691.75 302.152344 L 677.613281 310.808594 L 696.28125 319.648438 L 710.371094 310.808594 Z M 691.75 302.152344 "/>
<path fill-rule="nonzero" fill="rgb(78.116402%, 78.116402%, 78.116402%)" fill-opacity="1" d="M 675.886719 330.234375 L 694.367188 339.203125 L 696.28125 319.648438 L 677.613281 310.808594 "/>
<path fill="none" stroke-width="0.1" stroke-linecap="butt" stroke-linejoin="miter" stroke="rgb(100%, 100%, 100%)" stroke-opacity="1" stroke-miterlimit="10" d="M 675.886719 330.234375 L 694.367188 339.203125 L 696.28125 319.648438 L 677.613281 310.808594 Z M 675.886719 330.234375 "/>
<path fill-rule="nonzero" fill="rgb(51.883598%, 51.883598%, 51.883598%)" fill-opacity="1" d="M 651.242188 280.117188 L 634.125 272.191406 L 635.414063 253.273438 L 652.6875 261.074219 "/>
<path fill="none" stroke-width="0.1" stroke-linecap="butt" stroke-linejoin="miter" stroke="rgb(100%, 100%, 100%)" stroke-opacity="1" stroke-miterlimit="10" d="M 651.242188 280.117188 L 634.125 272.191406 L 635.414063 253.273438 L 652.6875 261.074219 Z M 651.242188 280.117188 "/>
<path fill-rule="nonzero" fill="rgb(51.883598%, 51.883598%, 51.883598%)" fill-opacity="1" d="M 634.125 272.191406 L 620.105469 280.117188 L 621.289063 261.074219 L 635.414063 253.273438 "/>
<path fill="none" stroke-width="0.1" stroke-linecap="butt" stroke-linejoin="miter" stroke="rgb(100%, 100%, 100%)" stroke-opacity="1" stroke-miterlimit="10" d="M 634.125 272.191406 L 620.105469 280.117188 L 621.289063 261.074219 L 635.414063 253.273438 Z M 634.125 272.191406 "/>
<path fill-rule="nonzero" fill="rgb(50.122273%, 50.122273%, 50.122273%)" fill-opacity="1" d="M 634.125 272.191406 L 651.242188 280.117188 L 637.253906 288.203125 L 620.105469 280.117188 "/>
<path fill="none" stroke-width="0.1" stroke-linecap="butt" stroke-linejoin="miter" stroke="rgb(100%, 100%, 100%)" stroke-opacity="1" stroke-miterlimit="10" d="M 634.125 272.191406 L 651.242188 280.117188 L 637.253906 288.203125 L 620.105469 280.117188 Z M 634.125 272.191406 "/>
<path fill-rule="nonzero" fill="rgb(79.877727%, 79.877727%, 79.877727%)" fill-opacity="1" d="M 635.414063 253.273438 L 621.289063 261.074219 L 638.597656 269.035156 L 652.6875 261.074219 "/>
<path fill="none" stroke-width="0.1" stroke-linecap="butt" stroke-linejoin="miter" stroke="rgb(100%, 100%, 100%)" stroke-opacity="1" stroke-miterlimit="10" d="M 635.414063 253.273438 L 621.289063 261.074219 L 638.597656 269.035156 L 652.6875 261.074219 Z M 635.414063 253.273438 "/>
<path fill-rule="nonzero" fill="rgb(78.116402%, 78.116402%, 78.116402%)" fill-opacity="1" d="M 637.253906 288.203125 L 651.242188 280.117188 L 652.6875 261.074219 L 638.597656 269.035156 "/>
<path fill="none" stroke-width="0.1" stroke-linecap="butt" stroke-linejoin="miter" stroke="rgb(100%, 100%, 100%)" stroke-opacity="1" stroke-miterlimit="10" d="M 637.253906 288.203125 L 651.242188 280.117188 L 652.6875 261.074219 L 638.597656 269.035156 Z M 637.253906 288.203125 "/>
<path fill-rule="nonzero" fill="rgb(78.116402%, 78.116402%, 78.116402%)" fill-opacity="1" d="M 620.105469 280.117188 L 637.253906 288.203125 L 638.597656 269.035156 L 621.289063 261.074219 "/>
<path fill="none" stroke-width="0.1" stroke-linecap="butt" stroke-linejoin="miter" stroke="rgb(100%, 100%, 100%)" stroke-opacity="1" stroke-miterlimit="10" d="M 620.105469 280.117188 L 637.253906 288.203125 L 638.597656 269.035156 L 621.289063 261.074219 Z M 620.105469 280.117188 "/>
<path fill-rule="nonzero" fill="rgb(51.883598%, 51.883598%, 51.883598%)" fill-opacity="1" d="M 577.304688 245.148438 L 561.332031 237.761719 L 561.996094 219.039063 L 578.109375 226.300781 "/>
<path fill="none" stroke-width="0.1" stroke-linecap="butt" stroke-linejoin="miter" stroke="rgb(100%, 100%, 100%)" stroke-opacity="1" stroke-miterlimit="10" d="M 577.304688 245.148438 L 561.332031 237.761719 L 561.996094 219.039063 L 578.109375 226.300781 Z M 577.304688 245.148438 "/>
<path fill-rule="nonzero" fill="rgb(51.883598%, 51.883598%, 51.883598%)" fill-opacity="1" d="M 561.332031 237.761719 L 546.953125 245.148438 L 547.507813 226.300781 L 561.996094 219.039063 "/>
<path fill="none" stroke-width="0.1" stroke-linecap="butt" stroke-linejoin="miter" stroke="rgb(100%, 100%, 100%)" stroke-opacity="1" stroke-miterlimit="10" d="M 561.332031 237.761719 L 546.953125 245.148438 L 547.507813 226.300781 L 561.996094 219.039063 Z M 561.332031 237.761719 "/>
<path fill-rule="nonzero" fill="rgb(50.122273%, 50.122273%, 50.122273%)" fill-opacity="1" d="M 561.332031 237.761719 L 577.304688 245.148438 L 562.945313 252.683594 L 546.953125 245.148438 "/>
<path fill="none" stroke-width="0.1" stroke-linecap="butt" stroke-linejoin="miter" stroke="rgb(100%, 100%, 100%)" stroke-opacity="1" stroke-miterlimit="10" d="M 561.332031 237.761719 L 577.304688 245.148438 L 562.945313 252.683594 L 546.953125 245.148438 Z M 561.332031 237.761719 "/>
<path fill-rule="nonzero" fill="rgb(79.877727%, 79.877727%, 79.877727%)" fill-opacity="1" d="M 561.996094 219.039063 L 547.507813 226.300781 L 563.632813 233.710938 L 578.109375 226.300781 "/>
<path fill="none" stroke-width="0.1" stroke-linecap="butt" stroke-linejoin="miter" stroke="rgb(100%, 100%, 100%)" stroke-opacity="1" stroke-miterlimit="10" d="M 561.996094 219.039063 L 547.507813 226.300781 L 563.632813 233.710938 L 578.109375 226.300781 Z M 561.996094 219.039063 "/>
<path fill-rule="nonzero" fill="rgb(78.116402%, 78.116402%, 78.116402%)" fill-opacity="1" d="M 562.945313 252.683594 L 577.304688 245.148438 L 578.109375 226.300781 L 563.632813 233.710938 "/>
<path fill="none" stroke-width="0.1" stroke-linecap="butt" stroke-linejoin="miter" stroke="rgb(100%, 100%, 100%)" stroke-opacity="1" stroke-miterlimit="10" d="M 562.945313 252.683594 L 577.304688 245.148438 L 578.109375 226.300781 L 563.632813 233.710938 Z M 562.945313 252.683594 "/>
<path fill-rule="nonzero" fill="rgb(78.116402%, 78.116402%, 78.116402%)" fill-opacity="1" d="M 546.953125 245.148438 L 562.945313 252.683594 L 563.632813 233.710938 L 547.507813 226.300781 "/>
<path fill="none" stroke-width="0.1" stroke-linecap="butt" stroke-linejoin="miter" stroke="rgb(100%, 100%, 100%)" stroke-opacity="1" stroke-miterlimit="10" d="M 546.953125 245.148438 L 562.945313 252.683594 L 563.632813 233.710938 L 547.507813 226.300781 Z M 546.953125 245.148438 "/>
<path fill-rule="nonzero" fill="rgb(51.883598%, 51.883598%, 51.883598%)" fill-opacity="1" d="M 495.089844 226.007813 L 480 218.847656 L 480 200.074219 L 495.214844 207.113281 "/>
<path fill="none" stroke-width="0.1" stroke-linecap="butt" stroke-linejoin="miter" stroke="rgb(100%, 100%, 100%)" stroke-opacity="1" stroke-miterlimit="10" d="M 495.089844 226.007813 L 480 218.847656 L 480 200.074219 L 495.214844 207.113281 Z M 495.089844 226.007813 "/>
<path fill-rule="nonzero" fill="rgb(51.883598%, 51.883598%, 51.883598%)" fill-opacity="1" d="M 480 218.847656 L 464.910156 226.007813 L 464.785156 207.113281 L 480 200.074219 "/>
<path fill="none" stroke-width="0.1" stroke-linecap="butt" stroke-linejoin="miter" stroke="rgb(100%, 100%, 100%)" stroke-opacity="1" stroke-miterlimit="10" d="M 480 218.847656 L 464.910156 226.007813 L 464.785156 207.113281 L 480 200.074219 Z M 480 218.847656 "/>
<path fill-rule="nonzero" fill="rgb(50.122273%, 50.122273%, 50.122273%)" fill-opacity="1" d="M 480 218.847656 L 495.089844 226.007813 L 480 233.3125 L 464.910156 226.007813 "/>
<path fill="none" stroke-width="0.1" stroke-linecap="butt" stroke-linejoin="miter" stroke="rgb(100%, 100%, 100%)" stroke-opacity="1" stroke-miterlimit="10" d="M 480 218.847656 L 495.089844 226.007813 L 480 233.3125 L 464.910156 226.007813 Z M 480 218.847656 "/>
<path fill-rule="nonzero" fill="rgb(79.877727%, 79.877727%, 79.877727%)" fill-opacity="1" d="M 480 200.074219 L 464.785156 207.113281 L 480 214.289063 L 495.214844 207.113281 "/>
<path fill="none" stroke-width="0.1" stroke-linecap="butt" stroke-linejoin="miter" stroke="rgb(100%, 100%, 100%)" stroke-opacity="1" stroke-miterlimit="10" d="M 480 200.074219 L 464.785156 207.113281 L 480 214.289063 L 495.214844 207.113281 Z M 480 200.074219 "/>
<path fill-rule="nonzero" fill="rgb(78.116402%, 78.116402%, 78.116402%)" fill-opacity="1" d="M 464.910156 226.007813 L 480 233.3125 L 480 214.289063 L 464.785156 207.113281 "/>
<path fill="none" stroke-width="0.1" stroke-linecap="butt" stroke-linejoin="miter" stroke="rgb(100%, 100%, 100%)" stroke-opacity="1" stroke-miterlimit="10" d="M 464.910156 226.007813 L 480 233.3125 L 480 214.289063 L 464.785156 207.113281 Z M 464.910156 226.007813 "/>
<path fill-rule="nonzero" fill="rgb(78.116402%, 78.116402%, 78.116402%)" fill-opacity="1" d="M 480 233.3125 L 495.089844 226.007813 L 495.214844 207.113281 L 480 214.289063 "/>
<path fill="none" stroke-width="0.1" stroke-linecap="butt" stroke-linejoin="miter" stroke="rgb(100%, 100%, 100%)" stroke-opacity="1" stroke-miterlimit="10" d="M 480 233.3125 L 495.089844 226.007813 L 495.214844 207.113281 L 480 214.289063 Z M 480 233.3125 "/>
<path fill-rule="nonzero" fill="rgb(51.883598%, 51.883598%, 51.883598%)" fill-opacity="1" d="M 397.871094 215.257813 L 381.730469 222.496094 L 380.914063 203.269531 L 397.191406 196.164063 "/>
<path fill="none" stroke-width="0.1" stroke-linecap="butt" stroke-linejoin="miter" stroke="rgb(100%, 100%, 100%)" stroke-opacity="1" stroke-miterlimit="10" d="M 397.871094 215.257813 L 381.730469 222.496094 L 380.914063 203.269531 L 397.191406 196.164063 Z M 397.871094 215.257813 "/>
<path fill-rule="nonzero" fill="rgb(51.883598%, 51.883598%, 51.883598%)" fill-opacity="1" d="M 412.382813 222.496094 L 397.871094 215.257813 L 397.191406 196.164063 L 411.820313 203.269531 "/>
<path fill="none" stroke-width="0.1" stroke-linecap="butt" stroke-linejoin="miter" stroke="rgb(100%, 100%, 100%)" stroke-opacity="1" stroke-miterlimit="10" d="M 412.382813 222.496094 L 397.871094 215.257813 L 397.191406 196.164063 L 411.820313 203.269531 Z M 412.382813 222.496094 "/>
<path fill-rule="nonzero" fill="rgb(50.122273%, 50.122273%, 50.122273%)" fill-opacity="1" d="M 397.871094 215.257813 L 412.382813 222.496094 L 396.226563 229.878906 L 381.730469 222.496094 "/>
<path fill="none" stroke-width="0.1" stroke-linecap="butt" stroke-linejoin="miter" stroke="rgb(100%, 100%, 100%)" stroke-opacity="1" stroke-miterlimit="10" d="M 397.871094 215.257813 L 412.382813 222.496094 L 396.226563 229.878906 L 381.730469 222.496094 Z M 397.871094 215.257813 "/>
<path fill-rule="nonzero" fill="rgb(79.877727%, 79.877727%, 79.877727%)" fill-opacity="1" d="M 397.191406 196.164063 L 380.914063 203.269531 L 395.523438 210.523438 L 411.820313 203.269531 "/>
<path fill="none" stroke-width="0.1" stroke-linecap="butt" stroke-linejoin="miter" stroke="rgb(100%, 100%, 100%)" stroke-opacity="1" stroke-miterlimit="10" d="M 397.191406 196.164063 L 380.914063 203.269531 L 395.523438 210.523438 L 411.820313 203.269531 Z M 397.191406 196.164063 "/>
<path fill-rule="nonzero" fill="rgb(78.116402%, 78.116402%, 78.116402%)" fill-opacity="1" d="M 381.730469 222.496094 L 396.226563 229.878906 L 395.523438 210.523438 L 380.914063 203.269531 "/>
<path fill="none" stroke-width="0.1" stroke-linecap="butt" stroke-linejoin="miter" stroke="rgb(100%, 100%, 100%)" stroke-opacity="1" stroke-miterlimit="10" d="M 381.730469 222.496094 L 396.226563 229.878906 L 395.523438 210.523438 L 380.914063 203.269531 Z M 381.730469 222.496094 "/>
<path fill-rule="nonzero" fill="rgb(78.116402%, 78.116402%, 78.116402%)" fill-opacity="1" d="M 396.226563 229.878906 L 412.382813 222.496094 L 411.820313 203.269531 L 395.523438 210.523438 "/>
<path fill="none" stroke-width="0.1" stroke-linecap="butt" stroke-linejoin="miter" stroke="rgb(100%, 100%, 100%)" stroke-opacity="1" stroke-miterlimit="10" d="M 396.226563 229.878906 L 412.382813 222.496094 L 411.820313 203.269531 L 395.523438 210.523438 Z M 396.226563 229.878906 "/>
<path fill-rule="nonzero" fill="rgb(51.883598%, 51.883598%, 51.883598%)" fill-opacity="1" d="M 322.746094 226.25 L 305.242188 233.867188 L 303.734375 214.03125 L 321.402344 206.554688 "/>
<path fill="none" stroke-width="0.1" stroke-linecap="butt" stroke-linejoin="miter" stroke="rgb(100%, 100%, 100%)" stroke-opacity="1" stroke-miterlimit="10" d="M 322.746094 226.25 L 305.242188 233.867188 L 303.734375 214.03125 L 321.402344 206.554688 Z M 322.746094 226.25 "/>
<path fill-rule="nonzero" fill="rgb(51.883598%, 51.883598%, 51.883598%)" fill-opacity="1" d="M 337.015625 233.867188 L 322.746094 226.25 L 321.402344 206.554688 L 335.785156 214.03125 "/>
<path fill="none" stroke-width="0.1" stroke-linecap="butt" stroke-linejoin="miter" stroke="rgb(100%, 100%, 100%)" stroke-opacity="1" stroke-miterlimit="10" d="M 337.015625 233.867188 L 322.746094 226.25 L 321.402344 206.554688 L 335.785156 214.03125 Z M 337.015625 233.867188 "/>
<path fill-rule="nonzero" fill="rgb(50.122273%, 50.122273%, 50.122273%)" fill-opacity="1" d="M 322.746094 226.25 L 337.015625 233.867188 L 319.480469 241.640625 L 305.242188 233.867188 "/>
<path fill="none" stroke-width="0.1" stroke-linecap="butt" stroke-linejoin="miter" stroke="rgb(100%, 100%, 100%)" stroke-opacity="1" stroke-miterlimit="10" d="M 322.746094 226.25 L 337.015625 233.867188 L 319.480469 241.640625 L 305.242188 233.867188 Z M 322.746094 226.25 "/>
<path fill-rule="nonzero" fill="rgb(79.877727%, 79.877727%, 79.877727%)" fill-opacity="1" d="M 321.402344 206.554688 L 303.734375 214.03125 L 318.082031 221.664063 L 335.785156 214.03125 "/>
<path fill="none" stroke-width="0.1" stroke-linecap="butt" stroke-linejoin="miter" stroke="rgb(100%, 100%, 100%)" stroke-opacity="1" stroke-miterlimit="10" d="M 321.402344 206.554688 L 303.734375 214.03125 L 318.082031 221.664063 L 335.785156 214.03125 Z M 321.402344 206.554688 "/>
<path fill-rule="nonzero" fill="rgb(78.116402%, 78.116402%, 78.116402%)" fill-opacity="1" d="M 305.242188 233.867188 L 319.480469 241.640625 L 318.082031 221.664063 L 303.734375 214.03125 "/>
<path fill="none" stroke-width="0.1" stroke-linecap="butt" stroke-linejoin="miter" stroke="rgb(100%, 100%, 100%)" stroke-opacity="1" stroke-miterlimit="10" d="M 305.242188 233.867188 L 319.480469 241.640625 L 318.082031 221.664063 L 303.734375 214.03125 Z M 305.242188 233.867188 "/>
<path fill-rule="nonzero" fill="rgb(78.116402%, 78.116402%, 78.116402%)" fill-opacity="1" d="M 319.480469 241.640625 L 337.015625 233.867188 L 335.785156 214.03125 L 318.082031 221.664063 "/>
<path fill="none" stroke-width="0.1" stroke-linecap="butt" stroke-linejoin="miter" stroke="rgb(100%, 100%, 100%)" stroke-opacity="1" stroke-miterlimit="10" d="M 319.480469 241.640625 L 337.015625 233.867188 L 335.785156 214.03125 L 318.082031 221.664063 Z M 319.480469 241.640625 "/>
<path fill-rule="nonzero" fill="rgb(51.883598%, 51.883598%, 51.883598%)" fill-opacity="1" d="M 263.332031 250.367188 L 244.222656 258.664063 L 242.078125 237.953125 L 261.382813 229.804688 "/>
<path fill="none" stroke-width="0.1" stroke-linecap="butt" stroke-linejoin="miter" stroke="rgb(100%, 100%, 100%)" stroke-opacity="1" stroke-miterlimit="10" d="M 263.332031 250.367188 L 244.222656 258.664063 L 242.078125 237.953125 L 261.382813 229.804688 Z M 263.332031 250.367188 "/>
<path fill-rule="nonzero" fill="rgb(51.883598%, 51.883598%, 51.883598%)" fill-opacity="1" d="M 277.75 258.664063 L 263.332031 250.367188 L 261.382813 229.804688 L 275.90625 237.953125 "/>
<path fill="none" stroke-width="0.1" stroke-linecap="butt" stroke-linejoin="miter" stroke="rgb(100%, 100%, 100%)" stroke-opacity="1" stroke-miterlimit="10" d="M 277.75 258.664063 L 263.332031 250.367188 L 261.382813 229.804688 L 275.90625 237.953125 Z M 277.75 258.664063 "/>
<path fill-rule="nonzero" fill="rgb(50.122273%, 50.122273%, 50.122273%)" fill-opacity="1" d="M 263.332031 250.367188 L 277.75 258.664063 L 258.589844 267.144531 L 244.222656 258.664063 "/>
<path fill="none" stroke-width="0.1" stroke-linecap="butt" stroke-linejoin="miter" stroke="rgb(100%, 100%, 100%)" stroke-opacity="1" stroke-miterlimit="10" d="M 263.332031 250.367188 L 277.75 258.664063 L 258.589844 267.144531 L 244.222656 258.664063 Z M 263.332031 250.367188 "/>
<path fill-rule="nonzero" fill="rgb(79.877727%, 79.877727%, 79.877727%)" fill-opacity="1" d="M 261.382813 229.804688 L 242.078125 237.953125 L 256.550781 246.28125 L 275.90625 237.953125 "/>
<path fill="none" stroke-width="0.1" stroke-linecap="butt" stroke-linejoin="miter" stroke="rgb(100%, 100%, 100%)" stroke-opacity="1" stroke-miterlimit="10" d="M 261.382813 229.804688 L 242.078125 237.953125 L 256.550781 246.28125 L 275.90625 237.953125 Z M 261.382813 229.804688 "/>
<path fill-rule="nonzero" fill="rgb(78.116402%, 78.116402%, 78.116402%)" fill-opacity="1" d="M 244.222656 258.664063 L 258.589844 267.144531 L 256.550781 246.28125 L 242.078125 237.953125 "/>
<path fill="none" stroke-width="0.1" stroke-linecap="butt" stroke-linejoin="miter" stroke="rgb(100%, 100%, 100%)" stroke-opacity="1" stroke-miterlimit="10" d="M 244.222656 258.664063 L 258.589844 267.144531 L 256.550781 246.28125 L 242.078125 237.953125 Z M 244.222656 258.664063 "/>
<path fill-rule="nonzero" fill="rgb(78.116402%, 78.116402%, 78.116402%)" fill-opacity="1" d="M 258.589844 267.144531 L 277.75 258.664063 L 275.90625 237.953125 L 256.550781 246.28125 "/>
<path fill="none" stroke-width="0.1" stroke-linecap="butt" stroke-linejoin="miter" stroke="rgb(100%, 100%, 100%)" stroke-opacity="1" stroke-miterlimit="10" d="M 258.589844 267.144531 L 277.75 258.664063 L 275.90625 237.953125 L 256.550781 246.28125 Z M 258.589844 267.144531 "/>
<path fill-rule="nonzero" fill="rgb(51.883598%, 51.883598%, 51.883598%)" fill-opacity="1" d="M 229.621094 284.742188 L 208.8125 294.003906 L 206.171875 272.203125 L 227.210938 263.101563 "/>
<path fill="none" stroke-width="0.1" stroke-linecap="butt" stroke-linejoin="miter" stroke="rgb(100%, 100%, 100%)" stroke-opacity="1" stroke-miterlimit="10" d="M 229.621094 284.742188 L 208.8125 294.003906 L 206.171875 272.203125 L 227.210938 263.101563 Z M 229.621094 284.742188 "/>
<path fill-rule="nonzero" fill="rgb(50.122273%, 50.122273%, 50.122273%)" fill-opacity="1" d="M 229.621094 284.742188 L 244.632813 294.003906 L 223.757813 303.484375 L 208.8125 294.003906 "/>
<path fill="none" stroke-width="0.1" stroke-linecap="butt" stroke-linejoin="miter" stroke="rgb(100%, 100%, 100%)" stroke-opacity="1" stroke-miterlimit="10" d="M 229.621094 284.742188 L 244.632813 294.003906 L 223.757813 303.484375 L 208.8125 294.003906 Z M 229.621094 284.742188 "/>
<path fill-rule="nonzero" fill="rgb(51.883598%, 51.883598%, 51.883598%)" fill-opacity="1" d="M 244.632813 294.003906 L 229.621094 284.742188 L 227.210938 263.101563 L 242.339844 272.203125 "/>
<path fill="none" stroke-width="0.1" stroke-linecap="butt" stroke-linejoin="miter" stroke="rgb(100%, 100%, 100%)" stroke-opacity="1" stroke-miterlimit="10" d="M 244.632813 294.003906 L 229.621094 284.742188 L 227.210938 263.101563 L 242.339844 272.203125 Z M 244.632813 294.003906 "/>
<path fill-rule="nonzero" fill="rgb(78.116402%, 78.116402%, 78.116402%)" fill-opacity="1" d="M 208.8125 294.003906 L 223.757813 303.484375 L 221.234375 281.519531 L 206.171875 272.203125 "/>
<path fill="none" stroke-width="0.1" stroke-linecap="butt" stroke-linejoin="miter" stroke="rgb(100%, 100%, 100%)" stroke-opacity="1" stroke-miterlimit="10" d="M 208.8125 294.003906 L 223.757813 303.484375 L 221.234375 281.519531 L 206.171875 272.203125 Z M 208.8125 294.003906 "/>
<path fill-rule="nonzero" fill="rgb(79.877727%, 79.877727%, 79.877727%)" fill-opacity="1" d="M 227.210938 263.101563 L 206.171875 272.203125 L 221.234375 281.519531 L 242.339844 272.203125 "/>
<path fill="none" stroke-width="0.1" stroke-linecap="butt" stroke-linejoin="miter" stroke="rgb(100%, 100%, 100%)" stroke-opacity="1" stroke-miterlimit="10" d="M 227.210938 263.101563 L 206.171875 272.203125 L 221.234375 281.519531 L 242.339844 272.203125 Z M 227.210938 263.101563 "/>
<path fill-rule="nonzero" fill="rgb(78.116402%, 78.116402%, 78.116402%)" fill-opacity="1" d="M 223.757813 303.484375 L 244.632813 294.003906 L 242.339844 272.203125 L 221.234375 281.519531 "/>
<path fill="none" stroke-width="0.1" stroke-linecap="butt" stroke-linejoin="miter" stroke="rgb(100%, 100%, 100%)" stroke-opacity="1" stroke-miterlimit="10" d="M 223.757813 303.484375 L 244.632813 294.003906 L 242.339844 272.203125 L 221.234375 281.519531 Z M 223.757813 303.484375 "/>
<path fill-rule="nonzero" fill="rgb(51.883598%, 51.883598%, 51.883598%)" fill-opacity="1" d="M 231.902344 324.101563 L 209.59375 334.53125 L 206.765625 311.539063 L 229.335938 301.285156 "/>
<path fill="none" stroke-width="0.1" stroke-linecap="butt" stroke-linejoin="miter" stroke="rgb(100%, 100%, 100%)" stroke-opacity="1" stroke-miterlimit="10" d="M 231.902344 324.101563 L 209.59375 334.53125 L 206.765625 311.539063 L 229.335938 301.285156 Z M 231.902344 324.101563 "/>
<path fill-rule="nonzero" fill="rgb(50.122273%, 50.122273%, 50.122273%)" fill-opacity="1" d="M 231.902344 324.101563 L 248.042969 334.53125 L 225.660156 345.226563 L 209.59375 334.53125 "/>
<path fill="none" stroke-width="0.1" stroke-linecap="butt" stroke-linejoin="miter" stroke="rgb(100%, 100%, 100%)" stroke-opacity="1" stroke-miterlimit="10" d="M 231.902344 324.101563 L 248.042969 334.53125 L 225.660156 345.226563 L 209.59375 334.53125 Z M 231.902344 324.101563 "/>
<path fill-rule="nonzero" fill="rgb(51.883598%, 51.883598%, 51.883598%)" fill-opacity="1" d="M 248.042969 334.53125 L 231.902344 324.101563 L 229.335938 301.285156 L 245.617188 311.539063 "/>
<path fill="none" stroke-width="0.1" stroke-linecap="butt" stroke-linejoin="miter" stroke="rgb(100%, 100%, 100%)" stroke-opacity="1" stroke-miterlimit="10" d="M 248.042969 334.53125 L 231.902344 324.101563 L 229.335938 301.285156 L 245.617188 311.539063 Z M 248.042969 334.53125 "/>
<path fill-rule="nonzero" fill="rgb(78.116402%, 78.116402%, 78.116402%)" fill-opacity="1" d="M 209.59375 334.53125 L 225.660156 345.226563 L 222.964844 322.054688 L 206.765625 311.539063 "/>
<path fill="none" stroke-width="0.1" stroke-linecap="butt" stroke-linejoin="miter" stroke="rgb(100%, 100%, 100%)" stroke-opacity="1" stroke-miterlimit="10" d="M 209.59375 334.53125 L 225.660156 345.226563 L 222.964844 322.054688 L 206.765625 311.539063 Z M 209.59375 334.53125 "/>
<path fill-rule="nonzero" fill="rgb(79.877727%, 79.877727%, 79.877727%)" fill-opacity="1" d="M 229.335938 301.285156 L 206.765625 311.539063 L 222.964844 322.054688 L 245.617188 311.539063 "/>
<path fill="none" stroke-width="0.1" stroke-linecap="butt" stroke-linejoin="miter" stroke="rgb(100%, 100%, 100%)" stroke-opacity="1" stroke-miterlimit="10" d="M 229.335938 301.285156 L 206.765625 311.539063 L 222.964844 322.054688 L 245.617188 311.539063 Z M 229.335938 301.285156 "/>
<path fill-rule="nonzero" fill="rgb(78.116402%, 78.116402%, 78.116402%)" fill-opacity="1" d="M 225.660156 345.226563 L 248.042969 334.53125 L 245.617188 311.539063 L 222.964844 322.054688 "/>
<path fill="none" stroke-width="0.1" stroke-linecap="butt" stroke-linejoin="miter" stroke="rgb(100%, 100%, 100%)" stroke-opacity="1" stroke-miterlimit="10" d="M 225.660156 345.226563 L 248.042969 334.53125 L 245.617188 311.539063 L 222.964844 322.054688 Z M 225.660156 345.226563 "/>
<path fill-rule="nonzero" fill="rgb(51.883598%, 51.883598%, 51.883598%)" fill-opacity="1" d="M 277.46875 360.070313 L 254.261719 371.683594 L 251.738281 347.535156 L 275.234375 336.113281 "/>
<path fill="none" stroke-width="0.1" stroke-linecap="butt" stroke-linejoin="miter" stroke="rgb(100%, 100%, 100%)" stroke-opacity="1" stroke-miterlimit="10" d="M 277.46875 360.070313 L 254.261719 371.683594 L 251.738281 347.535156 L 275.234375 336.113281 Z M 277.46875 360.070313 "/>
<path fill-rule="nonzero" fill="rgb(50.122273%, 50.122273%, 50.122273%)" fill-opacity="1" d="M 277.46875 360.070313 L 295.304688 371.683594 L 272.027344 383.605469 L 254.261719 371.683594 "/>
<path fill="none" stroke-width="0.1" stroke-linecap="butt" stroke-linejoin="miter" stroke="rgb(100%, 100%, 100%)" stroke-opacity="1" stroke-miterlimit="10" d="M 277.46875 360.070313 L 295.304688 371.683594 L 272.027344 383.605469 L 254.261719 371.683594 Z M 277.46875 360.070313 "/>
<path fill-rule="nonzero" fill="rgb(51.883598%, 51.883598%, 51.883598%)" fill-opacity="1" d="M 295.304688 371.683594 L 277.46875 360.070313 L 275.234375 336.113281 L 293.242188 347.535156 "/>
<path fill="none" stroke-width="0.1" stroke-linecap="butt" stroke-linejoin="miter" stroke="rgb(100%, 100%, 100%)" stroke-opacity="1" stroke-miterlimit="10" d="M 295.304688 371.683594 L 277.46875 360.070313 L 275.234375 336.113281 L 293.242188 347.535156 Z M 295.304688 371.683594 "/>
<path fill-rule="nonzero" fill="rgb(78.116402%, 78.116402%, 78.116402%)" fill-opacity="1" d="M 254.261719 371.683594 L 272.027344 383.605469 L 269.671875 359.265625 L 251.738281 347.535156 "/>
<path fill="none" stroke-width="0.1" stroke-linecap="butt" stroke-linejoin="miter" stroke="rgb(100%, 100%, 100%)" stroke-opacity="1" stroke-miterlimit="10" d="M 254.261719 371.683594 L 272.027344 383.605469 L 269.671875 359.265625 L 251.738281 347.535156 Z M 254.261719 371.683594 "/>
<path fill-rule="nonzero" fill="rgb(79.877727%, 79.877727%, 79.877727%)" fill-opacity="1" d="M 275.234375 336.113281 L 251.738281 347.535156 L 269.671875 359.265625 L 293.242188 347.535156 "/>
<path fill="none" stroke-width="0.1" stroke-linecap="butt" stroke-linejoin="miter" stroke="rgb(100%, 100%, 100%)" stroke-opacity="1" stroke-miterlimit="10" d="M 275.234375 336.113281 L 251.738281 347.535156 L 269.671875 359.265625 L 293.242188 347.535156 Z M 275.234375 336.113281 "/>
<path fill-rule="nonzero" fill="rgb(78.116402%, 78.116402%, 78.116402%)" fill-opacity="1" d="M 272.027344 383.605469 L 295.304688 371.683594 L 293.242188 347.535156 L 269.671875 359.265625 "/>
<path fill="none" stroke-width="0.1" stroke-linecap="butt" stroke-linejoin="miter" stroke="rgb(100%, 100%, 100%)" stroke-opacity="1" stroke-miterlimit="10" d="M 272.027344 383.605469 L 295.304688 371.683594 L 293.242188 347.535156 L 269.671875 359.265625 Z M 272.027344 383.605469 "/>
<path fill-rule="nonzero" fill="rgb(51.883598%, 51.883598%, 51.883598%)" fill-opacity="1" d="M 365.027344 382.011719 L 341.886719 394.503906 L 340.265625 369.414063 L 363.695313 357.125 "/>
<path fill="none" stroke-width="0.1" stroke-linecap="butt" stroke-linejoin="miter" stroke="rgb(100%, 100%, 100%)" stroke-opacity="1" stroke-miterlimit="10" d="M 365.027344 382.011719 L 341.886719 394.503906 L 340.265625 369.414063 L 363.695313 357.125 Z M 365.027344 382.011719 "/>
<path fill-rule="nonzero" fill="rgb(50.122273%, 50.122273%, 50.122273%)" fill-opacity="1" d="M 365.027344 382.011719 L 384.964844 394.503906 L 361.78125 407.351563 L 341.886719 394.503906 "/>
<path fill="none" stroke-width="0.1" stroke-linecap="butt" stroke-linejoin="miter" stroke="rgb(100%, 100%, 100%)" stroke-opacity="1" stroke-miterlimit="10" d="M 365.027344 382.011719 L 384.964844 394.503906 L 361.78125 407.351563 L 341.886719 394.503906 Z M 365.027344 382.011719 "/>
<path fill-rule="nonzero" fill="rgb(51.883598%, 51.883598%, 51.883598%)" fill-opacity="1" d="M 384.964844 394.503906 L 365.027344 382.011719 L 363.695313 357.125 L 383.851563 369.414063 "/>
<path fill="none" stroke-width="0.1" stroke-linecap="butt" stroke-linejoin="miter" stroke="rgb(100%, 100%, 100%)" stroke-opacity="1" stroke-miterlimit="10" d="M 384.964844 394.503906 L 365.027344 382.011719 L 363.695313 357.125 L 383.851563 369.414063 Z M 384.964844 394.503906 "/>
<path fill-rule="nonzero" fill="rgb(78.116402%, 78.116402%, 78.116402%)" fill-opacity="1" d="M 341.886719 394.503906 L 361.78125 407.351563 L 360.375 382.054688 L 340.265625 369.414063 "/>
<path fill="none" stroke-width="0.1" stroke-linecap="butt" stroke-linejoin="miter" stroke="rgb(100%, 100%, 100%)" stroke-opacity="1" stroke-miterlimit="10" d="M 341.886719 394.503906 L 361.78125 407.351563 L 360.375 382.054688 L 340.265625 369.414063 Z M 341.886719 394.503906 "/>
<path fill-rule="nonzero" fill="rgb(79.877727%, 79.877727%, 79.877727%)" fill-opacity="1" d="M 363.695313 357.125 L 340.265625 369.414063 L 360.375 382.054688 L 383.851563 369.414063 "/>
<path fill="none" stroke-width="0.1" stroke-linecap="butt" stroke-linejoin="miter" stroke="rgb(100%, 100%, 100%)" stroke-opacity="1" stroke-miterlimit="10" d="M 363.695313 357.125 L 340.265625 369.414063 L 360.375 382.054688 L 383.851563 369.414063 Z M 363.695313 357.125 "/>
<path fill-rule="nonzero" fill="rgb(78.116402%, 78.116402%, 78.116402%)" fill-opacity="1" d="M 361.78125 407.351563 L 384.964844 394.503906 L 383.851563 369.414063 L 360.375 382.054688 "/>
<path fill="none" stroke-width="0.1" stroke-linecap="butt" stroke-linejoin="miter" stroke="rgb(100%, 100%, 100%)" stroke-opacity="1" stroke-miterlimit="10" d="M 361.78125 407.351563 L 384.964844 394.503906 L 383.851563 369.414063 L 360.375 382.054688 Z M 361.78125 407.351563 "/>
<path fill-rule="nonzero" fill="rgb(51.883598%, 51.883598%, 51.883598%)" fill-opacity="1" d="M 502.023438 393.234375 L 480 380.480469 L 480 355.019531 L 502.289063 367.558594 "/>
<path fill="none" stroke-width="0.1" stroke-linecap="butt" stroke-linejoin="miter" stroke="rgb(100%, 100%, 100%)" stroke-opacity="1" stroke-miterlimit="10" d="M 502.023438 393.234375 L 480 380.480469 L 480 355.019531 L 502.289063 367.558594 Z M 502.023438 393.234375 "/>
<path fill-rule="nonzero" fill="rgb(51.883598%, 51.883598%, 51.883598%)" fill-opacity="1" d="M 480 380.480469 L 457.976563 393.234375 L 457.710938 367.558594 L 480 355.019531 "/>
<path fill="none" stroke-width="0.1" stroke-linecap="butt" stroke-linejoin="miter" stroke="rgb(100%, 100%, 100%)" stroke-opacity="1" stroke-miterlimit="10" d="M 480 380.480469 L 457.976563 393.234375 L 457.710938 367.558594 L 480 355.019531 Z M 480 380.480469 "/>
<path fill-rule="nonzero" fill="rgb(50.122273%, 50.122273%, 50.122273%)" fill-opacity="1" d="M 480 380.480469 L 502.023438 393.234375 L 480 406.355469 L 457.976563 393.234375 "/>
<path fill="none" stroke-width="0.1" stroke-linecap="butt" stroke-linejoin="miter" stroke="rgb(100%, 100%, 100%)" stroke-opacity="1" stroke-miterlimit="10" d="M 480 380.480469 L 502.023438 393.234375 L 480 406.355469 L 457.976563 393.234375 Z M 480 380.480469 "/>
<path fill-rule="nonzero" fill="rgb(79.877727%, 79.877727%, 79.877727%)" fill-opacity="1" d="M 480 355.019531 L 457.710938 367.558594 L 480 380.464844 L 502.289063 367.558594 "/>
<path fill="none" stroke-width="0.1" stroke-linecap="butt" stroke-linejoin="miter" stroke="rgb(100%, 100%, 100%)" stroke-opacity="1" stroke-miterlimit="10" d="M 480 355.019531 L 457.710938 367.558594 L 480 380.464844 L 502.289063 367.558594 Z M 480 355.019531 "/>
<path fill-rule="nonzero" fill="rgb(78.116402%, 78.116402%, 78.116402%)" fill-opacity="1" d="M 480 406.355469 L 502.023438 393.234375 L 502.289063 367.558594 L 480 380.464844 "/>
<path fill="none" stroke-width="0.1" stroke-linecap="butt" stroke-linejoin="miter" stroke="rgb(100%, 100%, 100%)" stroke-opacity="1" stroke-miterlimit="10" d="M 480 406.355469 L 502.023438 393.234375 L 502.289063 367.558594 L 480 380.464844 Z M 480 406.355469 "/>
<path fill-rule="nonzero" fill="rgb(78.116402%, 78.116402%, 78.116402%)" fill-opacity="1" d="M 457.976563 393.234375 L 480 406.355469 L 480 380.464844 L 457.710938 367.558594 "/>
<path fill="none" stroke-width="0.1" stroke-linecap="butt" stroke-linejoin="miter" stroke="rgb(100%, 100%, 100%)" stroke-opacity="1" stroke-miterlimit="10" d="M 457.976563 393.234375 L 480 406.355469 L 480 380.464844 L 457.710938 367.558594 Z M 457.976563 393.234375 "/>
<path fill-rule="nonzero" fill="rgb(51.883598%, 51.883598%, 51.883598%)" fill-opacity="1" d="M 620.0625 364.324219 L 596.574219 352.078125 L 597.941406 326.488281 L 621.730469 338.515625 "/>
<path fill="none" stroke-width="0.1" stroke-linecap="butt" stroke-linejoin="miter" stroke="rgb(100%, 100%, 100%)" stroke-opacity="1" stroke-miterlimit="10" d="M 620.0625 364.324219 L 596.574219 352.078125 L 597.941406 326.488281 L 621.730469 338.515625 Z M 620.0625 364.324219 "/>
<path fill-rule="nonzero" fill="rgb(50.122273%, 50.122273%, 50.122273%)" fill-opacity="1" d="M 596.574219 352.078125 L 620.0625 364.324219 L 599.914063 376.921875 L 576.375 364.324219 "/>
<path fill="none" stroke-width="0.1" stroke-linecap="butt" stroke-linejoin="miter" stroke="rgb(100%, 100%, 100%)" stroke-opacity="1" stroke-miterlimit="10" d="M 596.574219 352.078125 L 620.0625 364.324219 L 599.914063 376.921875 L 576.375 364.324219 Z M 596.574219 352.078125 "/>
<path fill-rule="nonzero" fill="rgb(51.883598%, 51.883598%, 51.883598%)" fill-opacity="1" d="M 596.574219 352.078125 L 576.375 364.324219 L 577.523438 338.515625 L 597.941406 326.488281 "/>
<path fill="none" stroke-width="0.1" stroke-linecap="butt" stroke-linejoin="miter" stroke="rgb(100%, 100%, 100%)" stroke-opacity="1" stroke-miterlimit="10" d="M 596.574219 352.078125 L 576.375 364.324219 L 577.523438 338.515625 L 597.941406 326.488281 Z M 596.574219 352.078125 "/>
<path fill-rule="nonzero" fill="rgb(78.116402%, 78.116402%, 78.116402%)" fill-opacity="1" d="M 599.914063 376.921875 L 620.0625 364.324219 L 621.730469 338.515625 L 601.359375 350.890625 "/>
<path fill="none" stroke-width="0.1" stroke-linecap="butt" stroke-linejoin="miter" stroke="rgb(100%, 100%, 100%)" stroke-opacity="1" stroke-miterlimit="10" d="M 599.914063 376.921875 L 620.0625 364.324219 L 621.730469 338.515625 L 601.359375 350.890625 Z M 599.914063 376.921875 "/>
<path fill-rule="nonzero" fill="rgb(79.877727%, 79.877727%, 79.877727%)" fill-opacity="1" d="M 597.941406 326.488281 L 577.523438 338.515625 L 601.359375 350.890625 L 621.730469 338.515625 "/>
<path fill="none" stroke-width="0.1" stroke-linecap="butt" stroke-linejoin="miter" stroke="rgb(100%, 100%, 100%)" stroke-opacity="1" stroke-miterlimit="10" d="M 597.941406 326.488281 L 577.523438 338.515625 L 601.359375 350.890625 L 621.730469 338.515625 Z M 597.941406 326.488281 "/>
<path fill-rule="nonzero" fill="rgb(78.116402%, 78.116402%, 78.116402%)" fill-opacity="1" d="M 576.375 364.324219 L 599.914063 376.921875 L 601.359375 350.890625 L 577.523438 338.515625 "/>
<path fill="none" stroke-width="0.1" stroke-linecap="butt" stroke-linejoin="miter" stroke="rgb(100%, 100%, 100%)" stroke-opacity="1" stroke-miterlimit="10" d="M 576.375 364.324219 L 599.914063 376.921875 L 601.359375 350.890625 L 577.523438 338.515625 Z M 576.375 364.324219 "/>
<path fill-rule="nonzero" fill="rgb(51.883598%, 51.883598%, 51.883598%)" fill-opacity="1" d="M 711.886719 312.808594 L 687.972656 301.675781 L 690.328125 276.40625 L 714.550781 287.320313 "/>
<path fill="none" stroke-width="0.1" stroke-linecap="butt" stroke-linejoin="miter" stroke="rgb(100%, 100%, 100%)" stroke-opacity="1" stroke-miterlimit="10" d="M 711.886719 312.808594 L 687.972656 301.675781 L 690.328125 276.40625 L 714.550781 287.320313 Z M 711.886719 312.808594 "/>
<path fill-rule="nonzero" fill="rgb(50.122273%, 50.122273%, 50.122273%)" fill-opacity="1" d="M 687.972656 301.675781 L 711.886719 312.808594 L 693.71875 324.25 L 669.726563 312.808594 "/>
<path fill="none" stroke-width="0.1" stroke-linecap="butt" stroke-linejoin="miter" stroke="rgb(100%, 100%, 100%)" stroke-opacity="1" stroke-miterlimit="10" d="M 687.972656 301.675781 L 711.886719 312.808594 L 693.71875 324.25 L 669.726563 312.808594 Z M 687.972656 301.675781 "/>
<path fill-rule="nonzero" fill="rgb(51.883598%, 51.883598%, 51.883598%)" fill-opacity="1" d="M 687.972656 301.675781 L 669.726563 312.808594 L 671.90625 287.320313 L 690.328125 276.40625 "/>
<path fill="none" stroke-width="0.1" stroke-linecap="butt" stroke-linejoin="miter" stroke="rgb(100%, 100%, 100%)" stroke-opacity="1" stroke-miterlimit="10" d="M 687.972656 301.675781 L 669.726563 312.808594 L 671.90625 287.320313 L 690.328125 276.40625 Z M 687.972656 301.675781 "/>
<path fill-rule="nonzero" fill="rgb(78.116402%, 78.116402%, 78.116402%)" fill-opacity="1" d="M 693.71875 324.25 L 711.886719 312.808594 L 714.550781 287.320313 L 696.207031 298.539063 "/>
<path fill="none" stroke-width="0.1" stroke-linecap="butt" stroke-linejoin="miter" stroke="rgb(100%, 100%, 100%)" stroke-opacity="1" stroke-miterlimit="10" d="M 693.71875 324.25 L 711.886719 312.808594 L 714.550781 287.320313 L 696.207031 298.539063 Z M 693.71875 324.25 "/>
<path fill-rule="nonzero" fill="rgb(79.877727%, 79.877727%, 79.877727%)" fill-opacity="1" d="M 690.328125 276.40625 L 671.90625 287.320313 L 696.207031 298.539063 L 714.550781 287.320313 "/>
<path fill="none" stroke-width="0.1" stroke-linecap="butt" stroke-linejoin="miter" stroke="rgb(100%, 100%, 100%)" stroke-opacity="1" stroke-miterlimit="10" d="M 690.328125 276.40625 L 671.90625 287.320313 L 696.207031 298.539063 L 714.550781 287.320313 Z M 690.328125 276.40625 "/>
<path fill-rule="nonzero" fill="rgb(78.116402%, 78.116402%, 78.116402%)" fill-opacity="1" d="M 669.726563 312.808594 L 693.71875 324.25 L 696.207031 298.539063 L 671.90625 287.320313 "/>
<path fill="none" stroke-width="0.1" stroke-linecap="butt" stroke-linejoin="miter" stroke="rgb(100%, 100%, 100%)" stroke-opacity="1" stroke-miterlimit="10" d="M 669.726563 312.808594 L 693.71875 324.25 L 696.207031 298.539063 L 671.90625 287.320313 Z M 669.726563 312.808594 "/>
<path fill-rule="nonzero" fill="rgb(51.883598%, 51.883598%, 51.883598%)" fill-opacity="1" d="M 760.875 249.441406 L 737.582031 239.695313 L 740.34375 215.089844 L 763.925781 224.621094 "/>
<path fill="none" stroke-width="0.1" stroke-linecap="butt" stroke-linejoin="miter" stroke="rgb(100%, 100%, 100%)" stroke-opacity="1" stroke-miterlimit="10" d="M 760.875 249.441406 L 737.582031 239.695313 L 740.34375 215.089844 L 763.925781 224.621094 Z M 760.875 249.441406 "/>
<path fill-rule="nonzero" fill="rgb(50.122273%, 50.122273%, 50.122273%)" fill-opacity="1" d="M 737.582031 239.695313 L 760.875 249.441406 L 744.316406 259.441406 L 720.9375 249.441406 "/>
<path fill="none" stroke-width="0.1" stroke-linecap="butt" stroke-linejoin="miter" stroke="rgb(100%, 100%, 100%)" stroke-opacity="1" stroke-miterlimit="10" d="M 737.582031 239.695313 L 760.875 249.441406 L 744.316406 259.441406 L 720.9375 249.441406 Z M 737.582031 239.695313 "/>
<path fill-rule="nonzero" fill="rgb(51.883598%, 51.883598%, 51.883598%)" fill-opacity="1" d="M 737.582031 239.695313 L 720.9375 249.441406 L 723.554688 224.621094 L 740.34375 215.089844 "/>
<path fill="none" stroke-width="0.1" stroke-linecap="butt" stroke-linejoin="miter" stroke="rgb(100%, 100%, 100%)" stroke-opacity="1" stroke-miterlimit="10" d="M 737.582031 239.695313 L 720.9375 249.441406 L 723.554688 224.621094 L 740.34375 215.089844 Z M 737.582031 239.695313 "/>
<path fill-rule="nonzero" fill="rgb(78.116402%, 78.116402%, 78.116402%)" fill-opacity="1" d="M 744.316406 259.441406 L 760.875 249.441406 L 763.925781 224.621094 L 747.226563 234.40625 "/>
<path fill="none" stroke-width="0.1" stroke-linecap="butt" stroke-linejoin="miter" stroke="rgb(100%, 100%, 100%)" stroke-opacity="1" stroke-miterlimit="10" d="M 744.316406 259.441406 L 760.875 249.441406 L 763.925781 224.621094 L 747.226563 234.40625 Z M 744.316406 259.441406 "/>
<path fill-rule="nonzero" fill="rgb(79.877727%, 79.877727%, 79.877727%)" fill-opacity="1" d="M 740.34375 215.089844 L 723.554688 224.621094 L 747.226563 234.40625 L 763.925781 224.621094 "/>
<path fill="none" stroke-width="0.1" stroke-linecap="butt" stroke-linejoin="miter" stroke="rgb(100%, 100%, 100%)" stroke-opacity="1" stroke-miterlimit="10" d="M 740.34375 215.089844 L 723.554688 224.621094 L 747.226563 234.40625 L 763.925781 224.621094 Z M 740.34375 215.089844 "/>
<path fill-rule="nonzero" fill="rgb(78.116402%, 78.116402%, 78.116402%)" fill-opacity="1" d="M 720.9375 249.441406 L 744.316406 259.441406 L 747.226563 234.40625 L 723.554688 224.621094 "/>
<path fill="none" stroke-width="0.1" stroke-linecap="butt" stroke-linejoin="miter" stroke="rgb(100%, 100%, 100%)" stroke-opacity="1" stroke-miterlimit="10" d="M 720.9375 249.441406 L 744.316406 259.441406 L 747.226563 234.40625 L 723.554688 224.621094 Z M 720.9375 249.441406 "/>
<path fill-rule="nonzero" fill="rgb(51.883598%, 51.883598%, 51.883598%)" fill-opacity="1" d="M 764.347656 185.34375 L 742.386719 176.9375 L 745.035156 153.167969 L 767.253906 161.363281 "/>
<path fill="none" stroke-width="0.1" stroke-linecap="butt" stroke-linejoin="miter" stroke="rgb(100%, 100%, 100%)" stroke-opacity="1" stroke-miterlimit="10" d="M 764.347656 185.34375 L 742.386719 176.9375 L 745.035156 153.167969 L 767.253906 161.363281 Z M 764.347656 185.34375 "/>
<path fill-rule="nonzero" fill="rgb(51.883598%, 51.883598%, 51.883598%)" fill-opacity="1" d="M 742.386719 176.9375 L 726.789063 185.34375 L 729.3125 161.363281 L 745.035156 153.167969 "/>
<path fill="none" stroke-width="0.1" stroke-linecap="butt" stroke-linejoin="miter" stroke="rgb(100%, 100%, 100%)" stroke-opacity="1" stroke-miterlimit="10" d="M 742.386719 176.9375 L 726.789063 185.34375 L 729.3125 161.363281 L 745.035156 153.167969 Z M 742.386719 176.9375 "/>
<path fill-rule="nonzero" fill="rgb(50.122273%, 50.122273%, 50.122273%)" fill-opacity="1" d="M 742.386719 176.9375 L 764.347656 185.34375 L 748.832031 193.953125 L 726.789063 185.34375 "/>
<path fill="none" stroke-width="0.1" stroke-linecap="butt" stroke-linejoin="miter" stroke="rgb(100%, 100%, 100%)" stroke-opacity="1" stroke-miterlimit="10" d="M 742.386719 176.9375 L 764.347656 185.34375 L 748.832031 193.953125 L 726.789063 185.34375 Z M 742.386719 176.9375 "/>
<path fill-rule="nonzero" fill="rgb(79.877727%, 79.877727%, 79.877727%)" fill-opacity="1" d="M 745.035156 153.167969 L 729.3125 161.363281 L 751.613281 169.765625 L 767.253906 161.363281 "/>
<path fill="none" stroke-width="0.1" stroke-linecap="butt" stroke-linejoin="miter" stroke="rgb(100%, 100%, 100%)" stroke-opacity="1" stroke-miterlimit="10" d="M 745.035156 153.167969 L 729.3125 161.363281 L 751.613281 169.765625 L 767.253906 161.363281 Z M 745.035156 153.167969 "/>
<path fill-rule="nonzero" fill="rgb(78.116402%, 78.116402%, 78.116402%)" fill-opacity="1" d="M 748.832031 193.953125 L 764.347656 185.34375 L 767.253906 161.363281 L 751.613281 169.765625 "/>
<path fill="none" stroke-width="0.1" stroke-linecap="butt" stroke-linejoin="miter" stroke="rgb(100%, 100%, 100%)" stroke-opacity="1" stroke-miterlimit="10" d="M 748.832031 193.953125 L 764.347656 185.34375 L 767.253906 161.363281 L 751.613281 169.765625 Z M 748.832031 193.953125 "/>
<path fill-rule="nonzero" fill="rgb(78.116402%, 78.116402%, 78.116402%)" fill-opacity="1" d="M 726.789063 185.34375 L 748.832031 193.953125 L 751.613281 169.765625 L 729.3125 161.363281 "/>
<path fill="none" stroke-width="0.1" stroke-linecap="butt" stroke-linejoin="miter" stroke="rgb(100%, 100%, 100%)" stroke-opacity="1" stroke-miterlimit="10" d="M 726.789063 185.34375 L 748.832031 193.953125 L 751.613281 169.765625 L 729.3125 161.363281 Z M 726.789063 185.34375 "/>
<path fill-rule="nonzero" fill="rgb(51.883598%, 51.883598%, 51.883598%)" fill-opacity="1" d="M 729.273438 128.457031 L 708.929688 121.164063 L 711.113281 98.195313 L 731.675781 105.292969 "/>
<path fill="none" stroke-width="0.1" stroke-linecap="butt" stroke-linejoin="miter" stroke="rgb(100%, 100%, 100%)" stroke-opacity="1" stroke-miterlimit="10" d="M 729.273438 128.457031 L 708.929688 121.164063 L 711.113281 98.195313 L 731.675781 105.292969 Z M 729.273438 128.457031 "/>
<path fill-rule="nonzero" fill="rgb(51.883598%, 51.883598%, 51.883598%)" fill-opacity="1" d="M 708.929688 121.164063 L 693.832031 128.457031 L 695.890625 105.292969 L 711.113281 98.195313 "/>
<path fill="none" stroke-width="0.1" stroke-linecap="butt" stroke-linejoin="miter" stroke="rgb(100%, 100%, 100%)" stroke-opacity="1" stroke-miterlimit="10" d="M 708.929688 121.164063 L 693.832031 128.457031 L 695.890625 105.292969 L 711.113281 98.195313 Z M 708.929688 121.164063 "/>
<path fill-rule="nonzero" fill="rgb(50.122273%, 50.122273%, 50.122273%)" fill-opacity="1" d="M 708.929688 121.164063 L 729.273438 128.457031 L 714.234375 135.917969 L 693.832031 128.457031 "/>
<path fill="none" stroke-width="0.1" stroke-linecap="butt" stroke-linejoin="miter" stroke="rgb(100%, 100%, 100%)" stroke-opacity="1" stroke-miterlimit="10" d="M 708.929688 121.164063 L 729.273438 128.457031 L 714.234375 135.917969 L 693.832031 128.457031 Z M 708.929688 121.164063 "/>
<path fill-rule="nonzero" fill="rgb(79.877727%, 79.877727%, 79.877727%)" fill-opacity="1" d="M 711.113281 98.195313 L 695.890625 105.292969 L 716.519531 112.554688 L 731.675781 105.292969 "/>
<path fill="none" stroke-width="0.1" stroke-linecap="butt" stroke-linejoin="miter" stroke="rgb(100%, 100%, 100%)" stroke-opacity="1" stroke-miterlimit="10" d="M 711.113281 98.195313 L 695.890625 105.292969 L 716.519531 112.554688 L 731.675781 105.292969 Z M 711.113281 98.195313 "/>
<path fill-rule="nonzero" fill="rgb(78.116402%, 78.116402%, 78.116402%)" fill-opacity="1" d="M 714.234375 135.917969 L 729.273438 128.457031 L 731.675781 105.292969 L 716.519531 112.554688 "/>
<path fill="none" stroke-width="0.1" stroke-linecap="butt" stroke-linejoin="miter" stroke="rgb(100%, 100%, 100%)" stroke-opacity="1" stroke-miterlimit="10" d="M 714.234375 135.917969 L 729.273438 128.457031 L 731.675781 105.292969 L 716.519531 112.554688 Z M 714.234375 135.917969 "/>
<path fill-rule="nonzero" fill="rgb(78.116402%, 78.116402%, 78.116402%)" fill-opacity="1" d="M 693.832031 128.457031 L 714.234375 135.917969 L 716.519531 112.554688 L 695.890625 105.292969 "/>
<path fill="none" stroke-width="0.1" stroke-linecap="butt" stroke-linejoin="miter" stroke="rgb(100%, 100%, 100%)" stroke-opacity="1" stroke-miterlimit="10" d="M 693.832031 128.457031 L 714.234375 135.917969 L 716.519531 112.554688 L 695.890625 105.292969 Z M 693.832031 128.457031 "/>
<path fill-rule="nonzero" fill="rgb(51.883598%, 51.883598%, 51.883598%)" fill-opacity="1" d="M 666.226563 82.976563 L 647.464844 76.5 L 648.988281 54.148438 L 667.941406 60.441406 "/>
<path fill="none" stroke-width="0.1" stroke-linecap="butt" stroke-linejoin="miter" stroke="rgb(100%, 100%, 100%)" stroke-opacity="1" stroke-miterlimit="10" d="M 666.226563 82.976563 L 647.464844 76.5 L 648.988281 54.148438 L 667.941406 60.441406 Z M 666.226563 82.976563 "/>
<path fill-rule="nonzero" fill="rgb(51.883598%, 51.883598%, 51.883598%)" fill-opacity="1" d="M 647.464844 76.5 L 632.367188 82.976563 L 633.769531 60.441406 L 648.988281 54.148438 "/>
<path fill="none" stroke-width="0.1" stroke-linecap="butt" stroke-linejoin="miter" stroke="rgb(100%, 100%, 100%)" stroke-opacity="1" stroke-miterlimit="10" d="M 647.464844 76.5 L 632.367188 82.976563 L 633.769531 60.441406 L 648.988281 54.148438 Z M 647.464844 76.5 "/>
<path fill-rule="nonzero" fill="rgb(50.122273%, 50.122273%, 50.122273%)" fill-opacity="1" d="M 647.464844 76.5 L 666.226563 82.976563 L 651.171875 89.597656 L 632.367188 82.976563 "/>
<path fill="none" stroke-width="0.1" stroke-linecap="butt" stroke-linejoin="miter" stroke="rgb(100%, 100%, 100%)" stroke-opacity="1" stroke-miterlimit="10" d="M 647.464844 76.5 L 666.226563 82.976563 L 651.171875 89.597656 L 632.367188 82.976563 Z M 647.464844 76.5 "/>
<path fill-rule="nonzero" fill="rgb(79.877727%, 79.877727%, 79.877727%)" fill-opacity="1" d="M 648.988281 54.148438 L 633.769531 60.441406 L 652.761719 66.871094 L 667.941406 60.441406 "/>
<path fill="none" stroke-width="0.1" stroke-linecap="butt" stroke-linejoin="miter" stroke="rgb(100%, 100%, 100%)" stroke-opacity="1" stroke-miterlimit="10" d="M 648.988281 54.148438 L 633.769531 60.441406 L 652.761719 66.871094 L 667.941406 60.441406 Z M 648.988281 54.148438 "/>
<path fill-rule="nonzero" fill="rgb(78.116402%, 78.116402%, 78.116402%)" fill-opacity="1" d="M 651.171875 89.597656 L 666.226563 82.976563 L 667.941406 60.441406 L 652.761719 66.871094 "/>
<path fill="none" stroke-width="0.1" stroke-linecap="butt" stroke-linejoin="miter" stroke="rgb(100%, 100%, 100%)" stroke-opacity="1" stroke-miterlimit="10" d="M 651.171875 89.597656 L 666.226563 82.976563 L 667.941406 60.441406 L 652.761719 66.871094 Z M 651.171875 89.597656 "/>
<path fill-rule="nonzero" fill="rgb(78.116402%, 78.116402%, 78.116402%)" fill-opacity="1" d="M 632.367188 82.976563 L 651.171875 89.597656 L 652.761719 66.871094 L 633.769531 60.441406 "/>
<path fill="none" stroke-width="0.1" stroke-linecap="butt" stroke-linejoin="miter" stroke="rgb(100%, 100%, 100%)" stroke-opacity="1" stroke-miterlimit="10" d="M 632.367188 82.976563 L 651.171875 89.597656 L 652.761719 66.871094 L 633.769531 60.441406 Z M 632.367188 82.976563 "/>
<path fill-rule="nonzero" fill="rgb(51.883598%, 51.883598%, 51.883598%)" fill-opacity="1" d="M 585.589844 50.414063 L 568.183594 44.457031 L 568.964844 22.429688 L 586.535156 28.207031 "/>
<path fill="none" stroke-width="0.1" stroke-linecap="butt" stroke-linejoin="miter" stroke="rgb(100%, 100%, 100%)" stroke-opacity="1" stroke-miterlimit="10" d="M 585.589844 50.414063 L 568.183594 44.457031 L 568.964844 22.429688 L 586.535156 28.207031 Z M 585.589844 50.414063 "/>
<path fill-rule="nonzero" fill="rgb(51.883598%, 51.883598%, 51.883598%)" fill-opacity="1" d="M 568.183594 44.457031 L 552.652344 50.414063 L 553.304688 28.207031 L 568.964844 22.429688 "/>
<path fill="none" stroke-width="0.1" stroke-linecap="butt" stroke-linejoin="miter" stroke="rgb(100%, 100%, 100%)" stroke-opacity="1" stroke-miterlimit="10" d="M 568.183594 44.457031 L 552.652344 50.414063 L 553.304688 28.207031 L 568.964844 22.429688 Z M 568.183594 44.457031 "/>
<path fill-rule="nonzero" fill="rgb(50.122273%, 50.122273%, 50.122273%)" fill-opacity="1" d="M 568.183594 44.457031 L 585.589844 50.414063 L 570.082031 56.503906 L 552.652344 50.414063 "/>
<path fill="none" stroke-width="0.1" stroke-linecap="butt" stroke-linejoin="miter" stroke="rgb(100%, 100%, 100%)" stroke-opacity="1" stroke-miterlimit="10" d="M 568.183594 44.457031 L 585.589844 50.414063 L 570.082031 56.503906 L 552.652344 50.414063 Z M 568.183594 44.457031 "/>
<path fill-rule="nonzero" fill="rgb(79.877727%, 79.877727%, 79.877727%)" fill-opacity="1" d="M 568.964844 22.429688 L 553.304688 28.207031 L 570.894531 34.109375 L 586.535156 28.207031 "/>
<path fill="none" stroke-width="0.1" stroke-linecap="butt" stroke-linejoin="miter" stroke="rgb(100%, 100%, 100%)" stroke-opacity="1" stroke-miterlimit="10" d="M 568.964844 22.429688 L 553.304688 28.207031 L 570.894531 34.109375 L 586.535156 28.207031 Z M 568.964844 22.429688 "/>
<path fill-rule="nonzero" fill="rgb(78.116402%, 78.116402%, 78.116402%)" fill-opacity="1" d="M 570.082031 56.503906 L 585.589844 50.414063 L 586.535156 28.207031 L 570.894531 34.109375 "/>
<path fill="none" stroke-width="0.1" stroke-linecap="butt" stroke-linejoin="miter" stroke="rgb(100%, 100%, 100%)" stroke-opacity="1" stroke-miterlimit="10" d="M 570.082031 56.503906 L 585.589844 50.414063 L 586.535156 28.207031 L 570.894531 34.109375 Z M 570.082031 56.503906 "/>
<path fill-rule="nonzero" fill="rgb(78.116402%, 78.116402%, 78.116402%)" fill-opacity="1" d="M 552.652344 50.414063 L 570.082031 56.503906 L 570.894531 34.109375 L 553.304688 28.207031 "/>
<path fill="none" stroke-width="0.1" stroke-linecap="butt" stroke-linejoin="miter" stroke="rgb(100%, 100%, 100%)" stroke-opacity="1" stroke-miterlimit="10" d="M 552.652344 50.414063 L 570.082031 56.503906 L 570.894531 34.109375 L 553.304688 28.207031 Z M 552.652344 50.414063 "/>
<path fill-rule="nonzero" fill="rgb(51.883598%, 51.883598%, 51.883598%)" fill-opacity="1" d="M 496.367188 30.84375 L 480 25.125 L 480 3.0625 L 496.511719 8.597656 "/>
<path fill="none" stroke-width="0.1" stroke-linecap="butt" stroke-linejoin="miter" stroke="rgb(100%, 100%, 100%)" stroke-opacity="1" stroke-miterlimit="10" d="M 496.367188 30.84375 L 480 25.125 L 480 3.0625 L 496.511719 8.597656 Z M 496.367188 30.84375 "/>
<path fill-rule="nonzero" fill="rgb(51.883598%, 51.883598%, 51.883598%)" fill-opacity="1" d="M 480 25.125 L 463.632813 30.84375 L 463.488281 8.597656 L 480 3.0625 "/>
<path fill="none" stroke-width="0.1" stroke-linecap="butt" stroke-linejoin="miter" stroke="rgb(100%, 100%, 100%)" stroke-opacity="1" stroke-miterlimit="10" d="M 480 25.125 L 463.632813 30.84375 L 463.488281 8.597656 L 480 3.0625 Z M 480 25.125 "/>
<path fill-rule="nonzero" fill="rgb(50.122273%, 50.122273%, 50.122273%)" fill-opacity="1" d="M 480 25.125 L 496.367188 30.84375 L 480 36.6875 L 463.632813 30.84375 "/>
<path fill="none" stroke-width="0.1" stroke-linecap="butt" stroke-linejoin="miter" stroke="rgb(100%, 100%, 100%)" stroke-opacity="1" stroke-miterlimit="10" d="M 480 25.125 L 496.367188 30.84375 L 480 36.6875 L 463.632813 30.84375 Z M 480 25.125 "/>
<path fill-rule="nonzero" fill="rgb(79.877727%, 79.877727%, 79.877727%)" fill-opacity="1" d="M 480 3.0625 L 463.488281 8.597656 L 480 14.253906 L 496.511719 8.597656 "/>
<path fill="none" stroke-width="0.1" stroke-linecap="butt" stroke-linejoin="miter" stroke="rgb(100%, 100%, 100%)" stroke-opacity="1" stroke-miterlimit="10" d="M 480 3.0625 L 463.488281 8.597656 L 480 14.253906 L 496.511719 8.597656 Z M 480 3.0625 "/>
<path fill-rule="nonzero" fill="rgb(78.116402%, 78.116402%, 78.116402%)" fill-opacity="1" d="M 463.632813 30.84375 L 480 36.6875 L 480 14.253906 L 463.488281 8.597656 "/>
<path fill="none" stroke-width="0.1" stroke-linecap="butt" stroke-linejoin="miter" stroke="rgb(100%, 100%, 100%)" stroke-opacity="1" stroke-miterlimit="10" d="M 463.632813 30.84375 L 480 36.6875 L 480 14.253906 L 463.488281 8.597656 Z M 463.632813 30.84375 "/>
<path fill-rule="nonzero" fill="rgb(78.116402%, 78.116402%, 78.116402%)" fill-opacity="1" d="M 480 36.6875 L 496.367188 30.84375 L 496.511719 8.597656 L 480 14.253906 "/>
<path fill="none" stroke-width="0.1" stroke-linecap="butt" stroke-linejoin="miter" stroke="rgb(100%, 100%, 100%)" stroke-opacity="1" stroke-miterlimit="10" d="M 480 36.6875 L 496.367188 30.84375 L 496.511719 8.597656 L 480 14.253906 Z M 480 36.6875 "/>
<path fill-rule="nonzero" fill="rgb(51.883598%, 51.883598%, 51.883598%)" fill-opacity="1" d="M 390.878906 17.976563 L 373.273438 23.71875 L 372.308594 1.027344 L 390.082031 -4.519531 "/>
<path fill="none" stroke-width="0.1" stroke-linecap="butt" stroke-linejoin="miter" stroke="rgb(100%, 100%, 100%)" stroke-opacity="1" stroke-miterlimit="10" d="M 390.878906 17.976563 L 373.273438 23.71875 L 372.308594 1.027344 L 390.082031 -4.519531 Z M 390.878906 17.976563 "/>
<path fill-rule="nonzero" fill="rgb(51.883598%, 51.883598%, 51.883598%)" fill-opacity="1" d="M 406.5625 23.71875 L 390.878906 17.976563 L 390.082031 -4.519531 L 405.898438 1.027344 "/>
<path fill="none" stroke-width="0.1" stroke-linecap="butt" stroke-linejoin="miter" stroke="rgb(100%, 100%, 100%)" stroke-opacity="1" stroke-miterlimit="10" d="M 406.5625 23.71875 L 390.878906 17.976563 L 390.082031 -4.519531 L 405.898438 1.027344 Z M 406.5625 23.71875 "/>
<path fill-rule="nonzero" fill="rgb(50.122273%, 50.122273%, 50.122273%)" fill-opacity="1" d="M 390.878906 17.976563 L 406.5625 23.71875 L 388.941406 29.582031 L 373.273438 23.71875 "/>
<path fill="none" stroke-width="0.1" stroke-linecap="butt" stroke-linejoin="miter" stroke="rgb(100%, 100%, 100%)" stroke-opacity="1" stroke-miterlimit="10" d="M 390.878906 17.976563 L 406.5625 23.71875 L 388.941406 29.582031 L 373.273438 23.71875 Z M 390.878906 17.976563 "/>
<path fill-rule="nonzero" fill="rgb(79.877727%, 79.877727%, 79.877727%)" fill-opacity="1" d="M 390.082031 -4.519531 L 372.308594 1.027344 L 388.109375 6.695313 L 405.898438 1.027344 "/>
<path fill="none" stroke-width="0.1" stroke-linecap="butt" stroke-linejoin="miter" stroke="rgb(100%, 100%, 100%)" stroke-opacity="1" stroke-miterlimit="10" d="M 390.082031 -4.519531 L 372.308594 1.027344 L 388.109375 6.695313 L 405.898438 1.027344 Z M 390.082031 -4.519531 "/>
<path fill-rule="nonzero" fill="rgb(78.116402%, 78.116402%, 78.116402%)" fill-opacity="1" d="M 373.273438 23.71875 L 388.941406 29.582031 L 388.109375 6.695313 L 372.308594 1.027344 "/>
<path fill="none" stroke-width="0.1" stroke-linecap="butt" stroke-linejoin="miter" stroke="rgb(100%, 100%, 100%)" stroke-opacity="1" stroke-miterlimit="10" d="M 373.273438 23.71875 L 388.941406 29.582031 L 388.109375 6.695313 L 372.308594 1.027344 Z M 373.273438 23.71875 "/>
<path fill-rule="nonzero" fill="rgb(78.116402%, 78.116402%, 78.116402%)" fill-opacity="1" d="M 388.941406 29.582031 L 406.5625 23.71875 L 405.898438 1.027344 L 388.109375 6.695313 "/>
<path fill="none" stroke-width="0.1" stroke-linecap="butt" stroke-linejoin="miter" stroke="rgb(100%, 100%, 100%)" stroke-opacity="1" stroke-miterlimit="10" d="M 388.941406 29.582031 L 406.5625 23.71875 L 405.898438 1.027344 L 388.109375 6.695313 Z M 388.941406 29.582031 "/>
<path fill-rule="nonzero" fill="rgb(51.883598%, 51.883598%, 51.883598%)" fill-opacity="1" d="M 308.828125 22.164063 L 289.605469 28.179688 L 287.816406 4.617188 L 307.238281 -1.1875 "/>
<path fill="none" stroke-width="0.1" stroke-linecap="butt" stroke-linejoin="miter" stroke="rgb(100%, 100%, 100%)" stroke-opacity="1" stroke-miterlimit="10" d="M 308.828125 22.164063 L 289.605469 28.179688 L 287.816406 4.617188 L 307.238281 -1.1875 Z M 308.828125 22.164063 "/>
<path fill-rule="nonzero" fill="rgb(51.883598%, 51.883598%, 51.883598%)" fill-opacity="1" d="M 324.222656 28.179688 L 308.828125 22.164063 L 307.238281 -1.1875 L 322.757813 4.617188 "/>
<path fill="none" stroke-width="0.1" stroke-linecap="butt" stroke-linejoin="miter" stroke="rgb(100%, 100%, 100%)" stroke-opacity="1" stroke-miterlimit="10" d="M 324.222656 28.179688 L 308.828125 22.164063 L 307.238281 -1.1875 L 322.757813 4.617188 Z M 324.222656 28.179688 "/>
<path fill-rule="nonzero" fill="rgb(50.122273%, 50.122273%, 50.122273%)" fill-opacity="1" d="M 308.828125 22.164063 L 324.222656 28.179688 L 304.957031 34.332031 L 289.605469 28.179688 "/>
<path fill="none" stroke-width="0.1" stroke-linecap="butt" stroke-linejoin="miter" stroke="rgb(100%, 100%, 100%)" stroke-opacity="1" stroke-miterlimit="10" d="M 308.828125 22.164063 L 324.222656 28.179688 L 304.957031 34.332031 L 289.605469 28.179688 Z M 308.828125 22.164063 "/>
<path fill-rule="nonzero" fill="rgb(79.877727%, 79.877727%, 79.877727%)" fill-opacity="1" d="M 307.238281 -1.1875 L 287.816406 4.617188 L 303.292969 10.558594 L 322.757813 4.617188 "/>
<path fill="none" stroke-width="0.1" stroke-linecap="butt" stroke-linejoin="miter" stroke="rgb(100%, 100%, 100%)" stroke-opacity="1" stroke-miterlimit="10" d="M 307.238281 -1.1875 L 287.816406 4.617188 L 303.292969 10.558594 L 322.757813 4.617188 Z M 307.238281 -1.1875 "/>
<path fill-rule="nonzero" fill="rgb(78.116402%, 78.116402%, 78.116402%)" fill-opacity="1" d="M 289.605469 28.179688 L 304.957031 34.332031 L 303.292969 10.558594 L 287.816406 4.617188 "/>
<path fill="none" stroke-width="0.1" stroke-linecap="butt" stroke-linejoin="miter" stroke="rgb(100%, 100%, 100%)" stroke-opacity="1" stroke-miterlimit="10" d="M 289.605469 28.179688 L 304.957031 34.332031 L 303.292969 10.558594 L 287.816406 4.617188 Z M 289.605469 28.179688 "/>
<path fill-rule="nonzero" fill="rgb(78.116402%, 78.116402%, 78.116402%)" fill-opacity="1" d="M 304.957031 34.332031 L 324.222656 28.179688 L 322.757813 4.617188 L 303.292969 10.558594 "/>
<path fill="none" stroke-width="0.1" stroke-linecap="butt" stroke-linejoin="miter" stroke="rgb(100%, 100%, 100%)" stroke-opacity="1" stroke-miterlimit="10" d="M 304.957031 34.332031 L 324.222656 28.179688 L 322.757813 4.617188 L 303.292969 10.558594 Z M 304.957031 34.332031 "/>
<path fill-rule="nonzero" fill="rgb(51.883598%, 51.883598%, 51.883598%)" fill-opacity="1" d="M 243.019531 36.375 L 221.855469 42.921875 L 219.28125 18.070313 L 240.683594 11.753906 "/>
<path fill="none" stroke-width="0.1" stroke-linecap="butt" stroke-linejoin="miter" stroke="rgb(100%, 100%, 100%)" stroke-opacity="1" stroke-miterlimit="10" d="M 243.019531 36.375 L 221.855469 42.921875 L 219.28125 18.070313 L 240.683594 11.753906 Z M 243.019531 36.375 "/>
<path fill-rule="nonzero" fill="rgb(51.883598%, 51.883598%, 51.883598%)" fill-opacity="1" d="M 258.5625 42.921875 L 243.019531 36.375 L 240.683594 11.753906 L 256.351563 18.070313 "/>
<path fill="none" stroke-width="0.1" stroke-linecap="butt" stroke-linejoin="miter" stroke="rgb(100%, 100%, 100%)" stroke-opacity="1" stroke-miterlimit="10" d="M 258.5625 42.921875 L 243.019531 36.375 L 240.683594 11.753906 L 256.351563 18.070313 Z M 258.5625 42.921875 "/>
<path fill-rule="nonzero" fill="rgb(50.122273%, 50.122273%, 50.122273%)" fill-opacity="1" d="M 243.019531 36.375 L 258.5625 42.921875 L 237.332031 49.625 L 221.855469 42.921875 "/>
<path fill="none" stroke-width="0.1" stroke-linecap="butt" stroke-linejoin="miter" stroke="rgb(100%, 100%, 100%)" stroke-opacity="1" stroke-miterlimit="10" d="M 243.019531 36.375 L 258.5625 42.921875 L 237.332031 49.625 L 221.855469 42.921875 Z M 243.019531 36.375 "/>
<path fill-rule="nonzero" fill="rgb(79.877727%, 79.877727%, 79.877727%)" fill-opacity="1" d="M 240.683594 11.753906 L 219.28125 18.070313 L 234.878906 24.539063 L 256.351563 18.070313 "/>
<path fill="none" stroke-width="0.1" stroke-linecap="butt" stroke-linejoin="miter" stroke="rgb(100%, 100%, 100%)" stroke-opacity="1" stroke-miterlimit="10" d="M 240.683594 11.753906 L 219.28125 18.070313 L 234.878906 24.539063 L 256.351563 18.070313 Z M 240.683594 11.753906 "/>
<path fill-rule="nonzero" fill="rgb(78.116402%, 78.116402%, 78.116402%)" fill-opacity="1" d="M 221.855469 42.921875 L 237.332031 49.625 L 234.878906 24.539063 L 219.28125 18.070313 "/>
<path fill="none" stroke-width="0.1" stroke-linecap="butt" stroke-linejoin="miter" stroke="rgb(100%, 100%, 100%)" stroke-opacity="1" stroke-miterlimit="10" d="M 221.855469 42.921875 L 237.332031 49.625 L 234.878906 24.539063 L 219.28125 18.070313 Z M 221.855469 42.921875 "/>
<path fill-rule="nonzero" fill="rgb(78.116402%, 78.116402%, 78.116402%)" fill-opacity="1" d="M 237.332031 49.625 L 258.5625 42.921875 L 256.351563 18.070313 L 234.878906 24.539063 "/>
<path fill="none" stroke-width="0.1" stroke-linecap="butt" stroke-linejoin="miter" stroke="rgb(100%, 100%, 100%)" stroke-opacity="1" stroke-miterlimit="10" d="M 237.332031 49.625 L 258.5625 42.921875 L 256.351563 18.070313 L 234.878906 24.539063 Z M 237.332031 49.625 "/>
<path fill-rule="nonzero" fill="rgb(51.883598%, 51.883598%, 51.883598%)" fill-opacity="1" d="M 204.398438 58.277344 L 181.148438 65.597656 L 177.9375 39.097656 L 201.476563 32.035156 "/>
<path fill="none" stroke-width="0.1" stroke-linecap="butt" stroke-linejoin="miter" stroke="rgb(100%, 100%, 100%)" stroke-opacity="1" stroke-miterlimit="10" d="M 204.398438 58.277344 L 181.148438 65.597656 L 177.9375 39.097656 L 201.476563 32.035156 Z M 204.398438 58.277344 "/>
<path fill-rule="nonzero" fill="rgb(51.883598%, 51.883598%, 51.883598%)" fill-opacity="1" d="M 220.621094 65.597656 L 204.398438 58.277344 L 201.476563 32.035156 L 217.832031 39.097656 "/>
<path fill="none" stroke-width="0.1" stroke-linecap="butt" stroke-linejoin="miter" stroke="rgb(100%, 100%, 100%)" stroke-opacity="1" stroke-miterlimit="10" d="M 220.621094 65.597656 L 204.398438 58.277344 L 201.476563 32.035156 L 217.832031 39.097656 Z M 220.621094 65.597656 "/>
<path fill-rule="nonzero" fill="rgb(50.122273%, 50.122273%, 50.122273%)" fill-opacity="1" d="M 204.398438 58.277344 L 220.621094 65.597656 L 197.277344 73.105469 L 181.148438 65.597656 "/>
<path fill="none" stroke-width="0.1" stroke-linecap="butt" stroke-linejoin="miter" stroke="rgb(100%, 100%, 100%)" stroke-opacity="1" stroke-miterlimit="10" d="M 204.398438 58.277344 L 220.621094 65.597656 L 197.277344 73.105469 L 181.148438 65.597656 Z M 204.398438 58.277344 "/>
<path fill-rule="nonzero" fill="rgb(79.877727%, 79.877727%, 79.877727%)" fill-opacity="1" d="M 201.476563 32.035156 L 177.9375 39.097656 L 194.203125 46.339844 L 217.832031 39.097656 "/>
<path fill="none" stroke-width="0.1" stroke-linecap="butt" stroke-linejoin="miter" stroke="rgb(100%, 100%, 100%)" stroke-opacity="1" stroke-miterlimit="10" d="M 201.476563 32.035156 L 177.9375 39.097656 L 194.203125 46.339844 L 217.832031 39.097656 Z M 201.476563 32.035156 "/>
<path fill-rule="nonzero" fill="rgb(78.116402%, 78.116402%, 78.116402%)" fill-opacity="1" d="M 181.148438 65.597656 L 197.277344 73.105469 L 194.203125 46.339844 L 177.9375 39.097656 "/>
<path fill="none" stroke-width="0.1" stroke-linecap="butt" stroke-linejoin="miter" stroke="rgb(100%, 100%, 100%)" stroke-opacity="1" stroke-miterlimit="10" d="M 181.148438 65.597656 L 197.277344 73.105469 L 194.203125 46.339844 L 177.9375 39.097656 Z M 181.148438 65.597656 "/>
<path fill-rule="nonzero" fill="rgb(78.116402%, 78.116402%, 78.116402%)" fill-opacity="1" d="M 197.277344 73.105469 L 220.621094 65.597656 L 217.832031 39.097656 L 194.203125 46.339844 "/>
<path fill="none" stroke-width="0.1" stroke-linecap="butt" stroke-linejoin="miter" stroke="rgb(100%, 100%, 100%)" stroke-opacity="1" stroke-miterlimit="10" d="M 197.277344 73.105469 L 220.621094 65.597656 L 217.832031 39.097656 L 194.203125 46.339844 Z M 197.277344 73.105469 "/>
</svg>
